<?xml version="1.0" encoding="utf-8" standalone="no"?>
<!DOCTYPE svg PUBLIC "-//W3C//DTD SVG 1.1//EN"
  "http://www.w3.org/Graphics/SVG/1.1/DTD/svg11.dtd">
<!-- Created with matplotlib (https://matplotlib.org/) -->
<svg height="936pt" version="1.1" viewBox="0 0 1440 936" width="1440pt" xmlns="http://www.w3.org/2000/svg" xmlns:xlink="http://www.w3.org/1999/xlink">
 <defs>
  <style type="text/css">
*{stroke-linecap:butt;stroke-linejoin:round;white-space:pre;}
  </style>
 </defs>
 <g id="figure_1">
  <g id="patch_1">
   <path d="M 0 936 
L 1440 936 
L 1440 0 
L 0 0 
z
" style="fill:#ffffff;"/>
  </g>
  <g id="axes_1">
   <g id="patch_2">
    <path d="M 473.684211 465.66 
C 473.684211 446.376871 469.885855 427.281247 462.506521 409.465959 
C 455.127187 391.650671 444.310385 375.462183 430.675154 361.826952 
C 417.039923 348.191721 400.851434 337.374918 383.036146 329.995584 
C 365.220858 322.616251 346.125234 318.817895 326.842105 318.817895 
C 307.558977 318.817895 288.463352 322.616251 270.648064 329.995584 
C 252.832777 337.374918 236.644288 348.191721 223.009057 361.826952 
C 209.373826 375.462183 198.557024 391.650671 191.17769 409.465959 
C 183.798356 427.281247 180 446.376871 180 465.66 
C 180 484.943129 183.798356 504.038753 191.17769 521.854041 
C 198.557024 539.669329 209.373826 555.857817 223.009057 569.493048 
C 236.644288 583.128279 252.832777 593.945082 270.648064 601.324416 
C 288.463352 608.703749 307.558977 612.502105 326.842105 612.502105 
C 346.125234 612.502105 365.220858 608.703749 383.036146 601.324416 
C 400.851434 593.945082 417.039923 583.128279 430.675154 569.493048 
C 444.310385 555.857817 455.127187 539.669329 462.506521 521.854041 
C 469.885855 504.038753 473.684211 484.943129 473.684211 465.66 
M 326.842105 465.66 
C 326.842105 465.66 326.842105 465.66 326.842105 465.66 
C 326.842105 465.66 326.842105 465.66 326.842105 465.66 
C 326.842105 465.66 326.842105 465.66 326.842105 465.66 
C 326.842105 465.66 326.842105 465.66 326.842105 465.66 
C 326.842105 465.66 326.842105 465.66 326.842105 465.66 
C 326.842105 465.66 326.842105 465.66 326.842105 465.66 
C 326.842105 465.66 326.842105 465.66 326.842105 465.66 
C 326.842105 465.66 326.842105 465.66 326.842105 465.66 
C 326.842105 465.66 326.842105 465.66 326.842105 465.66 
C 326.842105 465.66 326.842105 465.66 326.842105 465.66 
C 326.842105 465.66 326.842105 465.66 326.842105 465.66 
C 326.842105 465.66 326.842105 465.66 326.842105 465.66 
C 326.842105 465.66 326.842105 465.66 326.842105 465.66 
C 326.842105 465.66 326.842105 465.66 326.842105 465.66 
C 326.842105 465.66 326.842105 465.66 326.842105 465.66 
C 326.842105 465.66 326.842105 465.66 326.842105 465.66 
M 473.684211 465.66 
z
" style="fill:#ffffff;"/>
   </g>
   <g id="patch_3">
    <path clip-path="url(#p0a31272dac)" d="M 326.842105 383.944325 
L 311.806828 439.618136 
L 305.173965 453.149893 
L 274.758378 465.66 
L 290.728538 486.510178 
L 285.984268 536.42785 
L 326.842105 507.360356 
L 377.055983 552.632987 
L 425.874963 522.836647 
L 433.647129 465.66 
L 403.620603 421.331914 
L 344.035602 435.879989 
z
" style="fill:#9ad8ca;opacity:0.99;"/>
   </g>
   <g id="matplotlib.axis_1">
    <g id="xtick_1">
     <g id="line2d_1">
      <path clip-path="url(#p0a31272dac)" d="M 326.842105 465.66 
L 326.842105 318.817895 
" style="fill:none;stroke:#b0b0b0;stroke-linecap:square;stroke-opacity:0.4;stroke-width:0.8;"/>
     </g>
     <g id="text_1">
      <!-- AJCC 4 -->
      <defs>
       <path d="M 53.421875 13.28125 
L 24.03125 13.28125 
L 19.390625 0 
L 0.484375 0 
L 27.484375 72.90625 
L 49.90625 72.90625 
L 76.90625 0 
L 58.015625 0 
z
M 28.71875 26.8125 
L 48.6875 26.8125 
L 38.71875 55.8125 
z
" id="DejaVuSans-Bold-65"/>
       <path d="M 9.1875 72.90625 
L 27.984375 72.90625 
L 27.984375 7.078125 
Q 27.984375 -6.546875 20.578125 -13.28125 
Q 13.1875 -20.015625 -1.8125 -20.015625 
L -5.609375 -20.015625 
L -5.609375 -5.8125 
L -2.6875 -5.8125 
Q 3.171875 -5.8125 6.171875 -2.53125 
Q 9.1875 0.734375 9.1875 7.078125 
z
" id="DejaVuSans-Bold-74"/>
       <path d="M 67 4 
Q 61.8125 1.3125 56.203125 -0.046875 
Q 50.59375 -1.421875 44.484375 -1.421875 
Q 26.265625 -1.421875 15.625 8.765625 
Q 4.984375 18.953125 4.984375 36.375 
Q 4.984375 53.859375 15.625 64.03125 
Q 26.265625 74.21875 44.484375 74.21875 
Q 50.59375 74.21875 56.203125 72.84375 
Q 61.8125 71.484375 67 68.796875 
L 67 53.71875 
Q 61.765625 57.28125 56.6875 58.9375 
Q 51.609375 60.59375 46 60.59375 
Q 35.9375 60.59375 30.171875 54.140625 
Q 24.421875 47.703125 24.421875 36.375 
Q 24.421875 25.09375 30.171875 18.640625 
Q 35.9375 12.203125 46 12.203125 
Q 51.609375 12.203125 56.6875 13.859375 
Q 61.765625 15.53125 67 19.09375 
z
" id="DejaVuSans-Bold-67"/>
       <path id="DejaVuSans-Bold-32"/>
       <path d="M 36.8125 57.421875 
L 16.21875 26.90625 
L 36.8125 26.90625 
z
M 33.6875 72.90625 
L 54.59375 72.90625 
L 54.59375 26.90625 
L 64.984375 26.90625 
L 64.984375 13.28125 
L 54.59375 13.28125 
L 54.59375 0 
L 36.8125 0 
L 36.8125 13.28125 
L 4.5 13.28125 
L 4.5 29.390625 
z
" id="DejaVuSans-Bold-52"/>
      </defs>
      <g transform="translate(299.409683 308.956957)scale(0.15 -0.15)">
       <use xlink:href="#DejaVuSans-Bold-65"/>
       <use x="77.392578" xlink:href="#DejaVuSans-Bold-74"/>
       <use x="114.599609" xlink:href="#DejaVuSans-Bold-67"/>
       <use x="187.988281" xlink:href="#DejaVuSans-Bold-67"/>
       <use x="261.376953" xlink:href="#DejaVuSans-Bold-32"/>
       <use x="296.191406" xlink:href="#DejaVuSans-Bold-52"/>
      </g>
     </g>
    </g>
    <g id="xtick_2">
     <g id="line2d_2">
      <path clip-path="url(#p0a31272dac)" d="M 326.842105 465.66 
L 253.421053 338.491006 
" style="fill:none;stroke:#b0b0b0;stroke-linecap:square;stroke-opacity:0.4;stroke-width:0.8;"/>
     </g>
     <g id="text_2">
      <!-- T4 -->
      <defs>
       <path d="M 0.484375 72.90625 
L 67.671875 72.90625 
L 67.671875 58.6875 
L 43.5 58.6875 
L 43.5 0 
L 24.703125 0 
L 24.703125 58.6875 
L 0.484375 58.6875 
z
" id="DejaVuSans-Bold-84"/>
      </defs>
      <g transform="translate(236.086287 330.505713)scale(0.15 -0.15)">
       <use xlink:href="#DejaVuSans-Bold-84"/>
       <use x="68.212891" xlink:href="#DejaVuSans-Bold-52"/>
      </g>
     </g>
    </g>
    <g id="xtick_3">
     <g id="line2d_3">
      <path clip-path="url(#p0a31272dac)" d="M 326.842105 465.66 
L 199.673112 392.238947 
" style="fill:none;stroke:#b0b0b0;stroke-linecap:square;stroke-opacity:0.4;stroke-width:0.8;"/>
     </g>
     <g id="text_3">
      <!-- N3 -->
      <defs>
       <path d="M 9.1875 72.90625 
L 30.171875 72.90625 
L 56.6875 22.90625 
L 56.6875 72.90625 
L 74.515625 72.90625 
L 74.515625 0 
L 53.515625 0 
L 27 50 
L 27 0 
L 9.1875 0 
z
" id="DejaVuSans-Bold-78"/>
       <path d="M 46.578125 39.3125 
Q 53.953125 37.40625 57.78125 32.6875 
Q 61.625 27.984375 61.625 20.703125 
Q 61.625 9.859375 53.3125 4.21875 
Q 45.015625 -1.421875 29.109375 -1.421875 
Q 23.484375 -1.421875 17.84375 -0.515625 
Q 12.203125 0.390625 6.6875 2.203125 
L 6.6875 16.703125 
Q 11.96875 14.0625 17.15625 12.71875 
Q 22.359375 11.375 27.390625 11.375 
Q 34.859375 11.375 38.84375 13.953125 
Q 42.828125 16.546875 42.828125 21.390625 
Q 42.828125 26.375 38.75 28.9375 
Q 34.671875 31.5 26.703125 31.5 
L 19.1875 31.5 
L 19.1875 43.609375 
L 27.09375 43.609375 
Q 34.1875 43.609375 37.640625 45.828125 
Q 41.109375 48.046875 41.109375 52.59375 
Q 41.109375 56.78125 37.734375 59.078125 
Q 34.375 61.375 28.21875 61.375 
Q 23.6875 61.375 19.046875 60.34375 
Q 14.40625 59.328125 9.8125 57.328125 
L 9.8125 71.09375 
Q 15.375 72.65625 20.84375 73.4375 
Q 26.3125 74.21875 31.59375 74.21875 
Q 45.796875 74.21875 52.84375 69.546875 
Q 59.90625 64.890625 59.90625 55.515625 
Q 59.90625 49.125 56.53125 45.046875 
Q 53.171875 40.96875 46.578125 39.3125 
z
" id="DejaVuSans-Bold-51"/>
      </defs>
      <g transform="translate(176.053834 389.37801)scale(0.15 -0.15)">
       <use xlink:href="#DejaVuSans-Bold-78"/>
       <use x="83.691406" xlink:href="#DejaVuSans-Bold-51"/>
      </g>
     </g>
    </g>
    <g id="xtick_4">
     <g id="line2d_4">
      <path clip-path="url(#p0a31272dac)" d="M 326.842105 465.66 
L 180 465.66 
" style="fill:none;stroke:#b0b0b0;stroke-linecap:square;stroke-opacity:0.4;stroke-width:0.8;"/>
     </g>
     <g id="text_4">
      <!-- T3 -->
      <g transform="translate(155.665234 469.799062)scale(0.15 -0.15)">
       <use xlink:href="#DejaVuSans-Bold-84"/>
       <use x="68.212891" xlink:href="#DejaVuSans-Bold-51"/>
      </g>
     </g>
    </g>
    <g id="xtick_5">
     <g id="line2d_5">
      <path clip-path="url(#p0a31272dac)" d="M 326.842105 465.66 
L 199.673112 539.081053 
" style="fill:none;stroke:#b0b0b0;stroke-linecap:square;stroke-opacity:0.4;stroke-width:0.8;"/>
     </g>
     <g id="text_5">
      <!-- AJCC 3 -->
      <g transform="translate(160.116334 550.220115)scale(0.15 -0.15)">
       <use xlink:href="#DejaVuSans-Bold-65"/>
       <use x="77.392578" xlink:href="#DejaVuSans-Bold-74"/>
       <use x="114.599609" xlink:href="#DejaVuSans-Bold-67"/>
       <use x="187.988281" xlink:href="#DejaVuSans-Bold-67"/>
       <use x="261.376953" xlink:href="#DejaVuSans-Bold-32"/>
       <use x="296.191406" xlink:href="#DejaVuSans-Bold-51"/>
      </g>
     </g>
    </g>
    <g id="xtick_6">
     <g id="line2d_6">
      <path clip-path="url(#p0a31272dac)" d="M 326.842105 465.66 
L 253.421053 592.828994 
" style="fill:none;stroke:#b0b0b0;stroke-linecap:square;stroke-opacity:0.4;stroke-width:0.8;"/>
     </g>
     <g id="text_6">
      <!-- N2 -->
      <defs>
       <path d="M 28.8125 13.8125 
L 60.890625 13.8125 
L 60.890625 0 
L 7.90625 0 
L 7.90625 13.8125 
L 34.515625 37.3125 
Q 38.09375 40.53125 39.796875 43.609375 
Q 41.5 46.6875 41.5 50 
Q 41.5 55.125 38.0625 58.25 
Q 34.625 61.375 28.90625 61.375 
Q 24.515625 61.375 19.28125 59.5 
Q 14.0625 57.625 8.109375 53.90625 
L 8.109375 69.921875 
Q 14.453125 72.015625 20.65625 73.109375 
Q 26.859375 74.21875 32.8125 74.21875 
Q 45.90625 74.21875 53.15625 68.453125 
Q 60.40625 62.703125 60.40625 52.390625 
Q 60.40625 46.4375 57.328125 41.28125 
Q 54.25 36.140625 44.390625 27.484375 
z
" id="DejaVuSans-Bold-50"/>
      </defs>
      <g transform="translate(234.926131 609.092412)scale(0.15 -0.15)">
       <use xlink:href="#DejaVuSans-Bold-78"/>
       <use x="83.691406" xlink:href="#DejaVuSans-Bold-50"/>
      </g>
     </g>
    </g>
    <g id="xtick_7">
     <g id="line2d_7">
      <path clip-path="url(#p0a31272dac)" d="M 326.842105 465.66 
L 326.842105 612.502105 
" style="fill:none;stroke:#b0b0b0;stroke-linecap:square;stroke-opacity:0.4;stroke-width:0.8;"/>
     </g>
     <g id="text_7">
      <!-- AJCC 2 -->
      <g transform="translate(299.409683 630.641168)scale(0.15 -0.15)">
       <use xlink:href="#DejaVuSans-Bold-65"/>
       <use x="77.392578" xlink:href="#DejaVuSans-Bold-74"/>
       <use x="114.599609" xlink:href="#DejaVuSans-Bold-67"/>
       <use x="187.988281" xlink:href="#DejaVuSans-Bold-67"/>
       <use x="261.376953" xlink:href="#DejaVuSans-Bold-32"/>
       <use x="296.191406" xlink:href="#DejaVuSans-Bold-50"/>
      </g>
     </g>
    </g>
    <g id="xtick_8">
     <g id="line2d_8">
      <path clip-path="url(#p0a31272dac)" d="M 326.842105 465.66 
L 400.263158 592.828994 
" style="fill:none;stroke:#b0b0b0;stroke-linecap:square;stroke-opacity:0.4;stroke-width:0.8;"/>
     </g>
     <g id="text_8">
      <!-- T2 -->
      <g transform="translate(396.928392 609.092412)scale(0.15 -0.15)">
       <use xlink:href="#DejaVuSans-Bold-84"/>
       <use x="68.212891" xlink:href="#DejaVuSans-Bold-50"/>
      </g>
     </g>
    </g>
    <g id="xtick_9">
     <g id="line2d_9">
      <path clip-path="url(#p0a31272dac)" d="M 326.842105 465.66 
L 454.011099 539.081053 
" style="fill:none;stroke:#b0b0b0;stroke-linecap:square;stroke-opacity:0.4;stroke-width:0.8;"/>
     </g>
     <g id="text_9">
      <!-- N1 -->
      <defs>
       <path d="M 11.71875 12.984375 
L 28.328125 12.984375 
L 28.328125 60.109375 
L 11.28125 56.59375 
L 11.28125 69.390625 
L 28.21875 72.90625 
L 46.09375 72.90625 
L 46.09375 12.984375 
L 62.703125 12.984375 
L 62.703125 0 
L 11.71875 0 
z
" id="DejaVuSans-Bold-49"/>
      </defs>
      <g transform="translate(454.640533 550.220115)scale(0.15 -0.15)">
       <use xlink:href="#DejaVuSans-Bold-78"/>
       <use x="83.691406" xlink:href="#DejaVuSans-Bold-49"/>
      </g>
     </g>
    </g>
    <g id="xtick_10">
     <g id="line2d_10">
      <path clip-path="url(#p0a31272dac)" d="M 326.842105 465.66 
L 473.684211 465.66 
" style="fill:none;stroke:#b0b0b0;stroke-linecap:square;stroke-opacity:0.4;stroke-width:0.8;"/>
     </g>
     <g id="text_10">
      <!-- AJCC 1 -->
      <g transform="translate(460.251789 469.799063)scale(0.15 -0.15)">
       <use xlink:href="#DejaVuSans-Bold-65"/>
       <use x="77.392578" xlink:href="#DejaVuSans-Bold-74"/>
       <use x="114.599609" xlink:href="#DejaVuSans-Bold-67"/>
       <use x="187.988281" xlink:href="#DejaVuSans-Bold-67"/>
       <use x="261.376953" xlink:href="#DejaVuSans-Bold-32"/>
       <use x="296.191406" xlink:href="#DejaVuSans-Bold-49"/>
      </g>
     </g>
    </g>
    <g id="xtick_11">
     <g id="line2d_11">
      <path clip-path="url(#p0a31272dac)" d="M 326.842105 465.66 
L 454.011099 392.238947 
" style="fill:none;stroke:#b0b0b0;stroke-linecap:square;stroke-opacity:0.4;stroke-width:0.8;"/>
     </g>
     <g id="text_11">
      <!-- T1 -->
      <g transform="translate(455.800689 389.37801)scale(0.15 -0.15)">
       <use xlink:href="#DejaVuSans-Bold-84"/>
       <use x="68.212891" xlink:href="#DejaVuSans-Bold-49"/>
      </g>
     </g>
    </g>
    <g id="xtick_12">
     <g id="line2d_12">
      <path clip-path="url(#p0a31272dac)" d="M 326.842105 465.66 
L 400.263158 338.491006 
" style="fill:none;stroke:#b0b0b0;stroke-linecap:square;stroke-opacity:0.4;stroke-width:0.8;"/>
     </g>
     <g id="text_12">
      <!-- N0 -->
      <defs>
       <path d="M 46 36.53125 
Q 46 50.203125 43.4375 55.78125 
Q 40.875 61.375 34.8125 61.375 
Q 28.765625 61.375 26.171875 55.78125 
Q 23.578125 50.203125 23.578125 36.53125 
Q 23.578125 22.703125 26.171875 17.03125 
Q 28.765625 11.375 34.8125 11.375 
Q 40.828125 11.375 43.40625 17.03125 
Q 46 22.703125 46 36.53125 
z
M 64.796875 36.375 
Q 64.796875 18.265625 56.984375 8.421875 
Q 49.171875 -1.421875 34.8125 -1.421875 
Q 20.40625 -1.421875 12.59375 8.421875 
Q 4.78125 18.265625 4.78125 36.375 
Q 4.78125 54.546875 12.59375 64.375 
Q 20.40625 74.21875 34.8125 74.21875 
Q 49.171875 74.21875 56.984375 64.375 
Q 64.796875 54.546875 64.796875 36.375 
z
" id="DejaVuSans-Bold-48"/>
      </defs>
      <g transform="translate(395.768236 330.505713)scale(0.15 -0.15)">
       <use xlink:href="#DejaVuSans-Bold-78"/>
       <use x="83.691406" xlink:href="#DejaVuSans-Bold-48"/>
      </g>
     </g>
    </g>
   </g>
   <g id="matplotlib.axis_2">
    <g id="ytick_1">
     <g id="line2d_13">
      <path clip-path="url(#p0a31272dac)" d="M 326.842105 465.66 
L 326.842105 465.66 
" style="fill:none;stroke:#b0b0b0;stroke-linecap:square;stroke-opacity:0.4;stroke-width:0.8;"/>
     </g>
     <g id="text_13">
      <!-- 0% -->
      <defs>
       <path d="M 31.78125 66.40625 
Q 24.171875 66.40625 20.328125 58.90625 
Q 16.5 51.421875 16.5 36.375 
Q 16.5 21.390625 20.328125 13.890625 
Q 24.171875 6.390625 31.78125 6.390625 
Q 39.453125 6.390625 43.28125 13.890625 
Q 47.125 21.390625 47.125 36.375 
Q 47.125 51.421875 43.28125 58.90625 
Q 39.453125 66.40625 31.78125 66.40625 
z
M 31.78125 74.21875 
Q 44.046875 74.21875 50.515625 64.515625 
Q 56.984375 54.828125 56.984375 36.375 
Q 56.984375 17.96875 50.515625 8.265625 
Q 44.046875 -1.421875 31.78125 -1.421875 
Q 19.53125 -1.421875 13.0625 8.265625 
Q 6.59375 17.96875 6.59375 36.375 
Q 6.59375 54.828125 13.0625 64.515625 
Q 19.53125 74.21875 31.78125 74.21875 
z
" id="DejaVuSans-48"/>
       <path d="M 72.703125 32.078125 
Q 68.453125 32.078125 66.03125 28.46875 
Q 63.625 24.859375 63.625 18.40625 
Q 63.625 12.0625 66.03125 8.421875 
Q 68.453125 4.78125 72.703125 4.78125 
Q 76.859375 4.78125 79.265625 8.421875 
Q 81.6875 12.0625 81.6875 18.40625 
Q 81.6875 24.8125 79.265625 28.4375 
Q 76.859375 32.078125 72.703125 32.078125 
z
M 72.703125 38.28125 
Q 80.421875 38.28125 84.953125 32.90625 
Q 89.5 27.546875 89.5 18.40625 
Q 89.5 9.28125 84.9375 3.921875 
Q 80.375 -1.421875 72.703125 -1.421875 
Q 64.890625 -1.421875 60.34375 3.921875 
Q 55.8125 9.28125 55.8125 18.40625 
Q 55.8125 27.59375 60.375 32.9375 
Q 64.9375 38.28125 72.703125 38.28125 
z
M 22.3125 68.015625 
Q 18.109375 68.015625 15.6875 64.375 
Q 13.28125 60.75 13.28125 54.390625 
Q 13.28125 47.953125 15.671875 44.328125 
Q 18.0625 40.71875 22.3125 40.71875 
Q 26.5625 40.71875 28.96875 44.328125 
Q 31.390625 47.953125 31.390625 54.390625 
Q 31.390625 60.6875 28.953125 64.34375 
Q 26.515625 68.015625 22.3125 68.015625 
z
M 66.40625 74.21875 
L 74.21875 74.21875 
L 28.609375 -1.421875 
L 20.796875 -1.421875 
z
M 22.3125 74.21875 
Q 30.03125 74.21875 34.609375 68.875 
Q 39.203125 63.53125 39.203125 54.390625 
Q 39.203125 45.171875 34.640625 39.84375 
Q 30.078125 34.515625 22.3125 34.515625 
Q 14.546875 34.515625 10.03125 39.859375 
Q 5.515625 45.21875 5.515625 54.390625 
Q 5.515625 63.484375 10.046875 68.84375 
Q 14.59375 74.21875 22.3125 74.21875 
z
" id="DejaVuSans-37"/>
      </defs>
      <g transform="translate(326.842105 463.164375)scale(0.12 -0.12)">
       <use xlink:href="#DejaVuSans-48"/>
       <use x="63.623047" xlink:href="#DejaVuSans-37"/>
      </g>
     </g>
    </g>
    <g id="ytick_2">
     <g id="line2d_14">
      <path clip-path="url(#p0a31272dac)" d="M 326.842105 380.880671 
L 320.928198 381.087189 
L 315.043103 381.705738 
L 309.215492 382.733303 
L 303.473755 384.164878 
L 297.845867 385.99349 
L 292.359246 388.210229 
L 287.040621 390.804296 
L 281.915906 393.763051 
L 277.010066 397.072082 
L 272.347003 400.715266 
L 267.949435 404.674854 
L 263.838786 408.931556 
L 260.035082 413.464633 
L 256.556856 418.252001 
L 253.421053 423.270335 
L 250.642949 428.495188 
L 248.23608 433.901104 
L 246.212172 439.461747 
L 244.581085 445.150024 
L 243.350765 450.938224 
L 242.527206 456.798147 
L 242.114422 462.701244 
L 242.114422 468.618756 
L 242.527206 474.521853 
L 243.350765 480.381776 
L 244.581085 486.169976 
L 246.212172 491.858253 
L 248.23608 497.418896 
L 250.642949 502.824812 
L 253.421053 508.049665 
L 256.556856 513.067999 
L 260.035082 517.855367 
L 263.838786 522.388444 
L 267.949435 526.645146 
L 272.347003 530.604734 
L 277.010066 534.247918 
L 281.915906 537.556949 
L 287.040621 540.515704 
L 292.359246 543.109771 
L 297.845867 545.32651 
L 303.473755 547.155122 
L 309.215492 548.586697 
L 315.043103 549.614262 
L 320.928198 550.232811 
L 326.842105 550.439329 
L 332.756012 550.232811 
L 338.641107 549.614262 
L 344.468719 548.586697 
L 350.210455 547.155122 
L 355.838344 545.32651 
L 361.324965 543.109771 
L 366.643589 540.515704 
L 371.768305 537.556949 
L 376.674145 534.247918 
L 381.337208 530.604734 
L 385.734776 526.645146 
L 389.845425 522.388444 
L 393.649128 517.855367 
L 397.127354 513.067999 
L 400.263158 508.049665 
L 403.041261 502.824812 
L 405.44813 497.418896 
L 407.472039 491.858253 
L 409.103126 486.169976 
L 410.333446 480.381776 
L 411.157004 474.521853 
L 411.569789 468.618756 
L 411.569789 462.701244 
L 411.157004 456.798147 
L 410.333446 450.938224 
L 409.103126 445.150024 
L 407.472039 439.461747 
L 405.44813 433.901104 
L 403.041261 428.495188 
L 400.263158 423.270335 
L 397.127354 418.252001 
L 393.649128 413.464633 
L 389.845425 408.931556 
L 385.734776 404.674854 
L 381.337208 400.715266 
L 376.674145 397.072082 
L 371.768305 393.763051 
L 366.643589 390.804296 
L 361.324965 388.210229 
L 355.838344 385.99349 
L 350.210455 384.164878 
L 344.468719 382.733303 
L 338.641107 381.705738 
L 332.756012 381.087189 
L 326.842105 380.880671 
L 326.842105 380.880671 
" style="fill:none;stroke:#b0b0b0;stroke-linecap:square;stroke-opacity:0.4;stroke-width:0.8;"/>
     </g>
     <g id="text_14">
      <!-- 33% -->
      <defs>
       <path d="M 40.578125 39.3125 
Q 47.65625 37.796875 51.625 33 
Q 55.609375 28.21875 55.609375 21.1875 
Q 55.609375 10.40625 48.1875 4.484375 
Q 40.765625 -1.421875 27.09375 -1.421875 
Q 22.515625 -1.421875 17.65625 -0.515625 
Q 12.796875 0.390625 7.625 2.203125 
L 7.625 11.71875 
Q 11.71875 9.328125 16.59375 8.109375 
Q 21.484375 6.890625 26.8125 6.890625 
Q 36.078125 6.890625 40.9375 10.546875 
Q 45.796875 14.203125 45.796875 21.1875 
Q 45.796875 27.640625 41.28125 31.265625 
Q 36.765625 34.90625 28.71875 34.90625 
L 20.21875 34.90625 
L 20.21875 43.015625 
L 29.109375 43.015625 
Q 36.375 43.015625 40.234375 45.921875 
Q 44.09375 48.828125 44.09375 54.296875 
Q 44.09375 59.90625 40.109375 62.90625 
Q 36.140625 65.921875 28.71875 65.921875 
Q 24.65625 65.921875 20.015625 65.03125 
Q 15.375 64.15625 9.8125 62.3125 
L 9.8125 71.09375 
Q 15.4375 72.65625 20.34375 73.4375 
Q 25.25 74.21875 29.59375 74.21875 
Q 40.828125 74.21875 47.359375 69.109375 
Q 53.90625 64.015625 53.90625 55.328125 
Q 53.90625 49.265625 50.4375 45.09375 
Q 46.96875 40.921875 40.578125 39.3125 
z
" id="DejaVuSans-51"/>
      </defs>
      <g transform="translate(294.398461 384.838488)scale(0.12 -0.12)">
       <use xlink:href="#DejaVuSans-51"/>
       <use x="63.623047" xlink:href="#DejaVuSans-51"/>
       <use x="127.246094" xlink:href="#DejaVuSans-37"/>
      </g>
     </g>
    </g>
    <g id="ytick_3">
     <g id="line2d_15">
      <path clip-path="url(#p0a31272dac)" d="M 326.842105 345.763923 
L 322.657793 345.836961 
L 318.478578 346.055984 
L 314.309553 346.420726 
L 310.155796 346.930743 
L 306.02237 347.585414 
L 301.914309 348.38394 
L 297.836619 349.325349 
L 293.794268 350.408494 
L 289.79218 351.632055 
L 285.835232 352.994541 
L 281.928244 354.494293 
L 278.075977 356.129484 
L 274.283125 357.89812 
L 270.554307 359.798048 
L 266.894067 361.826952 
L 263.306864 363.98236 
L 259.79707 366.261647 
L 256.368959 368.662036 
L 253.02671 371.180602 
L 249.774393 373.814277 
L 246.615971 376.559851 
L 243.555292 379.41398 
L 240.596085 382.373187 
L 237.741956 385.433865 
L 234.996382 388.592287 
L 232.362707 391.844604 
L 229.844142 395.186854 
L 227.443753 398.614965 
L 225.164466 402.124759 
L 223.009057 405.711962 
L 220.980153 409.372201 
L 219.080225 413.101019 
L 217.311589 416.893872 
L 215.676399 420.746139 
L 214.176647 424.653127 
L 212.81416 428.610075 
L 211.590599 432.612162 
L 210.507454 436.654514 
L 209.566045 440.732204 
L 208.767519 444.840265 
L 208.112849 448.973691 
L 207.602832 453.127447 
L 207.238089 457.296472 
L 207.019066 461.475687 
L 206.946028 465.66 
L 207.019066 469.844313 
L 207.238089 474.023528 
L 207.602832 478.192553 
L 208.112849 482.346309 
L 208.767519 486.479735 
L 209.566045 490.587796 
L 210.507454 494.665486 
L 211.590599 498.707838 
L 212.81416 502.709925 
L 214.176647 506.666873 
L 215.676399 510.573861 
L 217.311589 514.426128 
L 219.080225 518.218981 
L 220.980153 521.947799 
L 223.009057 525.608038 
L 225.164466 529.195241 
L 227.443753 532.705035 
L 229.844142 536.133146 
L 232.362707 539.475396 
L 234.996382 542.727713 
L 237.741956 545.886135 
L 240.596085 548.946813 
L 243.555292 551.90602 
L 246.615971 554.760149 
L 249.774393 557.505723 
L 253.02671 560.139398 
L 256.368959 562.657964 
L 259.79707 565.058353 
L 263.306864 567.33764 
L 266.894067 569.493048 
L 270.554307 571.521952 
L 274.283125 573.42188 
L 278.075977 575.190516 
L 281.928244 576.825707 
L 285.835232 578.325459 
L 289.79218 579.687945 
L 293.794268 580.911506 
L 297.836619 581.994651 
L 301.914309 582.93606 
L 306.02237 583.734586 
L 310.155796 584.389257 
L 314.309553 584.899274 
L 318.478578 585.264016 
L 322.657793 585.483039 
L 326.842105 585.556077 
L 331.026418 585.483039 
L 335.205633 585.264016 
L 339.374658 584.899274 
L 343.528414 584.389257 
L 347.661841 583.734586 
L 351.769901 582.93606 
L 355.847591 581.994651 
L 359.889943 580.911506 
L 363.892031 579.687945 
L 367.848979 578.325459 
L 371.755966 576.825707 
L 375.608233 575.190516 
L 379.401086 573.42188 
L 383.129904 571.521952 
L 386.790144 569.493048 
L 390.377346 567.33764 
L 393.887141 565.058353 
L 397.315251 562.657964 
L 400.657501 560.139398 
L 403.909818 557.505723 
L 407.06824 554.760149 
L 410.128919 551.90602 
L 413.088125 548.946813 
L 415.942254 545.886135 
L 418.687829 542.727713 
L 421.321503 539.475396 
L 423.840069 536.133146 
L 426.240458 532.705035 
L 428.519745 529.195241 
L 430.675154 525.608038 
L 432.704058 521.947799 
L 434.603985 518.218981 
L 436.372622 514.426128 
L 438.007812 510.573861 
L 439.507564 506.666873 
L 440.87005 502.709925 
L 442.093611 498.707838 
L 443.176756 494.665486 
L 444.118165 490.587796 
L 444.916691 486.479735 
L 445.571362 482.346309 
L 446.081379 478.192553 
L 446.446121 474.023528 
L 446.665145 469.844313 
L 446.738182 465.66 
L 446.665145 461.475687 
L 446.446121 457.296472 
L 446.081379 453.127447 
L 445.571362 448.973691 
L 444.916691 444.840265 
L 444.118165 440.732204 
L 443.176756 436.654514 
L 442.093611 432.612162 
L 440.87005 428.610075 
L 439.507564 424.653127 
L 438.007812 420.746139 
L 436.372622 416.893872 
L 434.603985 413.101019 
L 432.704058 409.372201 
L 430.675154 405.711962 
L 428.519745 402.124759 
L 426.240458 398.614965 
L 423.840069 395.186854 
L 421.321503 391.844604 
L 418.687829 388.592287 
L 415.942254 385.433865 
L 413.088125 382.373187 
L 410.128919 379.41398 
L 407.06824 376.559851 
L 403.909818 373.814277 
L 400.657501 371.180602 
L 397.315251 368.662036 
L 393.887141 366.261647 
L 390.377346 363.98236 
L 386.790144 361.826952 
L 383.129904 359.798048 
L 379.401086 357.89812 
L 375.608233 356.129484 
L 371.755966 354.494293 
L 367.848979 352.994541 
L 363.892031 351.632055 
L 359.889943 350.408494 
L 355.847591 349.325349 
L 351.769901 348.38394 
L 347.661841 347.585414 
L 343.528414 346.930743 
L 339.374658 346.420726 
L 335.205633 346.055984 
L 331.026418 345.836961 
L 326.842105 345.763923 
L 326.842105 345.763923 
" style="fill:none;stroke:#b0b0b0;stroke-linecap:square;stroke-opacity:0.4;stroke-width:0.8;"/>
     </g>
     <g id="text_15">
      <!-- 66% -->
      <defs>
       <path d="M 33.015625 40.375 
Q 26.375 40.375 22.484375 35.828125 
Q 18.609375 31.296875 18.609375 23.390625 
Q 18.609375 15.53125 22.484375 10.953125 
Q 26.375 6.390625 33.015625 6.390625 
Q 39.65625 6.390625 43.53125 10.953125 
Q 47.40625 15.53125 47.40625 23.390625 
Q 47.40625 31.296875 43.53125 35.828125 
Q 39.65625 40.375 33.015625 40.375 
z
M 52.59375 71.296875 
L 52.59375 62.3125 
Q 48.875 64.0625 45.09375 64.984375 
Q 41.3125 65.921875 37.59375 65.921875 
Q 27.828125 65.921875 22.671875 59.328125 
Q 17.53125 52.734375 16.796875 39.40625 
Q 19.671875 43.65625 24.015625 45.921875 
Q 28.375 48.1875 33.59375 48.1875 
Q 44.578125 48.1875 50.953125 41.515625 
Q 57.328125 34.859375 57.328125 23.390625 
Q 57.328125 12.15625 50.6875 5.359375 
Q 44.046875 -1.421875 33.015625 -1.421875 
Q 20.359375 -1.421875 13.671875 8.265625 
Q 6.984375 17.96875 6.984375 36.375 
Q 6.984375 53.65625 15.1875 63.9375 
Q 23.390625 74.21875 37.203125 74.21875 
Q 40.921875 74.21875 44.703125 73.484375 
Q 48.484375 72.75 52.59375 71.296875 
z
" id="DejaVuSans-54"/>
      </defs>
      <g transform="translate(280.959863 352.394844)scale(0.12 -0.12)">
       <use xlink:href="#DejaVuSans-54"/>
       <use x="63.623047" xlink:href="#DejaVuSans-54"/>
       <use x="127.246094" xlink:href="#DejaVuSans-37"/>
      </g>
     </g>
    </g>
    <g id="ytick_4">
     <g id="line2d_16">
      <path clip-path="url(#p0a31272dac)" d="M 326.842105 318.817895 
L 321.71739 318.907347 
L 316.598918 319.175595 
L 311.492926 319.622311 
L 306.405634 320.246952 
L 301.343241 321.048756 
L 296.311915 322.026747 
L 291.317785 323.179733 
L 286.366936 324.506309 
L 281.465399 326.004859 
L 276.619147 327.673557 
L 271.834084 329.510371 
L 267.11604 331.513062 
L 262.470763 333.67919 
L 257.903913 336.006117 
L 253.421053 338.491006 
L 249.027645 341.130832 
L 244.729042 343.922378 
L 240.530481 346.862241 
L 236.437078 349.946842 
L 232.453819 353.172421 
L 228.585558 356.535049 
L 224.837008 360.030629 
L 221.212735 363.654902 
L 217.717155 367.403453 
L 214.354527 371.271714 
L 211.128947 375.254973 
L 208.044347 379.348376 
L 205.104483 383.546937 
L 202.312937 387.84554 
L 199.673112 392.238947 
L 197.188222 396.721807 
L 194.861295 401.288658 
L 192.695167 405.933935 
L 190.692476 410.651979 
L 188.855663 415.437042 
L 187.186964 420.283294 
L 185.688414 425.18483 
L 184.361838 430.13568 
L 183.208852 435.12981 
L 182.230862 440.161136 
L 181.429057 445.223529 
L 180.804416 450.31082 
L 180.3577 455.416813 
L 180.089452 460.535284 
L 180 465.66 
L 180.089452 470.784716 
L 180.3577 475.903187 
L 180.804416 481.00918 
L 181.429057 486.096471 
L 182.230862 491.158864 
L 183.208852 496.19019 
L 184.361838 501.18432 
L 185.688414 506.13517 
L 187.186964 511.036706 
L 188.855663 515.882958 
L 190.692476 520.668021 
L 192.695167 525.386065 
L 194.861295 530.031342 
L 197.188222 534.598193 
L 199.673112 539.081053 
L 202.312937 543.47446 
L 205.104483 547.773063 
L 208.044347 551.971624 
L 211.128947 556.065027 
L 214.354527 560.048286 
L 217.717155 563.916547 
L 221.212735 567.665098 
L 224.837008 571.289371 
L 228.585558 574.784951 
L 232.453819 578.147579 
L 236.437078 581.373158 
L 240.530481 584.457759 
L 244.729042 587.397622 
L 249.027645 590.189168 
L 253.421053 592.828994 
L 257.903913 595.313883 
L 262.470763 597.64081 
L 267.11604 599.806938 
L 271.834084 601.809629 
L 276.619147 603.646443 
L 281.465399 605.315141 
L 286.366936 606.813691 
L 291.317785 608.140267 
L 296.311915 609.293253 
L 301.343241 610.271244 
L 306.405634 611.073048 
L 311.492926 611.697689 
L 316.598918 612.144405 
L 321.71739 612.412653 
L 326.842105 612.502105 
L 331.966821 612.412653 
L 337.085293 612.144405 
L 342.191285 611.697689 
L 347.278576 611.073048 
L 352.340969 610.271244 
L 357.372296 609.293253 
L 362.366426 608.140267 
L 367.317275 606.813691 
L 372.218811 605.315141 
L 377.065063 603.646443 
L 381.850126 601.809629 
L 386.56817 599.806938 
L 391.213447 597.64081 
L 395.780298 595.313883 
L 400.263158 592.828994 
L 404.656566 590.189168 
L 408.955168 587.397622 
L 413.153729 584.457759 
L 417.247132 581.373158 
L 421.230391 578.147579 
L 425.098652 574.784951 
L 428.847203 571.289371 
L 432.471476 567.665098 
L 435.967056 563.916547 
L 439.329684 560.048286 
L 442.555263 556.065027 
L 445.639864 551.971624 
L 448.579728 547.773063 
L 451.371273 543.47446 
L 454.011099 539.081053 
L 456.495989 534.598193 
L 458.822915 530.031342 
L 460.989044 525.386065 
L 462.991734 520.668021 
L 464.828548 515.882958 
L 466.497246 511.036706 
L 467.995796 506.13517 
L 469.322372 501.18432 
L 470.475358 496.19019 
L 471.453349 491.158864 
L 472.255153 486.096471 
L 472.879794 481.00918 
L 473.326511 475.903187 
L 473.594758 470.784716 
L 473.684211 465.66 
L 473.594758 460.535284 
L 473.326511 455.416813 
L 472.879794 450.31082 
L 472.255153 445.223529 
L 471.453349 440.161136 
L 470.475358 435.12981 
L 469.322372 430.13568 
L 467.995796 425.18483 
L 466.497246 420.283294 
L 464.828548 415.437042 
L 462.991734 410.651979 
L 460.989044 405.933935 
L 458.822915 401.288658 
L 456.495989 396.721807 
L 454.011099 392.238947 
L 451.371273 387.84554 
L 448.579728 383.546937 
L 445.639864 379.348376 
L 442.555263 375.254973 
L 439.329684 371.271714 
L 435.967056 367.403453 
L 432.471476 363.654902 
L 428.847203 360.030629 
L 425.098652 356.535049 
L 421.230391 353.172421 
L 417.247132 349.946842 
L 413.153729 346.862241 
L 408.955168 343.922378 
L 404.656566 341.130832 
L 400.263158 338.491006 
L 395.780298 336.006117 
L 391.213447 333.67919 
L 386.56817 331.513062 
L 381.850126 329.510371 
L 377.065063 327.673557 
L 372.218811 326.004859 
L 367.317275 324.506309 
L 362.366426 323.179733 
L 357.372296 322.026747 
L 352.340969 321.048756 
L 347.278576 320.246952 
L 342.191285 319.622311 
L 337.085293 319.175595 
L 331.966821 318.907347 
L 326.842105 318.817895 
L 326.842105 318.817895 
" style="fill:none;stroke:#b0b0b0;stroke-linecap:square;stroke-opacity:0.4;stroke-width:0.8;"/>
     </g>
     <g id="text_16">
      <!-- 100% -->
      <defs>
       <path d="M 12.40625 8.296875 
L 28.515625 8.296875 
L 28.515625 63.921875 
L 10.984375 60.40625 
L 10.984375 69.390625 
L 28.421875 72.90625 
L 38.28125 72.90625 
L 38.28125 8.296875 
L 54.390625 8.296875 
L 54.390625 0 
L 12.40625 0 
z
" id="DejaVuSans-49"/>
      </defs>
      <g transform="translate(270.648064 327.499959)scale(0.12 -0.12)">
       <use xlink:href="#DejaVuSans-49"/>
       <use x="63.623047" xlink:href="#DejaVuSans-48"/>
       <use x="127.246094" xlink:href="#DejaVuSans-48"/>
       <use x="190.869141" xlink:href="#DejaVuSans-37"/>
      </g>
     </g>
    </g>
   </g>
   <g id="line2d_17">
    <path clip-path="url(#p0a31272dac)" d="M 326.842105 383.944325 
L 311.806828 439.618136 
L 305.173965 453.149893 
L 274.758378 465.66 
L 290.728538 486.510178 
L 285.984268 536.42785 
L 326.842105 507.360356 
L 377.055983 552.632987 
L 425.874963 522.836647 
L 433.647129 465.66 
L 403.620603 421.331914 
L 344.035602 435.879989 
L 326.842105 383.944325 
" style="fill:none;stroke:#9ad8ca;stroke-linecap:square;stroke-width:1.5;"/>
   </g>
   <g id="patch_4">
    <path d="M 326.842105 318.817895 
C 307.558977 318.817895 288.463352 322.616251 270.648064 329.995584 
C 252.832777 337.374918 236.644288 348.191721 223.009057 361.826952 
C 209.373826 375.462183 198.557024 391.650671 191.17769 409.465959 
C 183.798356 427.281247 180 446.376871 180 465.66 
C 180 484.943129 183.798356 504.038753 191.17769 521.854041 
C 198.557024 539.669329 209.373826 555.857817 223.009057 569.493048 
C 236.644288 583.128279 252.832777 593.945082 270.648064 601.324416 
C 288.463352 608.703749 307.558977 612.502105 326.842105 612.502105 
C 346.125234 612.502105 365.220858 608.703749 383.036146 601.324416 
C 400.851434 593.945082 417.039923 583.128279 430.675154 569.493048 
C 444.310385 555.857817 455.127187 539.669329 462.506521 521.854041 
C 469.885855 504.038753 473.684211 484.943129 473.684211 465.66 
C 473.684211 446.376871 469.885855 427.281247 462.506521 409.465959 
C 455.127187 391.650671 444.310385 375.462183 430.675154 361.826952 
C 417.039923 348.191721 400.851434 337.374918 383.036146 329.995584 
C 365.220858 322.616251 346.125234 318.817895 326.842105 318.817895 
" style="fill:none;stroke:#000000;stroke-linecap:square;stroke-linejoin:miter;stroke-width:0.8;"/>
   </g>
  </g>
  <g id="axes_2">
   <g id="patch_5">
    <path d="M 884.842105 465.66 
C 884.842105 446.376871 881.043749 427.281247 873.664416 409.465959 
C 866.285082 391.650671 855.468279 375.462183 841.833048 361.826952 
C 828.197817 348.191721 812.009329 337.374918 794.194041 329.995584 
C 776.378753 322.616251 757.283129 318.817895 738 318.817895 
C 718.716871 318.817895 699.621247 322.616251 681.805959 329.995584 
C 663.990671 337.374918 647.802183 348.191721 634.166952 361.826952 
C 620.531721 375.462183 609.714918 391.650671 602.335584 409.465959 
C 594.956251 427.281247 591.157895 446.376871 591.157895 465.66 
C 591.157895 484.943129 594.956251 504.038753 602.335584 521.854041 
C 609.714918 539.669329 620.531721 555.857817 634.166952 569.493048 
C 647.802183 583.128279 663.990671 593.945082 681.805959 601.324416 
C 699.621247 608.703749 718.716871 612.502105 738 612.502105 
C 757.283129 612.502105 776.378753 608.703749 794.194041 601.324416 
C 812.009329 593.945082 828.197817 583.128279 841.833048 569.493048 
C 855.468279 555.857817 866.285082 539.669329 873.664416 521.854041 
C 881.043749 504.038753 884.842105 484.943129 884.842105 465.66 
M 738 465.66 
C 738 465.66 738 465.66 738 465.66 
C 738 465.66 738 465.66 738 465.66 
C 738 465.66 738 465.66 738 465.66 
C 738 465.66 738 465.66 738 465.66 
C 738 465.66 738 465.66 738 465.66 
C 738 465.66 738 465.66 738 465.66 
C 738 465.66 738 465.66 738 465.66 
C 738 465.66 738 465.66 738 465.66 
C 738 465.66 738 465.66 738 465.66 
C 738 465.66 738 465.66 738 465.66 
C 738 465.66 738 465.66 738 465.66 
C 738 465.66 738 465.66 738 465.66 
C 738 465.66 738 465.66 738 465.66 
C 738 465.66 738 465.66 738 465.66 
C 738 465.66 738 465.66 738 465.66 
C 738 465.66 738 465.66 738 465.66 
M 884.842105 465.66 
z
" style="fill:#ffffff;"/>
   </g>
   <g id="patch_6">
    <path clip-path="url(#pf966ceaa2e)" d="M 738 395.303594 
L 708.156587 413.969693 
L 713.125254 451.298559 
L 664.515131 465.66 
L 689.976453 493.386408 
L 693.841089 542.145477 
L 738 539.906391 
L 785.136883 547.303476 
L 829.702865 518.604674 
L 827.58258 465.66 
L 790.767304 435.194783 
L 758.76661 429.691177 
z
" style="fill:#5cbd98;opacity:0.99;"/>
   </g>
   <g id="matplotlib.axis_3">
    <g id="xtick_13">
     <g id="line2d_18">
      <path clip-path="url(#pf966ceaa2e)" d="M 738 465.66 
L 738 318.817895 
" style="fill:none;stroke:#b0b0b0;stroke-linecap:square;stroke-opacity:0.4;stroke-width:0.8;"/>
     </g>
     <g id="text_17">
      <!-- AJCC 4 -->
      <g transform="translate(710.567578 308.956957)scale(0.15 -0.15)">
       <use xlink:href="#DejaVuSans-Bold-65"/>
       <use x="77.392578" xlink:href="#DejaVuSans-Bold-74"/>
       <use x="114.599609" xlink:href="#DejaVuSans-Bold-67"/>
       <use x="187.988281" xlink:href="#DejaVuSans-Bold-67"/>
       <use x="261.376953" xlink:href="#DejaVuSans-Bold-32"/>
       <use x="296.191406" xlink:href="#DejaVuSans-Bold-52"/>
      </g>
     </g>
    </g>
    <g id="xtick_14">
     <g id="line2d_19">
      <path clip-path="url(#pf966ceaa2e)" d="M 738 465.66 
L 664.578947 338.491006 
" style="fill:none;stroke:#b0b0b0;stroke-linecap:square;stroke-opacity:0.4;stroke-width:0.8;"/>
     </g>
     <g id="text_18">
      <!-- T4 -->
      <g transform="translate(647.244182 330.505713)scale(0.15 -0.15)">
       <use xlink:href="#DejaVuSans-Bold-84"/>
       <use x="68.212891" xlink:href="#DejaVuSans-Bold-52"/>
      </g>
     </g>
    </g>
    <g id="xtick_15">
     <g id="line2d_20">
      <path clip-path="url(#pf966ceaa2e)" d="M 738 465.66 
L 610.831006 392.238947 
" style="fill:none;stroke:#b0b0b0;stroke-linecap:square;stroke-opacity:0.4;stroke-width:0.8;"/>
     </g>
     <g id="text_19">
      <!-- N3 -->
      <g transform="translate(587.211729 389.37801)scale(0.15 -0.15)">
       <use xlink:href="#DejaVuSans-Bold-78"/>
       <use x="83.691406" xlink:href="#DejaVuSans-Bold-51"/>
      </g>
     </g>
    </g>
    <g id="xtick_16">
     <g id="line2d_21">
      <path clip-path="url(#pf966ceaa2e)" d="M 738 465.66 
L 591.157895 465.66 
" style="fill:none;stroke:#b0b0b0;stroke-linecap:square;stroke-opacity:0.4;stroke-width:0.8;"/>
     </g>
     <g id="text_20">
      <!-- T3 -->
      <g transform="translate(566.823129 469.799062)scale(0.15 -0.15)">
       <use xlink:href="#DejaVuSans-Bold-84"/>
       <use x="68.212891" xlink:href="#DejaVuSans-Bold-51"/>
      </g>
     </g>
    </g>
    <g id="xtick_17">
     <g id="line2d_22">
      <path clip-path="url(#pf966ceaa2e)" d="M 738 465.66 
L 610.831006 539.081053 
" style="fill:none;stroke:#b0b0b0;stroke-linecap:square;stroke-opacity:0.4;stroke-width:0.8;"/>
     </g>
     <g id="text_21">
      <!-- AJCC 3 -->
      <g transform="translate(571.274229 550.220115)scale(0.15 -0.15)">
       <use xlink:href="#DejaVuSans-Bold-65"/>
       <use x="77.392578" xlink:href="#DejaVuSans-Bold-74"/>
       <use x="114.599609" xlink:href="#DejaVuSans-Bold-67"/>
       <use x="187.988281" xlink:href="#DejaVuSans-Bold-67"/>
       <use x="261.376953" xlink:href="#DejaVuSans-Bold-32"/>
       <use x="296.191406" xlink:href="#DejaVuSans-Bold-51"/>
      </g>
     </g>
    </g>
    <g id="xtick_18">
     <g id="line2d_23">
      <path clip-path="url(#pf966ceaa2e)" d="M 738 465.66 
L 664.578947 592.828994 
" style="fill:none;stroke:#b0b0b0;stroke-linecap:square;stroke-opacity:0.4;stroke-width:0.8;"/>
     </g>
     <g id="text_22">
      <!-- N2 -->
      <g transform="translate(646.084025 609.092412)scale(0.15 -0.15)">
       <use xlink:href="#DejaVuSans-Bold-78"/>
       <use x="83.691406" xlink:href="#DejaVuSans-Bold-50"/>
      </g>
     </g>
    </g>
    <g id="xtick_19">
     <g id="line2d_24">
      <path clip-path="url(#pf966ceaa2e)" d="M 738 465.66 
L 738 612.502105 
" style="fill:none;stroke:#b0b0b0;stroke-linecap:square;stroke-opacity:0.4;stroke-width:0.8;"/>
     </g>
     <g id="text_23">
      <!-- AJCC 2 -->
      <g transform="translate(710.567578 630.641168)scale(0.15 -0.15)">
       <use xlink:href="#DejaVuSans-Bold-65"/>
       <use x="77.392578" xlink:href="#DejaVuSans-Bold-74"/>
       <use x="114.599609" xlink:href="#DejaVuSans-Bold-67"/>
       <use x="187.988281" xlink:href="#DejaVuSans-Bold-67"/>
       <use x="261.376953" xlink:href="#DejaVuSans-Bold-32"/>
       <use x="296.191406" xlink:href="#DejaVuSans-Bold-50"/>
      </g>
     </g>
    </g>
    <g id="xtick_20">
     <g id="line2d_25">
      <path clip-path="url(#pf966ceaa2e)" d="M 738 465.66 
L 811.421053 592.828994 
" style="fill:none;stroke:#b0b0b0;stroke-linecap:square;stroke-opacity:0.4;stroke-width:0.8;"/>
     </g>
     <g id="text_24">
      <!-- T2 -->
      <g transform="translate(808.086287 609.092412)scale(0.15 -0.15)">
       <use xlink:href="#DejaVuSans-Bold-84"/>
       <use x="68.212891" xlink:href="#DejaVuSans-Bold-50"/>
      </g>
     </g>
    </g>
    <g id="xtick_21">
     <g id="line2d_26">
      <path clip-path="url(#pf966ceaa2e)" d="M 738 465.66 
L 865.168994 539.081053 
" style="fill:none;stroke:#b0b0b0;stroke-linecap:square;stroke-opacity:0.4;stroke-width:0.8;"/>
     </g>
     <g id="text_25">
      <!-- N1 -->
      <g transform="translate(865.798427 550.220115)scale(0.15 -0.15)">
       <use xlink:href="#DejaVuSans-Bold-78"/>
       <use x="83.691406" xlink:href="#DejaVuSans-Bold-49"/>
      </g>
     </g>
    </g>
    <g id="xtick_22">
     <g id="line2d_27">
      <path clip-path="url(#pf966ceaa2e)" d="M 738 465.66 
L 884.842105 465.66 
" style="fill:none;stroke:#b0b0b0;stroke-linecap:square;stroke-opacity:0.4;stroke-width:0.8;"/>
     </g>
     <g id="text_26">
      <!-- AJCC 1 -->
      <g transform="translate(871.409683 469.799063)scale(0.15 -0.15)">
       <use xlink:href="#DejaVuSans-Bold-65"/>
       <use x="77.392578" xlink:href="#DejaVuSans-Bold-74"/>
       <use x="114.599609" xlink:href="#DejaVuSans-Bold-67"/>
       <use x="187.988281" xlink:href="#DejaVuSans-Bold-67"/>
       <use x="261.376953" xlink:href="#DejaVuSans-Bold-32"/>
       <use x="296.191406" xlink:href="#DejaVuSans-Bold-49"/>
      </g>
     </g>
    </g>
    <g id="xtick_23">
     <g id="line2d_28">
      <path clip-path="url(#pf966ceaa2e)" d="M 738 465.66 
L 865.168994 392.238947 
" style="fill:none;stroke:#b0b0b0;stroke-linecap:square;stroke-opacity:0.4;stroke-width:0.8;"/>
     </g>
     <g id="text_27">
      <!-- T1 -->
      <g transform="translate(866.958584 389.37801)scale(0.15 -0.15)">
       <use xlink:href="#DejaVuSans-Bold-84"/>
       <use x="68.212891" xlink:href="#DejaVuSans-Bold-49"/>
      </g>
     </g>
    </g>
    <g id="xtick_24">
     <g id="line2d_29">
      <path clip-path="url(#pf966ceaa2e)" d="M 738 465.66 
L 811.421053 338.491006 
" style="fill:none;stroke:#b0b0b0;stroke-linecap:square;stroke-opacity:0.4;stroke-width:0.8;"/>
     </g>
     <g id="text_28">
      <!-- N0 -->
      <g transform="translate(806.926131 330.505713)scale(0.15 -0.15)">
       <use xlink:href="#DejaVuSans-Bold-78"/>
       <use x="83.691406" xlink:href="#DejaVuSans-Bold-48"/>
      </g>
     </g>
    </g>
   </g>
   <g id="matplotlib.axis_4">
    <g id="ytick_5">
     <g id="line2d_30">
      <path clip-path="url(#pf966ceaa2e)" d="M 738 465.66 
L 738 465.66 
" style="fill:none;stroke:#b0b0b0;stroke-linecap:square;stroke-opacity:0.4;stroke-width:0.8;"/>
     </g>
     <g id="text_29">
      <!-- 0% -->
      <g transform="translate(738 463.164375)scale(0.12 -0.12)">
       <use xlink:href="#DejaVuSans-48"/>
       <use x="63.623047" xlink:href="#DejaVuSans-37"/>
      </g>
     </g>
    </g>
    <g id="ytick_6">
     <g id="line2d_31">
      <path clip-path="url(#pf966ceaa2e)" d="M 738 380.880671 
L 732.086093 381.087189 
L 726.200998 381.705738 
L 720.373386 382.733303 
L 714.63165 384.164878 
L 709.003762 385.99349 
L 703.51714 388.210229 
L 698.198516 390.804296 
L 693.0738 393.763051 
L 688.167961 397.072082 
L 683.504898 400.715266 
L 679.107329 404.674854 
L 674.99668 408.931556 
L 671.192977 413.464633 
L 667.714751 418.252001 
L 664.578947 423.270335 
L 661.800844 428.495188 
L 659.393975 433.901104 
L 657.370067 439.461747 
L 655.738979 445.150024 
L 654.50866 450.938224 
L 653.685101 456.798147 
L 653.272316 462.701244 
L 653.272316 468.618756 
L 653.685101 474.521853 
L 654.50866 480.381776 
L 655.738979 486.169976 
L 657.370067 491.858253 
L 659.393975 497.418896 
L 661.800844 502.824812 
L 664.578947 508.049665 
L 667.714751 513.067999 
L 671.192977 517.855367 
L 674.99668 522.388444 
L 679.107329 526.645146 
L 683.504898 530.604734 
L 688.167961 534.247918 
L 693.0738 537.556949 
L 698.198516 540.515704 
L 703.51714 543.109771 
L 709.003762 545.32651 
L 714.63165 547.155122 
L 720.373386 548.586697 
L 726.200998 549.614262 
L 732.086093 550.232811 
L 738 550.439329 
L 743.913907 550.232811 
L 749.799002 549.614262 
L 755.626614 548.586697 
L 761.36835 547.155122 
L 766.996238 545.32651 
L 772.48286 543.109771 
L 777.801484 540.515704 
L 782.9262 537.556949 
L 787.832039 534.247918 
L 792.495102 530.604734 
L 796.892671 526.645146 
L 801.00332 522.388444 
L 804.807023 517.855367 
L 808.285249 513.067999 
L 811.421053 508.049665 
L 814.199156 502.824812 
L 816.606025 497.418896 
L 818.629933 491.858253 
L 820.261021 486.169976 
L 821.49134 480.381776 
L 822.314899 474.521853 
L 822.727684 468.618756 
L 822.727684 462.701244 
L 822.314899 456.798147 
L 821.49134 450.938224 
L 820.261021 445.150024 
L 818.629933 439.461747 
L 816.606025 433.901104 
L 814.199156 428.495188 
L 811.421053 423.270335 
L 808.285249 418.252001 
L 804.807023 413.464633 
L 801.00332 408.931556 
L 796.892671 404.674854 
L 792.495102 400.715266 
L 787.832039 397.072082 
L 782.9262 393.763051 
L 777.801484 390.804296 
L 772.48286 388.210229 
L 766.996238 385.99349 
L 761.36835 384.164878 
L 755.626614 382.733303 
L 749.799002 381.705738 
L 743.913907 381.087189 
L 738 380.880671 
L 738 380.880671 
" style="fill:none;stroke:#b0b0b0;stroke-linecap:square;stroke-opacity:0.4;stroke-width:0.8;"/>
     </g>
     <g id="text_30">
      <!-- 33% -->
      <g transform="translate(705.556355 384.838488)scale(0.12 -0.12)">
       <use xlink:href="#DejaVuSans-51"/>
       <use x="63.623047" xlink:href="#DejaVuSans-51"/>
       <use x="127.246094" xlink:href="#DejaVuSans-37"/>
      </g>
     </g>
    </g>
    <g id="ytick_7">
     <g id="line2d_32">
      <path clip-path="url(#pf966ceaa2e)" d="M 738 345.763923 
L 733.815687 345.836961 
L 729.636472 346.055984 
L 725.467447 346.420726 
L 721.313691 346.930743 
L 717.180265 347.585414 
L 713.072204 348.38394 
L 708.994514 349.325349 
L 704.952162 350.408494 
L 700.950075 351.632055 
L 696.993127 352.994541 
L 693.086139 354.494293 
L 689.233872 356.129484 
L 685.441019 357.89812 
L 681.712201 359.798048 
L 678.051962 361.826952 
L 674.464759 363.98236 
L 670.954965 366.261647 
L 667.526854 368.662036 
L 664.184604 371.180602 
L 660.932287 373.814277 
L 657.773865 376.559851 
L 654.713187 379.41398 
L 651.75398 382.373187 
L 648.899851 385.433865 
L 646.154277 388.592287 
L 643.520602 391.844604 
L 641.002036 395.186854 
L 638.601647 398.614965 
L 636.32236 402.124759 
L 634.166952 405.711962 
L 632.138048 409.372201 
L 630.23812 413.101019 
L 628.469484 416.893872 
L 626.834293 420.746139 
L 625.334541 424.653127 
L 623.972055 428.610075 
L 622.748494 432.612162 
L 621.665349 436.654514 
L 620.72394 440.732204 
L 619.925414 444.840265 
L 619.270743 448.973691 
L 618.760726 453.127447 
L 618.395984 457.296472 
L 618.176961 461.475687 
L 618.103923 465.66 
L 618.176961 469.844313 
L 618.395984 474.023528 
L 618.760726 478.192553 
L 619.270743 482.346309 
L 619.925414 486.479735 
L 620.72394 490.587796 
L 621.665349 494.665486 
L 622.748494 498.707838 
L 623.972055 502.709925 
L 625.334541 506.666873 
L 626.834293 510.573861 
L 628.469484 514.426128 
L 630.23812 518.218981 
L 632.138048 521.947799 
L 634.166952 525.608038 
L 636.32236 529.195241 
L 638.601647 532.705035 
L 641.002036 536.133146 
L 643.520602 539.475396 
L 646.154277 542.727713 
L 648.899851 545.886135 
L 651.75398 548.946813 
L 654.713187 551.90602 
L 657.773865 554.760149 
L 660.932287 557.505723 
L 664.184604 560.139398 
L 667.526854 562.657964 
L 670.954965 565.058353 
L 674.464759 567.33764 
L 678.051962 569.493048 
L 681.712201 571.521952 
L 685.441019 573.42188 
L 689.233872 575.190516 
L 693.086139 576.825707 
L 696.993127 578.325459 
L 700.950075 579.687945 
L 704.952162 580.911506 
L 708.994514 581.994651 
L 713.072204 582.93606 
L 717.180265 583.734586 
L 721.313691 584.389257 
L 725.467447 584.899274 
L 729.636472 585.264016 
L 733.815687 585.483039 
L 738 585.556077 
L 742.184313 585.483039 
L 746.363528 585.264016 
L 750.532553 584.899274 
L 754.686309 584.389257 
L 758.819735 583.734586 
L 762.927796 582.93606 
L 767.005486 581.994651 
L 771.047838 580.911506 
L 775.049925 579.687945 
L 779.006873 578.325459 
L 782.913861 576.825707 
L 786.766128 575.190516 
L 790.558981 573.42188 
L 794.287799 571.521952 
L 797.948038 569.493048 
L 801.535241 567.33764 
L 805.045035 565.058353 
L 808.473146 562.657964 
L 811.815396 560.139398 
L 815.067713 557.505723 
L 818.226135 554.760149 
L 821.286813 551.90602 
L 824.24602 548.946813 
L 827.100149 545.886135 
L 829.845723 542.727713 
L 832.479398 539.475396 
L 834.997964 536.133146 
L 837.398353 532.705035 
L 839.67764 529.195241 
L 841.833048 525.608038 
L 843.861952 521.947799 
L 845.76188 518.218981 
L 847.530516 514.426128 
L 849.165707 510.573861 
L 850.665459 506.666873 
L 852.027945 502.709925 
L 853.251506 498.707838 
L 854.334651 494.665486 
L 855.27606 490.587796 
L 856.074586 486.479735 
L 856.729257 482.346309 
L 857.239274 478.192553 
L 857.604016 474.023528 
L 857.823039 469.844313 
L 857.896077 465.66 
L 857.823039 461.475687 
L 857.604016 457.296472 
L 857.239274 453.127447 
L 856.729257 448.973691 
L 856.074586 444.840265 
L 855.27606 440.732204 
L 854.334651 436.654514 
L 853.251506 432.612162 
L 852.027945 428.610075 
L 850.665459 424.653127 
L 849.165707 420.746139 
L 847.530516 416.893872 
L 845.76188 413.101019 
L 843.861952 409.372201 
L 841.833048 405.711962 
L 839.67764 402.124759 
L 837.398353 398.614965 
L 834.997964 395.186854 
L 832.479398 391.844604 
L 829.845723 388.592287 
L 827.100149 385.433865 
L 824.24602 382.373187 
L 821.286813 379.41398 
L 818.226135 376.559851 
L 815.067713 373.814277 
L 811.815396 371.180602 
L 808.473146 368.662036 
L 805.045035 366.261647 
L 801.535241 363.98236 
L 797.948038 361.826952 
L 794.287799 359.798048 
L 790.558981 357.89812 
L 786.766128 356.129484 
L 782.913861 354.494293 
L 779.006873 352.994541 
L 775.049925 351.632055 
L 771.047838 350.408494 
L 767.005486 349.325349 
L 762.927796 348.38394 
L 758.819735 347.585414 
L 754.686309 346.930743 
L 750.532553 346.420726 
L 746.363528 346.055984 
L 742.184313 345.836961 
L 738 345.763923 
L 738 345.763923 
" style="fill:none;stroke:#b0b0b0;stroke-linecap:square;stroke-opacity:0.4;stroke-width:0.8;"/>
     </g>
     <g id="text_31">
      <!-- 66% -->
      <g transform="translate(692.117758 352.394844)scale(0.12 -0.12)">
       <use xlink:href="#DejaVuSans-54"/>
       <use x="63.623047" xlink:href="#DejaVuSans-54"/>
       <use x="127.246094" xlink:href="#DejaVuSans-37"/>
      </g>
     </g>
    </g>
    <g id="ytick_8">
     <g id="line2d_33">
      <path clip-path="url(#pf966ceaa2e)" d="M 738 318.817895 
L 732.875284 318.907347 
L 727.756813 319.175595 
L 722.65082 319.622311 
L 717.563529 320.246952 
L 712.501136 321.048756 
L 707.46981 322.026747 
L 702.47568 323.179733 
L 697.52483 324.506309 
L 692.623294 326.004859 
L 687.777042 327.673557 
L 682.991979 329.510371 
L 678.273935 331.513062 
L 673.628658 333.67919 
L 669.061807 336.006117 
L 664.578947 338.491006 
L 660.18554 341.130832 
L 655.886937 343.922378 
L 651.688376 346.862241 
L 647.594973 349.946842 
L 643.611714 353.172421 
L 639.743453 356.535049 
L 635.994902 360.030629 
L 632.370629 363.654902 
L 628.875049 367.403453 
L 625.512421 371.271714 
L 622.286842 375.254973 
L 619.202241 379.348376 
L 616.262378 383.546937 
L 613.470832 387.84554 
L 610.831006 392.238947 
L 608.346117 396.721807 
L 606.01919 401.288658 
L 603.853062 405.933935 
L 601.850371 410.651979 
L 600.013557 415.437042 
L 598.344859 420.283294 
L 596.846309 425.18483 
L 595.519733 430.13568 
L 594.366747 435.12981 
L 593.388756 440.161136 
L 592.586952 445.223529 
L 591.962311 450.31082 
L 591.515595 455.416813 
L 591.247347 460.535284 
L 591.157895 465.66 
L 591.247347 470.784716 
L 591.515595 475.903187 
L 591.962311 481.00918 
L 592.586952 486.096471 
L 593.388756 491.158864 
L 594.366747 496.19019 
L 595.519733 501.18432 
L 596.846309 506.13517 
L 598.344859 511.036706 
L 600.013557 515.882958 
L 601.850371 520.668021 
L 603.853062 525.386065 
L 606.01919 530.031342 
L 608.346117 534.598193 
L 610.831006 539.081053 
L 613.470832 543.47446 
L 616.262378 547.773063 
L 619.202241 551.971624 
L 622.286842 556.065027 
L 625.512421 560.048286 
L 628.875049 563.916547 
L 632.370629 567.665098 
L 635.994902 571.289371 
L 639.743453 574.784951 
L 643.611714 578.147579 
L 647.594973 581.373158 
L 651.688376 584.457759 
L 655.886937 587.397622 
L 660.18554 590.189168 
L 664.578947 592.828994 
L 669.061807 595.313883 
L 673.628658 597.64081 
L 678.273935 599.806938 
L 682.991979 601.809629 
L 687.777042 603.646443 
L 692.623294 605.315141 
L 697.52483 606.813691 
L 702.47568 608.140267 
L 707.46981 609.293253 
L 712.501136 610.271244 
L 717.563529 611.073048 
L 722.65082 611.697689 
L 727.756813 612.144405 
L 732.875284 612.412653 
L 738 612.502105 
L 743.124716 612.412653 
L 748.243187 612.144405 
L 753.34918 611.697689 
L 758.436471 611.073048 
L 763.498864 610.271244 
L 768.53019 609.293253 
L 773.52432 608.140267 
L 778.47517 606.813691 
L 783.376706 605.315141 
L 788.222958 603.646443 
L 793.008021 601.809629 
L 797.726065 599.806938 
L 802.371342 597.64081 
L 806.938193 595.313883 
L 811.421053 592.828994 
L 815.81446 590.189168 
L 820.113063 587.397622 
L 824.311624 584.457759 
L 828.405027 581.373158 
L 832.388286 578.147579 
L 836.256547 574.784951 
L 840.005098 571.289371 
L 843.629371 567.665098 
L 847.124951 563.916547 
L 850.487579 560.048286 
L 853.713158 556.065027 
L 856.797759 551.971624 
L 859.737622 547.773063 
L 862.529168 543.47446 
L 865.168994 539.081053 
L 867.653883 534.598193 
L 869.98081 530.031342 
L 872.146938 525.386065 
L 874.149629 520.668021 
L 875.986443 515.882958 
L 877.655141 511.036706 
L 879.153691 506.13517 
L 880.480267 501.18432 
L 881.633253 496.19019 
L 882.611244 491.158864 
L 883.413048 486.096471 
L 884.037689 481.00918 
L 884.484405 475.903187 
L 884.752653 470.784716 
L 884.842105 465.66 
L 884.752653 460.535284 
L 884.484405 455.416813 
L 884.037689 450.31082 
L 883.413048 445.223529 
L 882.611244 440.161136 
L 881.633253 435.12981 
L 880.480267 430.13568 
L 879.153691 425.18483 
L 877.655141 420.283294 
L 875.986443 415.437042 
L 874.149629 410.651979 
L 872.146938 405.933935 
L 869.98081 401.288658 
L 867.653883 396.721807 
L 865.168994 392.238947 
L 862.529168 387.84554 
L 859.737622 383.546937 
L 856.797759 379.348376 
L 853.713158 375.254973 
L 850.487579 371.271714 
L 847.124951 367.403453 
L 843.629371 363.654902 
L 840.005098 360.030629 
L 836.256547 356.535049 
L 832.388286 353.172421 
L 828.405027 349.946842 
L 824.311624 346.862241 
L 820.113063 343.922378 
L 815.81446 341.130832 
L 811.421053 338.491006 
L 806.938193 336.006117 
L 802.371342 333.67919 
L 797.726065 331.513062 
L 793.008021 329.510371 
L 788.222958 327.673557 
L 783.376706 326.004859 
L 778.47517 324.506309 
L 773.52432 323.179733 
L 768.53019 322.026747 
L 763.498864 321.048756 
L 758.436471 320.246952 
L 753.34918 319.622311 
L 748.243187 319.175595 
L 743.124716 318.907347 
L 738 318.817895 
L 738 318.817895 
" style="fill:none;stroke:#b0b0b0;stroke-linecap:square;stroke-opacity:0.4;stroke-width:0.8;"/>
     </g>
     <g id="text_32">
      <!-- 100% -->
      <g transform="translate(681.805959 327.499959)scale(0.12 -0.12)">
       <use xlink:href="#DejaVuSans-49"/>
       <use x="63.623047" xlink:href="#DejaVuSans-48"/>
       <use x="127.246094" xlink:href="#DejaVuSans-48"/>
       <use x="190.869141" xlink:href="#DejaVuSans-37"/>
      </g>
     </g>
    </g>
   </g>
   <g id="line2d_34">
    <path clip-path="url(#pf966ceaa2e)" d="M 738 395.303594 
L 708.156587 413.969693 
L 713.125254 451.298559 
L 664.515131 465.66 
L 689.976453 493.386408 
L 693.841089 542.145477 
L 738 539.906391 
L 785.136883 547.303476 
L 829.702865 518.604674 
L 827.58258 465.66 
L 790.767304 435.194783 
L 758.76661 429.691177 
L 738 395.303594 
" style="fill:none;stroke:#5cbd98;stroke-linecap:square;stroke-width:1.5;"/>
   </g>
   <g id="patch_7">
    <path d="M 738 318.817895 
C 718.716871 318.817895 699.621247 322.616251 681.805959 329.995584 
C 663.990671 337.374918 647.802183 348.191721 634.166952 361.826952 
C 620.531721 375.462183 609.714918 391.650671 602.335584 409.465959 
C 594.956251 427.281247 591.157895 446.376871 591.157895 465.66 
C 591.157895 484.943129 594.956251 504.038753 602.335584 521.854041 
C 609.714918 539.669329 620.531721 555.857817 634.166952 569.493048 
C 647.802183 583.128279 663.990671 593.945082 681.805959 601.324416 
C 699.621247 608.703749 718.716871 612.502105 738 612.502105 
C 757.283129 612.502105 776.378753 608.703749 794.194041 601.324416 
C 812.009329 593.945082 828.197817 583.128279 841.833048 569.493048 
C 855.468279 555.857817 866.285082 539.669329 873.664416 521.854041 
C 881.043749 504.038753 884.842105 484.943129 884.842105 465.66 
C 884.842105 446.376871 881.043749 427.281247 873.664416 409.465959 
C 866.285082 391.650671 855.468279 375.462183 841.833048 361.826952 
C 828.197817 348.191721 812.009329 337.374918 794.194041 329.995584 
C 776.378753 322.616251 757.283129 318.817895 738 318.817895 
" style="fill:none;stroke:#000000;stroke-linecap:square;stroke-linejoin:miter;stroke-width:0.8;"/>
   </g>
  </g>
  <g id="axes_3">
   <g id="patch_8">
    <path d="M 1296 465.66 
C 1296 446.376871 1292.201644 427.281247 1284.82231 409.465959 
C 1277.442976 391.650671 1266.626174 375.462183 1252.990943 361.826952 
C 1239.355712 348.191721 1223.167223 337.374918 1205.351936 329.995584 
C 1187.536648 322.616251 1168.441023 318.817895 1149.157895 318.817895 
C 1129.874766 318.817895 1110.779142 322.616251 1092.963854 329.995584 
C 1075.148566 337.374918 1058.960077 348.191721 1045.324846 361.826952 
C 1031.689615 375.462183 1020.872813 391.650671 1013.493479 409.465959 
C 1006.114145 427.281247 1002.315789 446.376871 1002.315789 465.66 
C 1002.315789 484.943129 1006.114145 504.038753 1013.493479 521.854041 
C 1020.872813 539.669329 1031.689615 555.857817 1045.324846 569.493048 
C 1058.960077 583.128279 1075.148566 593.945082 1092.963854 601.324416 
C 1110.779142 608.703749 1129.874766 612.502105 1149.157895 612.502105 
C 1168.441023 612.502105 1187.536648 608.703749 1205.351936 601.324416 
C 1223.167223 593.945082 1239.355712 583.128279 1252.990943 569.493048 
C 1266.626174 555.857817 1277.442976 539.669329 1284.82231 521.854041 
C 1292.201644 504.038753 1296 484.943129 1296 465.66 
M 1149.157895 465.66 
C 1149.157895 465.66 1149.157895 465.66 1149.157895 465.66 
C 1149.157895 465.66 1149.157895 465.66 1149.157895 465.66 
C 1149.157895 465.66 1149.157895 465.66 1149.157895 465.66 
C 1149.157895 465.66 1149.157895 465.66 1149.157895 465.66 
C 1149.157895 465.66 1149.157895 465.66 1149.157895 465.66 
C 1149.157895 465.66 1149.157895 465.66 1149.157895 465.66 
C 1149.157895 465.66 1149.157895 465.66 1149.157895 465.66 
C 1149.157895 465.66 1149.157895 465.66 1149.157895 465.66 
C 1149.157895 465.66 1149.157895 465.66 1149.157895 465.66 
C 1149.157895 465.66 1149.157895 465.66 1149.157895 465.66 
C 1149.157895 465.66 1149.157895 465.66 1149.157895 465.66 
C 1149.157895 465.66 1149.157895 465.66 1149.157895 465.66 
C 1149.157895 465.66 1149.157895 465.66 1149.157895 465.66 
C 1149.157895 465.66 1149.157895 465.66 1149.157895 465.66 
C 1149.157895 465.66 1149.157895 465.66 1149.157895 465.66 
C 1149.157895 465.66 1149.157895 465.66 1149.157895 465.66 
M 1296 465.66 
z
" style="fill:#ffffff;"/>
   </g>
   <g id="patch_9">
    <path clip-path="url(#p4efdd8383f)" d="M 1149.157895 373.026117 
L 1098.311929 377.592205 
L 1112.823897 444.682556 
L 1078.019922 465.66 
L 1081.183208 504.905203 
L 1086.225564 574.661994 
L 1149.157895 539.826463 
L 1183.145238 524.527805 
L 1197.223256 493.410549 
L 1185.491893 465.66 
L 1183.145238 446.037398 
L 1163.991187 439.967984 
z
" style="fill:#218944;opacity:0.99;"/>
   </g>
   <g id="matplotlib.axis_5">
    <g id="xtick_25">
     <g id="line2d_35">
      <path clip-path="url(#p4efdd8383f)" d="M 1149.157895 465.66 
L 1149.157895 318.817895 
" style="fill:none;stroke:#b0b0b0;stroke-linecap:square;stroke-opacity:0.4;stroke-width:0.8;"/>
     </g>
     <g id="text_33">
      <!-- AJCC 4 -->
      <g transform="translate(1121.725473 308.956957)scale(0.15 -0.15)">
       <use xlink:href="#DejaVuSans-Bold-65"/>
       <use x="77.392578" xlink:href="#DejaVuSans-Bold-74"/>
       <use x="114.599609" xlink:href="#DejaVuSans-Bold-67"/>
       <use x="187.988281" xlink:href="#DejaVuSans-Bold-67"/>
       <use x="261.376953" xlink:href="#DejaVuSans-Bold-32"/>
       <use x="296.191406" xlink:href="#DejaVuSans-Bold-52"/>
      </g>
     </g>
    </g>
    <g id="xtick_26">
     <g id="line2d_36">
      <path clip-path="url(#p4efdd8383f)" d="M 1149.157895 465.66 
L 1075.736842 338.491006 
" style="fill:none;stroke:#b0b0b0;stroke-linecap:square;stroke-opacity:0.4;stroke-width:0.8;"/>
     </g>
     <g id="text_34">
      <!-- T4 -->
      <g transform="translate(1058.402076 330.505713)scale(0.15 -0.15)">
       <use xlink:href="#DejaVuSans-Bold-84"/>
       <use x="68.212891" xlink:href="#DejaVuSans-Bold-52"/>
      </g>
     </g>
    </g>
    <g id="xtick_27">
     <g id="line2d_37">
      <path clip-path="url(#p4efdd8383f)" d="M 1149.157895 465.66 
L 1021.988901 392.238947 
" style="fill:none;stroke:#b0b0b0;stroke-linecap:square;stroke-opacity:0.4;stroke-width:0.8;"/>
     </g>
     <g id="text_35">
      <!-- N3 -->
      <g transform="translate(998.369624 389.37801)scale(0.15 -0.15)">
       <use xlink:href="#DejaVuSans-Bold-78"/>
       <use x="83.691406" xlink:href="#DejaVuSans-Bold-51"/>
      </g>
     </g>
    </g>
    <g id="xtick_28">
     <g id="line2d_38">
      <path clip-path="url(#p4efdd8383f)" d="M 1149.157895 465.66 
L 1002.315789 465.66 
" style="fill:none;stroke:#b0b0b0;stroke-linecap:square;stroke-opacity:0.4;stroke-width:0.8;"/>
     </g>
     <g id="text_36">
      <!-- T3 -->
      <g transform="translate(977.981024 469.799062)scale(0.15 -0.15)">
       <use xlink:href="#DejaVuSans-Bold-84"/>
       <use x="68.212891" xlink:href="#DejaVuSans-Bold-51"/>
      </g>
     </g>
    </g>
    <g id="xtick_29">
     <g id="line2d_39">
      <path clip-path="url(#p4efdd8383f)" d="M 1149.157895 465.66 
L 1021.988901 539.081053 
" style="fill:none;stroke:#b0b0b0;stroke-linecap:square;stroke-opacity:0.4;stroke-width:0.8;"/>
     </g>
     <g id="text_37">
      <!-- AJCC 3 -->
      <g transform="translate(982.432124 550.220115)scale(0.15 -0.15)">
       <use xlink:href="#DejaVuSans-Bold-65"/>
       <use x="77.392578" xlink:href="#DejaVuSans-Bold-74"/>
       <use x="114.599609" xlink:href="#DejaVuSans-Bold-67"/>
       <use x="187.988281" xlink:href="#DejaVuSans-Bold-67"/>
       <use x="261.376953" xlink:href="#DejaVuSans-Bold-32"/>
       <use x="296.191406" xlink:href="#DejaVuSans-Bold-51"/>
      </g>
     </g>
    </g>
    <g id="xtick_30">
     <g id="line2d_40">
      <path clip-path="url(#p4efdd8383f)" d="M 1149.157895 465.66 
L 1075.736842 592.828994 
" style="fill:none;stroke:#b0b0b0;stroke-linecap:square;stroke-opacity:0.4;stroke-width:0.8;"/>
     </g>
     <g id="text_38">
      <!-- N2 -->
      <g transform="translate(1057.24192 609.092412)scale(0.15 -0.15)">
       <use xlink:href="#DejaVuSans-Bold-78"/>
       <use x="83.691406" xlink:href="#DejaVuSans-Bold-50"/>
      </g>
     </g>
    </g>
    <g id="xtick_31">
     <g id="line2d_41">
      <path clip-path="url(#p4efdd8383f)" d="M 1149.157895 465.66 
L 1149.157895 612.502105 
" style="fill:none;stroke:#b0b0b0;stroke-linecap:square;stroke-opacity:0.4;stroke-width:0.8;"/>
     </g>
     <g id="text_39">
      <!-- AJCC 2 -->
      <g transform="translate(1121.725473 630.641168)scale(0.15 -0.15)">
       <use xlink:href="#DejaVuSans-Bold-65"/>
       <use x="77.392578" xlink:href="#DejaVuSans-Bold-74"/>
       <use x="114.599609" xlink:href="#DejaVuSans-Bold-67"/>
       <use x="187.988281" xlink:href="#DejaVuSans-Bold-67"/>
       <use x="261.376953" xlink:href="#DejaVuSans-Bold-32"/>
       <use x="296.191406" xlink:href="#DejaVuSans-Bold-50"/>
      </g>
     </g>
    </g>
    <g id="xtick_32">
     <g id="line2d_42">
      <path clip-path="url(#p4efdd8383f)" d="M 1149.157895 465.66 
L 1222.578947 592.828994 
" style="fill:none;stroke:#b0b0b0;stroke-linecap:square;stroke-opacity:0.4;stroke-width:0.8;"/>
     </g>
     <g id="text_40">
      <!-- T2 -->
      <g transform="translate(1219.244182 609.092412)scale(0.15 -0.15)">
       <use xlink:href="#DejaVuSans-Bold-84"/>
       <use x="68.212891" xlink:href="#DejaVuSans-Bold-50"/>
      </g>
     </g>
    </g>
    <g id="xtick_33">
     <g id="line2d_43">
      <path clip-path="url(#p4efdd8383f)" d="M 1149.157895 465.66 
L 1276.326888 539.081053 
" style="fill:none;stroke:#b0b0b0;stroke-linecap:square;stroke-opacity:0.4;stroke-width:0.8;"/>
     </g>
     <g id="text_41">
      <!-- N1 -->
      <g transform="translate(1276.956322 550.220115)scale(0.15 -0.15)">
       <use xlink:href="#DejaVuSans-Bold-78"/>
       <use x="83.691406" xlink:href="#DejaVuSans-Bold-49"/>
      </g>
     </g>
    </g>
    <g id="xtick_34">
     <g id="line2d_44">
      <path clip-path="url(#p4efdd8383f)" d="M 1149.157895 465.66 
L 1296 465.66 
" style="fill:none;stroke:#b0b0b0;stroke-linecap:square;stroke-opacity:0.4;stroke-width:0.8;"/>
     </g>
     <g id="text_42">
      <!-- AJCC 1 -->
      <g transform="translate(1282.567578 469.799063)scale(0.15 -0.15)">
       <use xlink:href="#DejaVuSans-Bold-65"/>
       <use x="77.392578" xlink:href="#DejaVuSans-Bold-74"/>
       <use x="114.599609" xlink:href="#DejaVuSans-Bold-67"/>
       <use x="187.988281" xlink:href="#DejaVuSans-Bold-67"/>
       <use x="261.376953" xlink:href="#DejaVuSans-Bold-32"/>
       <use x="296.191406" xlink:href="#DejaVuSans-Bold-49"/>
      </g>
     </g>
    </g>
    <g id="xtick_35">
     <g id="line2d_45">
      <path clip-path="url(#p4efdd8383f)" d="M 1149.157895 465.66 
L 1276.326888 392.238947 
" style="fill:none;stroke:#b0b0b0;stroke-linecap:square;stroke-opacity:0.4;stroke-width:0.8;"/>
     </g>
     <g id="text_43">
      <!-- T1 -->
      <g transform="translate(1278.116478 389.37801)scale(0.15 -0.15)">
       <use xlink:href="#DejaVuSans-Bold-84"/>
       <use x="68.212891" xlink:href="#DejaVuSans-Bold-49"/>
      </g>
     </g>
    </g>
    <g id="xtick_36">
     <g id="line2d_46">
      <path clip-path="url(#p4efdd8383f)" d="M 1149.157895 465.66 
L 1222.578947 338.491006 
" style="fill:none;stroke:#b0b0b0;stroke-linecap:square;stroke-opacity:0.4;stroke-width:0.8;"/>
     </g>
     <g id="text_44">
      <!-- N0 -->
      <g transform="translate(1218.084025 330.505713)scale(0.15 -0.15)">
       <use xlink:href="#DejaVuSans-Bold-78"/>
       <use x="83.691406" xlink:href="#DejaVuSans-Bold-48"/>
      </g>
     </g>
    </g>
   </g>
   <g id="matplotlib.axis_6">
    <g id="ytick_9">
     <g id="line2d_47">
      <path clip-path="url(#p4efdd8383f)" d="M 1149.157895 465.66 
L 1149.157895 465.66 
" style="fill:none;stroke:#b0b0b0;stroke-linecap:square;stroke-opacity:0.4;stroke-width:0.8;"/>
     </g>
     <g id="text_45">
      <!-- 0% -->
      <g transform="translate(1149.157895 463.164375)scale(0.12 -0.12)">
       <use xlink:href="#DejaVuSans-48"/>
       <use x="63.623047" xlink:href="#DejaVuSans-37"/>
      </g>
     </g>
    </g>
    <g id="ytick_10">
     <g id="line2d_48">
      <path clip-path="url(#p4efdd8383f)" d="M 1149.157895 380.880671 
L 1143.243988 381.087189 
L 1137.358893 381.705738 
L 1131.531281 382.733303 
L 1125.789545 384.164878 
L 1120.161656 385.99349 
L 1114.675035 388.210229 
L 1109.356411 390.804296 
L 1104.231695 393.763051 
L 1099.325855 397.072082 
L 1094.662792 400.715266 
L 1090.265224 404.674854 
L 1086.154575 408.931556 
L 1082.350872 413.464633 
L 1078.872646 418.252001 
L 1075.736842 423.270335 
L 1072.958739 428.495188 
L 1070.55187 433.901104 
L 1068.527961 439.461747 
L 1066.896874 445.150024 
L 1065.666554 450.938224 
L 1064.842996 456.798147 
L 1064.430211 462.701244 
L 1064.430211 468.618756 
L 1064.842996 474.521853 
L 1065.666554 480.381776 
L 1066.896874 486.169976 
L 1068.527961 491.858253 
L 1070.55187 497.418896 
L 1072.958739 502.824812 
L 1075.736842 508.049665 
L 1078.872646 513.067999 
L 1082.350872 517.855367 
L 1086.154575 522.388444 
L 1090.265224 526.645146 
L 1094.662792 530.604734 
L 1099.325855 534.247918 
L 1104.231695 537.556949 
L 1109.356411 540.515704 
L 1114.675035 543.109771 
L 1120.161656 545.32651 
L 1125.789545 547.155122 
L 1131.531281 548.586697 
L 1137.358893 549.614262 
L 1143.243988 550.232811 
L 1149.157895 550.439329 
L 1155.071802 550.232811 
L 1160.956897 549.614262 
L 1166.784508 548.586697 
L 1172.526245 547.155122 
L 1178.154133 545.32651 
L 1183.640754 543.109771 
L 1188.959379 540.515704 
L 1194.084094 537.556949 
L 1198.989934 534.247918 
L 1203.652997 530.604734 
L 1208.050565 526.645146 
L 1212.161214 522.388444 
L 1215.964918 517.855367 
L 1219.443144 513.067999 
L 1222.578947 508.049665 
L 1225.357051 502.824812 
L 1227.76392 497.418896 
L 1229.787828 491.858253 
L 1231.418915 486.169976 
L 1232.649235 480.381776 
L 1233.472794 474.521853 
L 1233.885578 468.618756 
L 1233.885578 462.701244 
L 1233.472794 456.798147 
L 1232.649235 450.938224 
L 1231.418915 445.150024 
L 1229.787828 439.461747 
L 1227.76392 433.901104 
L 1225.357051 428.495188 
L 1222.578947 423.270335 
L 1219.443144 418.252001 
L 1215.964918 413.464633 
L 1212.161214 408.931556 
L 1208.050565 404.674854 
L 1203.652997 400.715266 
L 1198.989934 397.072082 
L 1194.084094 393.763051 
L 1188.959379 390.804296 
L 1183.640754 388.210229 
L 1178.154133 385.99349 
L 1172.526245 384.164878 
L 1166.784508 382.733303 
L 1160.956897 381.705738 
L 1155.071802 381.087189 
L 1149.157895 380.880671 
L 1149.157895 380.880671 
" style="fill:none;stroke:#b0b0b0;stroke-linecap:square;stroke-opacity:0.4;stroke-width:0.8;"/>
     </g>
     <g id="text_46">
      <!-- 33% -->
      <g transform="translate(1116.71425 384.838488)scale(0.12 -0.12)">
       <use xlink:href="#DejaVuSans-51"/>
       <use x="63.623047" xlink:href="#DejaVuSans-51"/>
       <use x="127.246094" xlink:href="#DejaVuSans-37"/>
      </g>
     </g>
    </g>
    <g id="ytick_11">
     <g id="line2d_49">
      <path clip-path="url(#p4efdd8383f)" d="M 1149.157895 345.763923 
L 1144.973582 345.836961 
L 1140.794367 346.055984 
L 1136.625342 346.420726 
L 1132.471586 346.930743 
L 1128.338159 347.585414 
L 1124.230099 348.38394 
L 1120.152409 349.325349 
L 1116.110057 350.408494 
L 1112.107969 351.632055 
L 1108.151021 352.994541 
L 1104.244034 354.494293 
L 1100.391767 356.129484 
L 1096.598914 357.89812 
L 1092.870096 359.798048 
L 1089.209856 361.826952 
L 1085.622654 363.98236 
L 1082.112859 366.261647 
L 1078.684749 368.662036 
L 1075.342499 371.180602 
L 1072.090182 373.814277 
L 1068.93176 376.559851 
L 1065.871081 379.41398 
L 1062.911875 382.373187 
L 1060.057746 385.433865 
L 1057.312171 388.592287 
L 1054.678497 391.844604 
L 1052.159931 395.186854 
L 1049.759542 398.614965 
L 1047.480255 402.124759 
L 1045.324846 405.711962 
L 1043.295942 409.372201 
L 1041.396015 413.101019 
L 1039.627378 416.893872 
L 1037.992188 420.746139 
L 1036.492436 424.653127 
L 1035.12995 428.610075 
L 1033.906389 432.612162 
L 1032.823244 436.654514 
L 1031.881835 440.732204 
L 1031.083309 444.840265 
L 1030.428638 448.973691 
L 1029.918621 453.127447 
L 1029.553879 457.296472 
L 1029.334855 461.475687 
L 1029.261818 465.66 
L 1029.334855 469.844313 
L 1029.553879 474.023528 
L 1029.918621 478.192553 
L 1030.428638 482.346309 
L 1031.083309 486.479735 
L 1031.881835 490.587796 
L 1032.823244 494.665486 
L 1033.906389 498.707838 
L 1035.12995 502.709925 
L 1036.492436 506.666873 
L 1037.992188 510.573861 
L 1039.627378 514.426128 
L 1041.396015 518.218981 
L 1043.295942 521.947799 
L 1045.324846 525.608038 
L 1047.480255 529.195241 
L 1049.759542 532.705035 
L 1052.159931 536.133146 
L 1054.678497 539.475396 
L 1057.312171 542.727713 
L 1060.057746 545.886135 
L 1062.911875 548.946813 
L 1065.871081 551.90602 
L 1068.93176 554.760149 
L 1072.090182 557.505723 
L 1075.342499 560.139398 
L 1078.684749 562.657964 
L 1082.112859 565.058353 
L 1085.622654 567.33764 
L 1089.209856 569.493048 
L 1092.870096 571.521952 
L 1096.598914 573.42188 
L 1100.391767 575.190516 
L 1104.244034 576.825707 
L 1108.151021 578.325459 
L 1112.107969 579.687945 
L 1116.110057 580.911506 
L 1120.152409 581.994651 
L 1124.230099 582.93606 
L 1128.338159 583.734586 
L 1132.471586 584.389257 
L 1136.625342 584.899274 
L 1140.794367 585.264016 
L 1144.973582 585.483039 
L 1149.157895 585.556077 
L 1153.342207 585.483039 
L 1157.521422 585.264016 
L 1161.690447 584.899274 
L 1165.844204 584.389257 
L 1169.97763 583.734586 
L 1174.085691 582.93606 
L 1178.163381 581.994651 
L 1182.205732 580.911506 
L 1186.20782 579.687945 
L 1190.164768 578.325459 
L 1194.071756 576.825707 
L 1197.924023 575.190516 
L 1201.716875 573.42188 
L 1205.445693 571.521952 
L 1209.105933 569.493048 
L 1212.693136 567.33764 
L 1216.20293 565.058353 
L 1219.631041 562.657964 
L 1222.97329 560.139398 
L 1226.225607 557.505723 
L 1229.384029 554.760149 
L 1232.444708 551.90602 
L 1235.403915 548.946813 
L 1238.258044 545.886135 
L 1241.003618 542.727713 
L 1243.637293 539.475396 
L 1246.155858 536.133146 
L 1248.556247 532.705035 
L 1250.835534 529.195241 
L 1252.990943 525.608038 
L 1255.019847 521.947799 
L 1256.919775 518.218981 
L 1258.688411 514.426128 
L 1260.323601 510.573861 
L 1261.823353 506.666873 
L 1263.18584 502.709925 
L 1264.409401 498.707838 
L 1265.492546 494.665486 
L 1266.433955 490.587796 
L 1267.232481 486.479735 
L 1267.887151 482.346309 
L 1268.397168 478.192553 
L 1268.761911 474.023528 
L 1268.980934 469.844313 
L 1269.053972 465.66 
L 1268.980934 461.475687 
L 1268.761911 457.296472 
L 1268.397168 453.127447 
L 1267.887151 448.973691 
L 1267.232481 444.840265 
L 1266.433955 440.732204 
L 1265.492546 436.654514 
L 1264.409401 432.612162 
L 1263.18584 428.610075 
L 1261.823353 424.653127 
L 1260.323601 420.746139 
L 1258.688411 416.893872 
L 1256.919775 413.101019 
L 1255.019847 409.372201 
L 1252.990943 405.711962 
L 1250.835534 402.124759 
L 1248.556247 398.614965 
L 1246.155858 395.186854 
L 1243.637293 391.844604 
L 1241.003618 388.592287 
L 1238.258044 385.433865 
L 1235.403915 382.373187 
L 1232.444708 379.41398 
L 1229.384029 376.559851 
L 1226.225607 373.814277 
L 1222.97329 371.180602 
L 1219.631041 368.662036 
L 1216.20293 366.261647 
L 1212.693136 363.98236 
L 1209.105933 361.826952 
L 1205.445693 359.798048 
L 1201.716875 357.89812 
L 1197.924023 356.129484 
L 1194.071756 354.494293 
L 1190.164768 352.994541 
L 1186.20782 351.632055 
L 1182.205732 350.408494 
L 1178.163381 349.325349 
L 1174.085691 348.38394 
L 1169.97763 347.585414 
L 1165.844204 346.930743 
L 1161.690447 346.420726 
L 1157.521422 346.055984 
L 1153.342207 345.836961 
L 1149.157895 345.763923 
L 1149.157895 345.763923 
" style="fill:none;stroke:#b0b0b0;stroke-linecap:square;stroke-opacity:0.4;stroke-width:0.8;"/>
     </g>
     <g id="text_47">
      <!-- 66% -->
      <g transform="translate(1103.275653 352.394844)scale(0.12 -0.12)">
       <use xlink:href="#DejaVuSans-54"/>
       <use x="63.623047" xlink:href="#DejaVuSans-54"/>
       <use x="127.246094" xlink:href="#DejaVuSans-37"/>
      </g>
     </g>
    </g>
    <g id="ytick_12">
     <g id="line2d_50">
      <path clip-path="url(#p4efdd8383f)" d="M 1149.157895 318.817895 
L 1144.033179 318.907347 
L 1138.914707 319.175595 
L 1133.808715 319.622311 
L 1128.721424 320.246952 
L 1123.659031 321.048756 
L 1118.627704 322.026747 
L 1113.633574 323.179733 
L 1108.682725 324.506309 
L 1103.781189 326.004859 
L 1098.934937 327.673557 
L 1094.149874 329.510371 
L 1089.43183 331.513062 
L 1084.786553 333.67919 
L 1080.219702 336.006117 
L 1075.736842 338.491006 
L 1071.343434 341.130832 
L 1067.044832 343.922378 
L 1062.846271 346.862241 
L 1058.752868 349.946842 
L 1054.769609 353.172421 
L 1050.901348 356.535049 
L 1047.152797 360.030629 
L 1043.528524 363.654902 
L 1040.032944 367.403453 
L 1036.670316 371.271714 
L 1033.444737 375.254973 
L 1030.360136 379.348376 
L 1027.420272 383.546937 
L 1024.628727 387.84554 
L 1021.988901 392.238947 
L 1019.504011 396.721807 
L 1017.177085 401.288658 
L 1015.010956 405.933935 
L 1013.008266 410.651979 
L 1011.171452 415.437042 
L 1009.502754 420.283294 
L 1008.004204 425.18483 
L 1006.677628 430.13568 
L 1005.524642 435.12981 
L 1004.546651 440.161136 
L 1003.744847 445.223529 
L 1003.120206 450.31082 
L 1002.673489 455.416813 
L 1002.405242 460.535284 
L 1002.315789 465.66 
L 1002.405242 470.784716 
L 1002.673489 475.903187 
L 1003.120206 481.00918 
L 1003.744847 486.096471 
L 1004.546651 491.158864 
L 1005.524642 496.19019 
L 1006.677628 501.18432 
L 1008.004204 506.13517 
L 1009.502754 511.036706 
L 1011.171452 515.882958 
L 1013.008266 520.668021 
L 1015.010956 525.386065 
L 1017.177085 530.031342 
L 1019.504011 534.598193 
L 1021.988901 539.081053 
L 1024.628727 543.47446 
L 1027.420272 547.773063 
L 1030.360136 551.971624 
L 1033.444737 556.065027 
L 1036.670316 560.048286 
L 1040.032944 563.916547 
L 1043.528524 567.665098 
L 1047.152797 571.289371 
L 1050.901348 574.784951 
L 1054.769609 578.147579 
L 1058.752868 581.373158 
L 1062.846271 584.457759 
L 1067.044832 587.397622 
L 1071.343434 590.189168 
L 1075.736842 592.828994 
L 1080.219702 595.313883 
L 1084.786553 597.64081 
L 1089.43183 599.806938 
L 1094.149874 601.809629 
L 1098.934937 603.646443 
L 1103.781189 605.315141 
L 1108.682725 606.813691 
L 1113.633574 608.140267 
L 1118.627704 609.293253 
L 1123.659031 610.271244 
L 1128.721424 611.073048 
L 1133.808715 611.697689 
L 1138.914707 612.144405 
L 1144.033179 612.412653 
L 1149.157895 612.502105 
L 1154.28261 612.412653 
L 1159.401082 612.144405 
L 1164.507074 611.697689 
L 1169.594366 611.073048 
L 1174.656759 610.271244 
L 1179.688085 609.293253 
L 1184.682215 608.140267 
L 1189.633064 606.813691 
L 1194.534601 605.315141 
L 1199.380853 603.646443 
L 1204.165916 601.809629 
L 1208.88396 599.806938 
L 1213.529237 597.64081 
L 1218.096087 595.313883 
L 1222.578947 592.828994 
L 1226.972355 590.189168 
L 1231.270958 587.397622 
L 1235.469519 584.457759 
L 1239.562922 581.373158 
L 1243.546181 578.147579 
L 1247.414442 574.784951 
L 1251.162992 571.289371 
L 1254.787265 567.665098 
L 1258.282845 563.916547 
L 1261.645473 560.048286 
L 1264.871053 556.065027 
L 1267.955653 551.971624 
L 1270.895517 547.773063 
L 1273.687063 543.47446 
L 1276.326888 539.081053 
L 1278.811778 534.598193 
L 1281.138705 530.031342 
L 1283.304833 525.386065 
L 1285.307524 520.668021 
L 1287.144337 515.882958 
L 1288.813036 511.036706 
L 1290.311586 506.13517 
L 1291.638162 501.18432 
L 1292.791148 496.19019 
L 1293.769138 491.158864 
L 1294.570943 486.096471 
L 1295.195584 481.00918 
L 1295.6423 475.903187 
L 1295.910548 470.784716 
L 1296 465.66 
L 1295.910548 460.535284 
L 1295.6423 455.416813 
L 1295.195584 450.31082 
L 1294.570943 445.223529 
L 1293.769138 440.161136 
L 1292.791148 435.12981 
L 1291.638162 430.13568 
L 1290.311586 425.18483 
L 1288.813036 420.283294 
L 1287.144337 415.437042 
L 1285.307524 410.651979 
L 1283.304833 405.933935 
L 1281.138705 401.288658 
L 1278.811778 396.721807 
L 1276.326888 392.238947 
L 1273.687063 387.84554 
L 1270.895517 383.546937 
L 1267.955653 379.348376 
L 1264.871053 375.254973 
L 1261.645473 371.271714 
L 1258.282845 367.403453 
L 1254.787265 363.654902 
L 1251.162992 360.030629 
L 1247.414442 356.535049 
L 1243.546181 353.172421 
L 1239.562922 349.946842 
L 1235.469519 346.862241 
L 1231.270958 343.922378 
L 1226.972355 341.130832 
L 1222.578947 338.491006 
L 1218.096087 336.006117 
L 1213.529237 333.67919 
L 1208.88396 331.513062 
L 1204.165916 329.510371 
L 1199.380853 327.673557 
L 1194.534601 326.004859 
L 1189.633064 324.506309 
L 1184.682215 323.179733 
L 1179.688085 322.026747 
L 1174.656759 321.048756 
L 1169.594366 320.246952 
L 1164.507074 319.622311 
L 1159.401082 319.175595 
L 1154.28261 318.907347 
L 1149.157895 318.817895 
L 1149.157895 318.817895 
" style="fill:none;stroke:#b0b0b0;stroke-linecap:square;stroke-opacity:0.4;stroke-width:0.8;"/>
     </g>
     <g id="text_48">
      <!-- 100% -->
      <g transform="translate(1092.963854 327.499959)scale(0.12 -0.12)">
       <use xlink:href="#DejaVuSans-49"/>
       <use x="63.623047" xlink:href="#DejaVuSans-48"/>
       <use x="127.246094" xlink:href="#DejaVuSans-48"/>
       <use x="190.869141" xlink:href="#DejaVuSans-37"/>
      </g>
     </g>
    </g>
   </g>
   <g id="line2d_51">
    <path clip-path="url(#p4efdd8383f)" d="M 1149.157895 373.026117 
L 1098.311929 377.592205 
L 1112.823897 444.682556 
L 1078.019922 465.66 
L 1081.183208 504.905203 
L 1086.225564 574.661994 
L 1149.157895 539.826463 
L 1183.145238 524.527805 
L 1197.223256 493.410549 
L 1185.491893 465.66 
L 1183.145238 446.037398 
L 1163.991187 439.967984 
L 1149.157895 373.026117 
" style="fill:none;stroke:#218944;stroke-linecap:square;stroke-width:1.5;"/>
   </g>
   <g id="patch_10">
    <path d="M 1149.157895 318.817895 
C 1129.874766 318.817895 1110.779142 322.616251 1092.963854 329.995584 
C 1075.148566 337.374918 1058.960077 348.191721 1045.324846 361.826952 
C 1031.689615 375.462183 1020.872813 391.650671 1013.493479 409.465959 
C 1006.114145 427.281247 1002.315789 446.376871 1002.315789 465.66 
C 1002.315789 484.943129 1006.114145 504.038753 1013.493479 521.854041 
C 1020.872813 539.669329 1031.689615 555.857817 1045.324846 569.493048 
C 1058.960077 583.128279 1075.148566 593.945082 1092.963854 601.324416 
C 1110.779142 608.703749 1129.874766 612.502105 1149.157895 612.502105 
C 1168.441023 612.502105 1187.536648 608.703749 1205.351936 601.324416 
C 1223.167223 593.945082 1239.355712 583.128279 1252.990943 569.493048 
C 1266.626174 555.857817 1277.442976 539.669329 1284.82231 521.854041 
C 1292.201644 504.038753 1296 484.943129 1296 465.66 
C 1296 446.376871 1292.201644 427.281247 1284.82231 409.465959 
C 1277.442976 391.650671 1266.626174 375.462183 1252.990943 361.826952 
C 1239.355712 348.191721 1223.167223 337.374918 1205.351936 329.995584 
C 1187.536648 322.616251 1168.441023 318.817895 1149.157895 318.817895 
" style="fill:none;stroke:#000000;stroke-linecap:square;stroke-linejoin:miter;stroke-width:0.8;"/>
   </g>
  </g>
 </g>
 <defs>
  <clipPath id="p0a31272dac">
   <path d="M 473.684211 465.66 
C 473.684211 446.376871 469.885855 427.281247 462.506521 409.465959 
C 455.127187 391.650671 444.310385 375.462183 430.675154 361.826952 
C 417.039923 348.191721 400.851434 337.374918 383.036146 329.995584 
C 365.220858 322.616251 346.125234 318.817895 326.842105 318.817895 
C 307.558977 318.817895 288.463352 322.616251 270.648064 329.995584 
C 252.832777 337.374918 236.644288 348.191721 223.009057 361.826952 
C 209.373826 375.462183 198.557024 391.650671 191.17769 409.465959 
C 183.798356 427.281247 180 446.376871 180 465.66 
C 180 484.943129 183.798356 504.038753 191.17769 521.854041 
C 198.557024 539.669329 209.373826 555.857817 223.009057 569.493048 
C 236.644288 583.128279 252.832777 593.945082 270.648064 601.324416 
C 288.463352 608.703749 307.558977 612.502105 326.842105 612.502105 
C 346.125234 612.502105 365.220858 608.703749 383.036146 601.324416 
C 400.851434 593.945082 417.039923 583.128279 430.675154 569.493048 
C 444.310385 555.857817 455.127187 539.669329 462.506521 521.854041 
C 469.885855 504.038753 473.684211 484.943129 473.684211 465.66 
M 326.842105 465.66 
C 326.842105 465.66 326.842105 465.66 326.842105 465.66 
C 326.842105 465.66 326.842105 465.66 326.842105 465.66 
C 326.842105 465.66 326.842105 465.66 326.842105 465.66 
C 326.842105 465.66 326.842105 465.66 326.842105 465.66 
C 326.842105 465.66 326.842105 465.66 326.842105 465.66 
C 326.842105 465.66 326.842105 465.66 326.842105 465.66 
C 326.842105 465.66 326.842105 465.66 326.842105 465.66 
C 326.842105 465.66 326.842105 465.66 326.842105 465.66 
C 326.842105 465.66 326.842105 465.66 326.842105 465.66 
C 326.842105 465.66 326.842105 465.66 326.842105 465.66 
C 326.842105 465.66 326.842105 465.66 326.842105 465.66 
C 326.842105 465.66 326.842105 465.66 326.842105 465.66 
C 326.842105 465.66 326.842105 465.66 326.842105 465.66 
C 326.842105 465.66 326.842105 465.66 326.842105 465.66 
C 326.842105 465.66 326.842105 465.66 326.842105 465.66 
C 326.842105 465.66 326.842105 465.66 326.842105 465.66 
M 473.684211 465.66 
z
"/>
  </clipPath>
  <clipPath id="pf966ceaa2e">
   <path d="M 884.842105 465.66 
C 884.842105 446.376871 881.043749 427.281247 873.664416 409.465959 
C 866.285082 391.650671 855.468279 375.462183 841.833048 361.826952 
C 828.197817 348.191721 812.009329 337.374918 794.194041 329.995584 
C 776.378753 322.616251 757.283129 318.817895 738 318.817895 
C 718.716871 318.817895 699.621247 322.616251 681.805959 329.995584 
C 663.990671 337.374918 647.802183 348.191721 634.166952 361.826952 
C 620.531721 375.462183 609.714918 391.650671 602.335584 409.465959 
C 594.956251 427.281247 591.157895 446.376871 591.157895 465.66 
C 591.157895 484.943129 594.956251 504.038753 602.335584 521.854041 
C 609.714918 539.669329 620.531721 555.857817 634.166952 569.493048 
C 647.802183 583.128279 663.990671 593.945082 681.805959 601.324416 
C 699.621247 608.703749 718.716871 612.502105 738 612.502105 
C 757.283129 612.502105 776.378753 608.703749 794.194041 601.324416 
C 812.009329 593.945082 828.197817 583.128279 841.833048 569.493048 
C 855.468279 555.857817 866.285082 539.669329 873.664416 521.854041 
C 881.043749 504.038753 884.842105 484.943129 884.842105 465.66 
M 738 465.66 
C 738 465.66 738 465.66 738 465.66 
C 738 465.66 738 465.66 738 465.66 
C 738 465.66 738 465.66 738 465.66 
C 738 465.66 738 465.66 738 465.66 
C 738 465.66 738 465.66 738 465.66 
C 738 465.66 738 465.66 738 465.66 
C 738 465.66 738 465.66 738 465.66 
C 738 465.66 738 465.66 738 465.66 
C 738 465.66 738 465.66 738 465.66 
C 738 465.66 738 465.66 738 465.66 
C 738 465.66 738 465.66 738 465.66 
C 738 465.66 738 465.66 738 465.66 
C 738 465.66 738 465.66 738 465.66 
C 738 465.66 738 465.66 738 465.66 
C 738 465.66 738 465.66 738 465.66 
C 738 465.66 738 465.66 738 465.66 
M 884.842105 465.66 
z
"/>
  </clipPath>
  <clipPath id="p4efdd8383f">
   <path d="M 1296 465.66 
C 1296 446.376871 1292.201644 427.281247 1284.82231 409.465959 
C 1277.442976 391.650671 1266.626174 375.462183 1252.990943 361.826952 
C 1239.355712 348.191721 1223.167223 337.374918 1205.351936 329.995584 
C 1187.536648 322.616251 1168.441023 318.817895 1149.157895 318.817895 
C 1129.874766 318.817895 1110.779142 322.616251 1092.963854 329.995584 
C 1075.148566 337.374918 1058.960077 348.191721 1045.324846 361.826952 
C 1031.689615 375.462183 1020.872813 391.650671 1013.493479 409.465959 
C 1006.114145 427.281247 1002.315789 446.376871 1002.315789 465.66 
C 1002.315789 484.943129 1006.114145 504.038753 1013.493479 521.854041 
C 1020.872813 539.669329 1031.689615 555.857817 1045.324846 569.493048 
C 1058.960077 583.128279 1075.148566 593.945082 1092.963854 601.324416 
C 1110.779142 608.703749 1129.874766 612.502105 1149.157895 612.502105 
C 1168.441023 612.502105 1187.536648 608.703749 1205.351936 601.324416 
C 1223.167223 593.945082 1239.355712 583.128279 1252.990943 569.493048 
C 1266.626174 555.857817 1277.442976 539.669329 1284.82231 521.854041 
C 1292.201644 504.038753 1296 484.943129 1296 465.66 
M 1149.157895 465.66 
C 1149.157895 465.66 1149.157895 465.66 1149.157895 465.66 
C 1149.157895 465.66 1149.157895 465.66 1149.157895 465.66 
C 1149.157895 465.66 1149.157895 465.66 1149.157895 465.66 
C 1149.157895 465.66 1149.157895 465.66 1149.157895 465.66 
C 1149.157895 465.66 1149.157895 465.66 1149.157895 465.66 
C 1149.157895 465.66 1149.157895 465.66 1149.157895 465.66 
C 1149.157895 465.66 1149.157895 465.66 1149.157895 465.66 
C 1149.157895 465.66 1149.157895 465.66 1149.157895 465.66 
C 1149.157895 465.66 1149.157895 465.66 1149.157895 465.66 
C 1149.157895 465.66 1149.157895 465.66 1149.157895 465.66 
C 1149.157895 465.66 1149.157895 465.66 1149.157895 465.66 
C 1149.157895 465.66 1149.157895 465.66 1149.157895 465.66 
C 1149.157895 465.66 1149.157895 465.66 1149.157895 465.66 
C 1149.157895 465.66 1149.157895 465.66 1149.157895 465.66 
C 1149.157895 465.66 1149.157895 465.66 1149.157895 465.66 
C 1149.157895 465.66 1149.157895 465.66 1149.157895 465.66 
M 1296 465.66 
z
"/>
  </clipPath>
 </defs>
</svg>
