<?xml version="1.0" encoding="utf-8" standalone="no"?>
<!DOCTYPE svg PUBLIC "-//W3C//DTD SVG 1.1//EN"
  "http://www.w3.org/Graphics/SVG/1.1/DTD/svg11.dtd">
<!-- Created with matplotlib (https://matplotlib.org/) -->
<svg height="936pt" version="1.1" viewBox="0 0 1440 936" width="1440pt" xmlns="http://www.w3.org/2000/svg" xmlns:xlink="http://www.w3.org/1999/xlink">
 <defs>
  <style type="text/css">
*{stroke-linecap:butt;stroke-linejoin:round;}
  </style>
 </defs>
 <g id="figure_1">
  <g id="patch_1">
   <path d="M 0 936 
L 1440 936 
L 1440 0 
L 0 0 
z
" style="fill:#ffffff;"/>
  </g>
  <g id="axes_1">
   <g id="patch_2">
    <path d="M 382.909091 465.66 
C 382.909091 452.337111 380.284772 439.143771 375.186323 426.835026 
C 370.087875 414.526282 362.614448 403.341508 353.193743 393.920803 
C 343.773037 384.500098 332.588263 377.026671 320.279519 371.928222 
C 307.970775 366.829773 294.777434 364.205455 281.454545 364.205455 
C 268.131657 364.205455 254.938316 366.829773 242.629572 371.928222 
C 230.320827 377.026671 219.136053 384.500098 209.715348 393.920803 
C 200.294643 403.341508 192.821216 414.526282 187.722767 426.835026 
C 182.624319 439.143771 180 452.337111 180 465.66 
C 180 478.982889 182.624319 492.176229 187.722767 504.484974 
C 192.821216 516.793718 200.294643 527.978492 209.715348 537.399197 
C 219.136053 546.819902 230.320827 554.293329 242.629572 559.391778 
C 254.938316 564.490227 268.131657 567.114545 281.454545 567.114545 
C 294.777434 567.114545 307.970775 564.490227 320.279519 559.391778 
C 332.588263 554.293329 343.773037 546.819902 353.193743 537.399197 
C 362.614448 527.978492 370.087875 516.793718 375.186323 504.484974 
C 380.284772 492.176229 382.909091 478.982889 382.909091 465.66 
M 281.454545 465.66 
C 281.454545 465.66 281.454545 465.66 281.454545 465.66 
C 281.454545 465.66 281.454545 465.66 281.454545 465.66 
C 281.454545 465.66 281.454545 465.66 281.454545 465.66 
C 281.454545 465.66 281.454545 465.66 281.454545 465.66 
C 281.454545 465.66 281.454545 465.66 281.454545 465.66 
C 281.454545 465.66 281.454545 465.66 281.454545 465.66 
C 281.454545 465.66 281.454545 465.66 281.454545 465.66 
C 281.454545 465.66 281.454545 465.66 281.454545 465.66 
C 281.454545 465.66 281.454545 465.66 281.454545 465.66 
C 281.454545 465.66 281.454545 465.66 281.454545 465.66 
C 281.454545 465.66 281.454545 465.66 281.454545 465.66 
C 281.454545 465.66 281.454545 465.66 281.454545 465.66 
C 281.454545 465.66 281.454545 465.66 281.454545 465.66 
C 281.454545 465.66 281.454545 465.66 281.454545 465.66 
C 281.454545 465.66 281.454545 465.66 281.454545 465.66 
C 281.454545 465.66 281.454545 465.66 281.454545 465.66 
M 382.909091 465.66 
z
" style="fill:#ffffff;"/>
   </g>
   <g id="patch_3">
    <path clip-path="url(#p555e457603)" d="M 288.106373 465.66 
L 290.294332 462.442581 
L 302.770951 447.773412 
L 313.268784 410.556122 
L 298.233019 370.50455 
L 264.676072 370.50455 
L 272.975096 450.973162 
L 276.35895 461.384288 
L 255.682359 456.279691 
L 281.454545 465.66 
z
" style="fill:#fc9272;opacity:0.9;"/>
   </g>
   <g id="patch_4">
    <path clip-path="url(#p555e457603)" d="M 281.454545 465.66 
L 281.454545 465.66 
L 277.851415 468.683385 
L 281.454545 465.66 
L 281.454545 465.66 
L 281.454545 465.66 
L 281.454545 465.66 
L 281.454545 465.66 
L 281.454545 465.66 
L 288.106373 465.66 
z
" style="fill:#de2d26;opacity:0.9;"/>
   </g>
   <g id="matplotlib.axis_1">
    <g id="xtick_1">
     <g id="line2d_1">
      <path clip-path="url(#p555e457603)" d="M 281.454545 465.66 
L 382.909091 465.66 
" style="fill:none;stroke:#b0b0b0;stroke-linecap:square;stroke-width:0.8;"/>
     </g>
     <g id="text_1">
      <!-- 5B -->
      <defs>
       <path d="M 10.59375 72.90625 
L 57.328125 72.90625 
L 57.328125 59.078125 
L 25.59375 59.078125 
L 25.59375 47.796875 
Q 27.734375 48.390625 29.90625 48.703125 
Q 32.078125 49.03125 34.421875 49.03125 
Q 47.75 49.03125 55.171875 42.359375 
Q 62.59375 35.6875 62.59375 23.78125 
Q 62.59375 11.96875 54.515625 5.265625 
Q 46.4375 -1.421875 32.078125 -1.421875 
Q 25.875 -1.421875 19.796875 -0.21875 
Q 13.71875 0.984375 7.71875 3.421875 
L 7.71875 18.21875 
Q 13.671875 14.796875 19.015625 13.078125 
Q 24.359375 11.375 29.109375 11.375 
Q 35.9375 11.375 39.859375 14.71875 
Q 43.796875 18.0625 43.796875 23.78125 
Q 43.796875 29.546875 39.859375 32.859375 
Q 35.9375 36.1875 29.109375 36.1875 
Q 25.046875 36.1875 20.453125 35.125 
Q 15.875 34.078125 10.59375 31.890625 
z
" id="DejaVuSans-Bold-53"/>
       <path d="M 38.375 44.671875 
Q 42.828125 44.671875 45.109375 46.625 
Q 47.40625 48.578125 47.40625 52.390625 
Q 47.40625 56.15625 45.109375 58.125 
Q 42.828125 60.109375 38.375 60.109375 
L 27.984375 60.109375 
L 27.984375 44.671875 
z
M 39.015625 12.796875 
Q 44.671875 12.796875 47.53125 15.1875 
Q 50.390625 17.578125 50.390625 22.40625 
Q 50.390625 27.15625 47.5625 29.515625 
Q 44.734375 31.890625 39.015625 31.890625 
L 27.984375 31.890625 
L 27.984375 12.796875 
z
M 56.5 39.015625 
Q 62.546875 37.25 65.859375 32.515625 
Q 69.1875 27.78125 69.1875 20.90625 
Q 69.1875 10.359375 62.0625 5.171875 
Q 54.9375 0 40.375 0 
L 9.1875 0 
L 9.1875 72.90625 
L 37.40625 72.90625 
Q 52.59375 72.90625 59.40625 68.3125 
Q 66.21875 63.71875 66.21875 53.609375 
Q 66.21875 48.296875 63.71875 44.5625 
Q 61.234375 40.828125 56.5 39.015625 
z
" id="DejaVuSans-Bold-66"/>
      </defs>
      <g transform="translate(385.974325 469.799063)scale(0.15 -0.15)">
       <use xlink:href="#DejaVuSans-Bold-53"/>
       <use x="69.580078" xlink:href="#DejaVuSans-Bold-66"/>
      </g>
     </g>
    </g>
    <g id="xtick_2">
     <g id="line2d_2">
      <path clip-path="url(#p555e457603)" d="M 281.454545 465.66 
L 376.790633 430.960502 
" style="fill:none;stroke:#b0b0b0;stroke-linecap:square;stroke-width:0.8;"/>
     </g>
     <g id="text_2">
      <!-- 5A -->
      <defs>
       <path d="M 53.421875 13.28125 
L 24.03125 13.28125 
L 19.390625 0 
L 0.484375 0 
L 27.484375 72.90625 
L 49.90625 72.90625 
L 76.90625 0 
L 58.015625 0 
z
M 28.71875 26.8125 
L 48.6875 26.8125 
L 38.71875 55.8125 
z
" id="DejaVuSans-Bold-65"/>
      </defs>
      <g transform="translate(378.923674 430.311282)scale(0.15 -0.15)">
       <use xlink:href="#DejaVuSans-Bold-53"/>
       <use x="69.580078" xlink:href="#DejaVuSans-Bold-65"/>
      </g>
     </g>
    </g>
    <g id="xtick_3">
     <g id="line2d_3">
      <path clip-path="url(#p555e457603)" d="M 281.454545 465.66 
L 359.173236 400.446275 
" style="fill:none;stroke:#b0b0b0;stroke-linecap:square;stroke-width:0.8;"/>
     </g>
     <g id="text_3">
      <!-- 4 -->
      <defs>
       <path d="M 36.8125 57.421875 
L 16.21875 26.90625 
L 36.8125 26.90625 
z
M 33.6875 72.90625 
L 54.59375 72.90625 
L 54.59375 26.90625 
L 64.984375 26.90625 
L 64.984375 13.28125 
L 54.59375 13.28125 
L 54.59375 0 
L 36.8125 0 
L 36.8125 13.28125 
L 4.5 13.28125 
L 4.5 29.390625 
z
" id="DejaVuSans-Bold-52"/>
      </defs>
      <g transform="translate(364.679499 395.586311)scale(0.15 -0.15)">
       <use xlink:href="#DejaVuSans-Bold-52"/>
      </g>
     </g>
    </g>
    <g id="xtick_4">
     <g id="line2d_4">
      <path clip-path="url(#p555e457603)" d="M 281.454545 465.66 
L 332.181818 377.797786 
" style="fill:none;stroke:#b0b0b0;stroke-linecap:square;stroke-width:0.8;"/>
     </g>
     <g id="text_4">
      <!-- 3 -->
      <defs>
       <path d="M 46.578125 39.3125 
Q 53.953125 37.40625 57.78125 32.6875 
Q 61.625 27.984375 61.625 20.703125 
Q 61.625 9.859375 53.3125 4.21875 
Q 45.015625 -1.421875 29.109375 -1.421875 
Q 23.484375 -1.421875 17.84375 -0.515625 
Q 12.203125 0.390625 6.6875 2.203125 
L 6.6875 16.703125 
Q 11.96875 14.0625 17.15625 12.71875 
Q 22.359375 11.375 27.390625 11.375 
Q 34.859375 11.375 38.84375 13.953125 
Q 42.828125 16.546875 42.828125 21.390625 
Q 42.828125 26.375 38.75 28.9375 
Q 34.671875 31.5 26.703125 31.5 
L 19.1875 31.5 
L 19.1875 43.609375 
L 27.09375 43.609375 
Q 34.1875 43.609375 37.640625 45.828125 
Q 41.109375 48.046875 41.109375 52.59375 
Q 41.109375 56.78125 37.734375 59.078125 
Q 34.375 61.375 28.21875 61.375 
Q 23.6875 61.375 19.046875 60.34375 
Q 14.40625 59.328125 9.8125 57.328125 
L 9.8125 71.09375 
Q 15.375 72.65625 20.84375 73.4375 
Q 26.3125 74.21875 31.59375 74.21875 
Q 45.796875 74.21875 52.84375 69.546875 
Q 59.90625 64.890625 59.90625 55.515625 
Q 59.90625 49.125 56.53125 45.046875 
Q 53.171875 40.96875 46.578125 39.3125 
z
" id="DejaVuSans-Bold-51"/>
      </defs>
      <g transform="translate(333.963459 369.812493)scale(0.15 -0.15)">
       <use xlink:href="#DejaVuSans-Bold-51"/>
      </g>
     </g>
    </g>
    <g id="xtick_5">
     <g id="line2d_5">
      <path clip-path="url(#p555e457603)" d="M 281.454545 465.66 
L 299.071942 365.746777 
" style="fill:none;stroke:#b0b0b0;stroke-linecap:square;stroke-width:0.8;"/>
     </g>
     <g id="text_5">
      <!-- 2B -->
      <defs>
       <path d="M 28.8125 13.8125 
L 60.890625 13.8125 
L 60.890625 0 
L 7.90625 0 
L 7.90625 13.8125 
L 34.515625 37.3125 
Q 38.09375 40.53125 39.796875 43.609375 
Q 41.5 46.6875 41.5 50 
Q 41.5 55.125 38.0625 58.25 
Q 34.625 61.375 28.90625 61.375 
Q 24.515625 61.375 19.28125 59.5 
Q 14.0625 57.625 8.109375 53.90625 
L 8.109375 69.921875 
Q 14.453125 72.015625 20.65625 73.109375 
Q 26.859375 74.21875 32.8125 74.21875 
Q 45.90625 74.21875 53.15625 68.453125 
Q 60.40625 62.703125 60.40625 52.390625 
Q 60.40625 46.4375 57.328125 41.28125 
Q 54.25 36.140625 44.390625 27.484375 
z
" id="DejaVuSans-Bold-50"/>
      </defs>
      <g transform="translate(290.568251 356.098531)scale(0.15 -0.15)">
       <use xlink:href="#DejaVuSans-Bold-50"/>
       <use x="69.580078" xlink:href="#DejaVuSans-Bold-66"/>
      </g>
     </g>
    </g>
    <g id="xtick_6">
     <g id="line2d_6">
      <path clip-path="url(#p555e457603)" d="M 281.454545 465.66 
L 263.837149 365.746777 
" style="fill:none;stroke:#b0b0b0;stroke-linecap:square;stroke-width:0.8;"/>
     </g>
     <g id="text_6">
      <!-- 2A -->
      <g transform="translate(250.383418 356.098531)scale(0.15 -0.15)">
       <use xlink:href="#DejaVuSans-Bold-50"/>
       <use x="69.580078" xlink:href="#DejaVuSans-Bold-65"/>
      </g>
     </g>
    </g>
    <g id="xtick_7">
     <g id="line2d_7">
      <path clip-path="url(#p555e457603)" d="M 281.454545 465.66 
L 230.727273 377.797786 
" style="fill:none;stroke:#b0b0b0;stroke-linecap:square;stroke-width:0.8;"/>
     </g>
     <g id="text_7">
      <!-- 1B -->
      <defs>
       <path d="M 11.71875 12.984375 
L 28.328125 12.984375 
L 28.328125 60.109375 
L 11.28125 56.59375 
L 11.28125 69.390625 
L 28.21875 72.90625 
L 46.09375 72.90625 
L 46.09375 12.984375 
L 62.703125 12.984375 
L 62.703125 0 
L 11.71875 0 
z
" id="DejaVuSans-Bold-49"/>
      </defs>
      <g transform="translate(212.792507 369.812493)scale(0.15 -0.15)">
       <use xlink:href="#DejaVuSans-Bold-49"/>
       <use x="69.580078" xlink:href="#DejaVuSans-Bold-66"/>
      </g>
     </g>
    </g>
    <g id="xtick_8">
     <g id="line2d_8">
      <path clip-path="url(#p555e457603)" d="M 281.454545 465.66 
L 203.735855 400.446275 
" style="fill:none;stroke:#b0b0b0;stroke-linecap:square;stroke-width:0.8;"/>
     </g>
     <g id="text_8">
      <!-- 1A -->
      <g transform="translate(181.988576 395.586311)scale(0.15 -0.15)">
       <use xlink:href="#DejaVuSans-Bold-49"/>
       <use x="69.580078" xlink:href="#DejaVuSans-Bold-65"/>
      </g>
     </g>
    </g>
    <g id="xtick_9">
     <g id="line2d_9">
      <path clip-path="url(#p555e457603)" d="M 281.454545 465.66 
L 186.118458 430.960502 
" style="fill:none;stroke:#b0b0b0;stroke-linecap:square;stroke-width:0.8;"/>
     </g>
     <g id="text_9">
      <!-- RPLN -->
      <defs>
       <path d="M 35.890625 40.578125 
Q 41.796875 40.578125 44.359375 42.765625 
Q 46.921875 44.96875 46.921875 50 
Q 46.921875 54.984375 44.359375 57.125 
Q 41.796875 59.28125 35.890625 59.28125 
L 27.984375 59.28125 
L 27.984375 40.578125 
z
M 27.984375 27.59375 
L 27.984375 0 
L 9.1875 0 
L 9.1875 72.90625 
L 37.890625 72.90625 
Q 52.296875 72.90625 59 68.0625 
Q 65.71875 63.234375 65.71875 52.78125 
Q 65.71875 45.5625 62.21875 40.921875 
Q 58.734375 36.28125 51.703125 34.078125 
Q 55.5625 33.203125 58.609375 30.09375 
Q 61.671875 27 64.796875 20.703125 
L 75 0 
L 54.984375 0 
L 46.09375 18.109375 
Q 43.40625 23.578125 40.640625 25.578125 
Q 37.890625 27.59375 33.296875 27.59375 
z
" id="DejaVuSans-Bold-82"/>
       <path d="M 9.1875 72.90625 
L 40.375 72.90625 
Q 54.296875 72.90625 61.734375 66.71875 
Q 69.1875 60.546875 69.1875 49.125 
Q 69.1875 37.640625 61.734375 31.46875 
Q 54.296875 25.296875 40.375 25.296875 
L 27.984375 25.296875 
L 27.984375 0 
L 9.1875 0 
z
M 27.984375 59.28125 
L 27.984375 38.921875 
L 38.375 38.921875 
Q 43.84375 38.921875 46.828125 41.578125 
Q 49.8125 44.234375 49.8125 49.125 
Q 49.8125 54 46.828125 56.640625 
Q 43.84375 59.28125 38.375 59.28125 
z
" id="DejaVuSans-Bold-80"/>
       <path d="M 9.1875 72.90625 
L 27.984375 72.90625 
L 27.984375 14.203125 
L 60.984375 14.203125 
L 60.984375 0 
L 9.1875 0 
z
" id="DejaVuSans-Bold-76"/>
       <path d="M 9.1875 72.90625 
L 30.171875 72.90625 
L 56.6875 22.90625 
L 56.6875 72.90625 
L 74.515625 72.90625 
L 74.515625 0 
L 53.515625 0 
L 27 50 
L 27 0 
L 9.1875 0 
z
" id="DejaVuSans-Bold-78"/>
      </defs>
      <g transform="translate(150.635027 430.311282)scale(0.15 -0.15)">
       <use xlink:href="#DejaVuSans-Bold-82"/>
       <use x="77.001953" xlink:href="#DejaVuSans-Bold-80"/>
       <use x="150.292969" xlink:href="#DejaVuSans-Bold-76"/>
       <use x="214.013672" xlink:href="#DejaVuSans-Bold-78"/>
      </g>
     </g>
    </g>
    <g id="xtick_10">
     <g id="line2d_10">
      <path clip-path="url(#p555e457603)" d="M 281.454545 465.66 
L 180 465.66 
" style="fill:none;stroke:#b0b0b0;stroke-linecap:square;stroke-width:0.8;"/>
     </g>
     <g id="text_10">
      <!-- 5B+ -->
      <defs>
       <path d="M 47.703125 62.703125 
L 47.703125 37.109375 
L 73.1875 37.109375 
L 73.1875 25.59375 
L 47.703125 25.59375 
L 47.703125 0 
L 36.078125 0 
L 36.078125 25.59375 
L 10.59375 25.59375 
L 10.59375 37.109375 
L 36.078125 37.109375 
L 36.078125 62.703125 
z
" id="DejaVuSans-Bold-43"/>
      </defs>
      <g transform="translate(148.780469 469.799063)scale(0.15 -0.15)">
       <use xlink:href="#DejaVuSans-Bold-53"/>
       <use x="69.580078" xlink:href="#DejaVuSans-Bold-66"/>
       <use x="145.800781" xlink:href="#DejaVuSans-Bold-43"/>
      </g>
     </g>
    </g>
    <g id="xtick_11">
     <g id="line2d_11">
      <path clip-path="url(#p555e457603)" d="M 281.454545 465.66 
L 186.118458 500.359498 
" style="fill:none;stroke:#b0b0b0;stroke-linecap:square;stroke-width:0.8;"/>
     </g>
     <g id="text_11">
      <!-- 5A+ -->
      <g transform="translate(155.655339 509.286843)scale(0.15 -0.15)">
       <use xlink:href="#DejaVuSans-Bold-53"/>
       <use x="69.580078" xlink:href="#DejaVuSans-Bold-65"/>
       <use x="146.972656" xlink:href="#DejaVuSans-Bold-43"/>
      </g>
     </g>
    </g>
    <g id="xtick_12">
     <g id="line2d_12">
      <path clip-path="url(#p555e457603)" d="M 281.454545 465.66 
L 203.735855 530.873725 
" style="fill:none;stroke:#b0b0b0;stroke-linecap:square;stroke-width:0.8;"/>
     </g>
     <g id="text_12">
      <!-- 4+ -->
      <g transform="translate(181.508107 544.011814)scale(0.15 -0.15)">
       <use xlink:href="#DejaVuSans-Bold-52"/>
       <use x="69.580078" xlink:href="#DejaVuSans-Bold-43"/>
      </g>
     </g>
    </g>
    <g id="xtick_13">
     <g id="line2d_13">
      <path clip-path="url(#p555e457603)" d="M 281.454545 465.66 
L 230.727273 553.522214 
" style="fill:none;stroke:#b0b0b0;stroke-linecap:square;stroke-width:0.8;"/>
     </g>
     <g id="text_13">
      <!-- 3+ -->
      <g transform="translate(212.224148 569.785632)scale(0.15 -0.15)">
       <use xlink:href="#DejaVuSans-Bold-51"/>
       <use x="69.580078" xlink:href="#DejaVuSans-Bold-43"/>
      </g>
     </g>
    </g>
    <g id="xtick_14">
     <g id="line2d_14">
      <path clip-path="url(#p555e457603)" d="M 281.454545 465.66 
L 263.837149 565.573223 
" style="fill:none;stroke:#b0b0b0;stroke-linecap:square;stroke-width:0.8;"/>
     </g>
     <g id="text_14">
      <!-- 2B+ -->
      <g transform="translate(244.186543 583.499594)scale(0.15 -0.15)">
       <use xlink:href="#DejaVuSans-Bold-50"/>
       <use x="69.580078" xlink:href="#DejaVuSans-Bold-66"/>
       <use x="145.800781" xlink:href="#DejaVuSans-Bold-43"/>
      </g>
     </g>
    </g>
    <g id="xtick_15">
     <g id="line2d_15">
      <path clip-path="url(#p555e457603)" d="M 281.454545 465.66 
L 299.071942 565.573223 
" style="fill:none;stroke:#b0b0b0;stroke-linecap:square;stroke-width:0.8;"/>
     </g>
     <g id="text_15">
      <!-- 2A+ -->
      <g transform="translate(284.195595 583.499594)scale(0.15 -0.15)">
       <use xlink:href="#DejaVuSans-Bold-50"/>
       <use x="69.580078" xlink:href="#DejaVuSans-Bold-65"/>
       <use x="146.972656" xlink:href="#DejaVuSans-Bold-43"/>
      </g>
     </g>
    </g>
    <g id="xtick_16">
     <g id="line2d_16">
      <path clip-path="url(#p555e457603)" d="M 281.454545 465.66 
L 332.181818 553.522214 
" style="fill:none;stroke:#b0b0b0;stroke-linecap:square;stroke-width:0.8;"/>
     </g>
     <g id="text_16">
      <!-- 1B+ -->
      <g transform="translate(321.962287 569.785632)scale(0.15 -0.15)">
       <use xlink:href="#DejaVuSans-Bold-49"/>
       <use x="69.580078" xlink:href="#DejaVuSans-Bold-66"/>
       <use x="145.800781" xlink:href="#DejaVuSans-Bold-43"/>
      </g>
     </g>
    </g>
    <g id="xtick_17">
     <g id="line2d_17">
      <path clip-path="url(#p555e457603)" d="M 281.454545 465.66 
L 359.173236 530.873725 
" style="fill:none;stroke:#b0b0b0;stroke-linecap:square;stroke-width:0.8;"/>
     </g>
     <g id="text_17">
      <!-- 1A+ -->
      <g transform="translate(352.590437 544.011814)scale(0.15 -0.15)">
       <use xlink:href="#DejaVuSans-Bold-49"/>
       <use x="69.580078" xlink:href="#DejaVuSans-Bold-65"/>
       <use x="146.972656" xlink:href="#DejaVuSans-Bold-43"/>
      </g>
     </g>
    </g>
    <g id="xtick_18">
     <g id="line2d_18">
      <path clip-path="url(#p555e457603)" d="M 281.454545 465.66 
L 376.790633 500.359498 
" style="fill:none;stroke:#b0b0b0;stroke-linecap:square;stroke-width:0.8;"/>
     </g>
     <g id="text_18">
      <!-- RPLN+ -->
      <g transform="translate(361.33383 509.286843)scale(0.15 -0.15)">
       <use xlink:href="#DejaVuSans-Bold-82"/>
       <use x="77.001953" xlink:href="#DejaVuSans-Bold-80"/>
       <use x="150.292969" xlink:href="#DejaVuSans-Bold-76"/>
       <use x="214.013672" xlink:href="#DejaVuSans-Bold-78"/>
       <use x="297.705078" xlink:href="#DejaVuSans-Bold-43"/>
      </g>
     </g>
    </g>
   </g>
   <g id="matplotlib.axis_2"/>
   <g id="line2d_19">
    <path clip-path="url(#p555e457603)" d="M 288.106373 465.66 
L 290.294332 462.442581 
L 302.770951 447.773412 
L 313.268784 410.556122 
L 298.233019 370.50455 
L 264.676072 370.50455 
L 272.975096 450.973162 
L 276.35895 461.384288 
L 255.682359 456.279691 
L 281.454545 465.66 
" style="fill:none;stroke:#fc9272;stroke-linecap:square;stroke-width:1.5;"/>
   </g>
   <g id="line2d_20">
    <path clip-path="url(#p555e457603)" d="M 281.454545 465.66 
L 281.454545 465.66 
L 277.851415 468.683385 
L 281.454545 465.66 
L 281.454545 465.66 
L 281.454545 465.66 
L 281.454545 465.66 
L 281.454545 465.66 
L 281.454545 465.66 
L 288.106373 465.66 
" style="fill:none;stroke:#de2d26;stroke-linecap:square;stroke-width:1.5;"/>
   </g>
   <g id="patch_5">
    <path d="M 382.909091 465.66 
C 382.909091 452.337111 380.284772 439.143771 375.186323 426.835026 
C 370.087875 414.526282 362.614448 403.341508 353.193743 393.920803 
C 343.773037 384.500098 332.588263 377.026671 320.279519 371.928222 
C 307.970775 366.829773 294.777434 364.205455 281.454545 364.205455 
C 268.131657 364.205455 254.938316 366.829773 242.629572 371.928222 
C 230.320827 377.026671 219.136053 384.500098 209.715348 393.920803 
C 200.294643 403.341508 192.821216 414.526282 187.722767 426.835026 
C 182.624319 439.143771 180 452.337111 180 465.66 
C 180 478.982889 182.624319 492.176229 187.722767 504.484974 
C 192.821216 516.793718 200.294643 527.978492 209.715348 537.399197 
C 219.136053 546.819902 230.320827 554.293329 242.629572 559.391778 
C 254.938316 564.490227 268.131657 567.114545 281.454545 567.114545 
C 294.777434 567.114545 307.970775 564.490227 320.279519 559.391778 
C 332.588263 554.293329 343.773037 546.819902 353.193743 537.399197 
C 362.614448 527.978492 370.087875 516.793718 375.186323 504.484974 
C 380.284772 492.176229 382.909091 478.982889 382.909091 465.66 
" style="fill:none;stroke:#000000;stroke-linecap:square;stroke-linejoin:miter;stroke-width:0.8;"/>
   </g>
  </g>
  <g id="axes_2">
   <g id="patch_6">
    <path d="M 687.272727 465.66 
C 687.272727 452.337111 684.648409 439.143771 679.54996 426.835026 
C 674.451511 414.526282 666.978084 403.341508 657.557379 393.920803 
C 648.136674 384.500098 636.9519 377.026671 624.643156 371.928222 
C 612.334411 366.829773 599.141071 364.205455 585.818182 364.205455 
C 572.495293 364.205455 559.301952 366.829773 546.993208 371.928222 
C 534.684464 377.026671 523.49969 384.500098 514.078985 393.920803 
C 504.65828 403.341508 497.184853 414.526282 492.086404 426.835026 
C 486.987955 439.143771 484.363636 452.337111 484.363636 465.66 
C 484.363636 478.982889 486.987955 492.176229 492.086404 504.484974 
C 497.184853 516.793718 504.65828 527.978492 514.078985 537.399197 
C 523.49969 546.819902 534.684464 554.293329 546.993208 559.391778 
C 559.301952 564.490227 572.495293 567.114545 585.818182 567.114545 
C 599.141071 567.114545 612.334411 564.490227 624.643156 559.391778 
C 636.9519 554.293329 648.136674 546.819902 657.557379 537.399197 
C 666.978084 527.978492 674.451511 516.793718 679.54996 504.484974 
C 684.648409 492.176229 687.272727 478.982889 687.272727 465.66 
M 585.818182 465.66 
C 585.818182 465.66 585.818182 465.66 585.818182 465.66 
C 585.818182 465.66 585.818182 465.66 585.818182 465.66 
C 585.818182 465.66 585.818182 465.66 585.818182 465.66 
C 585.818182 465.66 585.818182 465.66 585.818182 465.66 
C 585.818182 465.66 585.818182 465.66 585.818182 465.66 
C 585.818182 465.66 585.818182 465.66 585.818182 465.66 
C 585.818182 465.66 585.818182 465.66 585.818182 465.66 
C 585.818182 465.66 585.818182 465.66 585.818182 465.66 
C 585.818182 465.66 585.818182 465.66 585.818182 465.66 
C 585.818182 465.66 585.818182 465.66 585.818182 465.66 
C 585.818182 465.66 585.818182 465.66 585.818182 465.66 
C 585.818182 465.66 585.818182 465.66 585.818182 465.66 
C 585.818182 465.66 585.818182 465.66 585.818182 465.66 
C 585.818182 465.66 585.818182 465.66 585.818182 465.66 
C 585.818182 465.66 585.818182 465.66 585.818182 465.66 
C 585.818182 465.66 585.818182 465.66 585.818182 465.66 
M 687.272727 465.66 
z
" style="fill:#ffffff;"/>
   </g>
   <g id="patch_7">
    <path clip-path="url(#p6fb3471b2a)" d="M 600.727493 465.66 
L 595.724867 462.054261 
L 608.660571 446.49296 
L 617.003243 411.64589 
L 585.818182 465.66 
L 585.818182 465.66 
L 571.871799 441.504156 
L 585.818182 465.66 
L 552.961423 453.701118 
L 585.818182 465.66 
z
" style="fill:#fc9272;opacity:0.9;"/>
   </g>
   <g id="patch_8">
    <path clip-path="url(#p6fb3471b2a)" d="M 585.818182 465.66 
L 575.911496 469.265739 
L 585.818182 465.66 
L 585.818182 465.66 
L 569.039709 560.81545 
L 602.596655 560.81545 
L 593.272837 478.571842 
L 585.818182 465.66 
L 585.818182 465.66 
L 600.727493 465.66 
z
" style="fill:#de2d26;opacity:0.9;"/>
   </g>
   <g id="matplotlib.axis_3">
    <g id="xtick_19">
     <g id="line2d_21">
      <path clip-path="url(#p6fb3471b2a)" d="M 585.818182 465.66 
L 687.272727 465.66 
" style="fill:none;stroke:#b0b0b0;stroke-linecap:square;stroke-width:0.8;"/>
     </g>
     <g id="text_19">
      <!-- 5B -->
      <g transform="translate(690.337962 469.799063)scale(0.15 -0.15)">
       <use xlink:href="#DejaVuSans-Bold-53"/>
       <use x="69.580078" xlink:href="#DejaVuSans-Bold-66"/>
      </g>
     </g>
    </g>
    <g id="xtick_20">
     <g id="line2d_22">
      <path clip-path="url(#p6fb3471b2a)" d="M 585.818182 465.66 
L 681.15427 430.960502 
" style="fill:none;stroke:#b0b0b0;stroke-linecap:square;stroke-width:0.8;"/>
     </g>
     <g id="text_20">
      <!-- 5A -->
      <g transform="translate(683.28731 430.311282)scale(0.15 -0.15)">
       <use xlink:href="#DejaVuSans-Bold-53"/>
       <use x="69.580078" xlink:href="#DejaVuSans-Bold-65"/>
      </g>
     </g>
    </g>
    <g id="xtick_21">
     <g id="line2d_23">
      <path clip-path="url(#p6fb3471b2a)" d="M 585.818182 465.66 
L 663.536873 400.446275 
" style="fill:none;stroke:#b0b0b0;stroke-linecap:square;stroke-width:0.8;"/>
     </g>
     <g id="text_21">
      <!-- 4 -->
      <g transform="translate(669.043135 395.586311)scale(0.15 -0.15)">
       <use xlink:href="#DejaVuSans-Bold-52"/>
      </g>
     </g>
    </g>
    <g id="xtick_22">
     <g id="line2d_24">
      <path clip-path="url(#p6fb3471b2a)" d="M 585.818182 465.66 
L 636.545455 377.797786 
" style="fill:none;stroke:#b0b0b0;stroke-linecap:square;stroke-width:0.8;"/>
     </g>
     <g id="text_22">
      <!-- 3 -->
      <g transform="translate(638.327095 369.812493)scale(0.15 -0.15)">
       <use xlink:href="#DejaVuSans-Bold-51"/>
      </g>
     </g>
    </g>
    <g id="xtick_23">
     <g id="line2d_25">
      <path clip-path="url(#p6fb3471b2a)" d="M 585.818182 465.66 
L 603.435579 365.746777 
" style="fill:none;stroke:#b0b0b0;stroke-linecap:square;stroke-width:0.8;"/>
     </g>
     <g id="text_23">
      <!-- 2B -->
      <g transform="translate(594.931888 356.098531)scale(0.15 -0.15)">
       <use xlink:href="#DejaVuSans-Bold-50"/>
       <use x="69.580078" xlink:href="#DejaVuSans-Bold-66"/>
      </g>
     </g>
    </g>
    <g id="xtick_24">
     <g id="line2d_26">
      <path clip-path="url(#p6fb3471b2a)" d="M 585.818182 465.66 
L 568.200785 365.746777 
" style="fill:none;stroke:#b0b0b0;stroke-linecap:square;stroke-width:0.8;"/>
     </g>
     <g id="text_24">
      <!-- 2A -->
      <g transform="translate(554.747054 356.098531)scale(0.15 -0.15)">
       <use xlink:href="#DejaVuSans-Bold-50"/>
       <use x="69.580078" xlink:href="#DejaVuSans-Bold-65"/>
      </g>
     </g>
    </g>
    <g id="xtick_25">
     <g id="line2d_27">
      <path clip-path="url(#p6fb3471b2a)" d="M 585.818182 465.66 
L 535.090909 377.797786 
" style="fill:none;stroke:#b0b0b0;stroke-linecap:square;stroke-width:0.8;"/>
     </g>
     <g id="text_25">
      <!-- 1B -->
      <g transform="translate(517.156143 369.812493)scale(0.15 -0.15)">
       <use xlink:href="#DejaVuSans-Bold-49"/>
       <use x="69.580078" xlink:href="#DejaVuSans-Bold-66"/>
      </g>
     </g>
    </g>
    <g id="xtick_26">
     <g id="line2d_28">
      <path clip-path="url(#p6fb3471b2a)" d="M 585.818182 465.66 
L 508.099491 400.446275 
" style="fill:none;stroke:#b0b0b0;stroke-linecap:square;stroke-width:0.8;"/>
     </g>
     <g id="text_26">
      <!-- 1A -->
      <g transform="translate(486.352213 395.586311)scale(0.15 -0.15)">
       <use xlink:href="#DejaVuSans-Bold-49"/>
       <use x="69.580078" xlink:href="#DejaVuSans-Bold-65"/>
      </g>
     </g>
    </g>
    <g id="xtick_27">
     <g id="line2d_29">
      <path clip-path="url(#p6fb3471b2a)" d="M 585.818182 465.66 
L 490.482094 430.960502 
" style="fill:none;stroke:#b0b0b0;stroke-linecap:square;stroke-width:0.8;"/>
     </g>
     <g id="text_27">
      <!-- RPLN -->
      <g transform="translate(454.998663 430.311282)scale(0.15 -0.15)">
       <use xlink:href="#DejaVuSans-Bold-82"/>
       <use x="77.001953" xlink:href="#DejaVuSans-Bold-80"/>
       <use x="150.292969" xlink:href="#DejaVuSans-Bold-76"/>
       <use x="214.013672" xlink:href="#DejaVuSans-Bold-78"/>
      </g>
     </g>
    </g>
    <g id="xtick_28">
     <g id="line2d_30">
      <path clip-path="url(#p6fb3471b2a)" d="M 585.818182 465.66 
L 484.363636 465.66 
" style="fill:none;stroke:#b0b0b0;stroke-linecap:square;stroke-width:0.8;"/>
     </g>
     <g id="text_28">
      <!-- 5B+ -->
      <g transform="translate(453.144105 469.799063)scale(0.15 -0.15)">
       <use xlink:href="#DejaVuSans-Bold-53"/>
       <use x="69.580078" xlink:href="#DejaVuSans-Bold-66"/>
       <use x="145.800781" xlink:href="#DejaVuSans-Bold-43"/>
      </g>
     </g>
    </g>
    <g id="xtick_29">
     <g id="line2d_31">
      <path clip-path="url(#p6fb3471b2a)" d="M 585.818182 465.66 
L 490.482094 500.359498 
" style="fill:none;stroke:#b0b0b0;stroke-linecap:square;stroke-width:0.8;"/>
     </g>
     <g id="text_29">
      <!-- 5A+ -->
      <g transform="translate(460.018976 509.286843)scale(0.15 -0.15)">
       <use xlink:href="#DejaVuSans-Bold-53"/>
       <use x="69.580078" xlink:href="#DejaVuSans-Bold-65"/>
       <use x="146.972656" xlink:href="#DejaVuSans-Bold-43"/>
      </g>
     </g>
    </g>
    <g id="xtick_30">
     <g id="line2d_32">
      <path clip-path="url(#p6fb3471b2a)" d="M 585.818182 465.66 
L 508.099491 530.873725 
" style="fill:none;stroke:#b0b0b0;stroke-linecap:square;stroke-width:0.8;"/>
     </g>
     <g id="text_30">
      <!-- 4+ -->
      <g transform="translate(485.871744 544.011814)scale(0.15 -0.15)">
       <use xlink:href="#DejaVuSans-Bold-52"/>
       <use x="69.580078" xlink:href="#DejaVuSans-Bold-43"/>
      </g>
     </g>
    </g>
    <g id="xtick_31">
     <g id="line2d_33">
      <path clip-path="url(#p6fb3471b2a)" d="M 585.818182 465.66 
L 535.090909 553.522214 
" style="fill:none;stroke:#b0b0b0;stroke-linecap:square;stroke-width:0.8;"/>
     </g>
     <g id="text_31">
      <!-- 3+ -->
      <g transform="translate(516.587784 569.785632)scale(0.15 -0.15)">
       <use xlink:href="#DejaVuSans-Bold-51"/>
       <use x="69.580078" xlink:href="#DejaVuSans-Bold-43"/>
      </g>
     </g>
    </g>
    <g id="xtick_32">
     <g id="line2d_34">
      <path clip-path="url(#p6fb3471b2a)" d="M 585.818182 465.66 
L 568.200785 565.573223 
" style="fill:none;stroke:#b0b0b0;stroke-linecap:square;stroke-width:0.8;"/>
     </g>
     <g id="text_32">
      <!-- 2B+ -->
      <g transform="translate(548.550179 583.499594)scale(0.15 -0.15)">
       <use xlink:href="#DejaVuSans-Bold-50"/>
       <use x="69.580078" xlink:href="#DejaVuSans-Bold-66"/>
       <use x="145.800781" xlink:href="#DejaVuSans-Bold-43"/>
      </g>
     </g>
    </g>
    <g id="xtick_33">
     <g id="line2d_35">
      <path clip-path="url(#p6fb3471b2a)" d="M 585.818182 465.66 
L 603.435579 565.573223 
" style="fill:none;stroke:#b0b0b0;stroke-linecap:square;stroke-width:0.8;"/>
     </g>
     <g id="text_33">
      <!-- 2A+ -->
      <g transform="translate(588.559231 583.499594)scale(0.15 -0.15)">
       <use xlink:href="#DejaVuSans-Bold-50"/>
       <use x="69.580078" xlink:href="#DejaVuSans-Bold-65"/>
       <use x="146.972656" xlink:href="#DejaVuSans-Bold-43"/>
      </g>
     </g>
    </g>
    <g id="xtick_34">
     <g id="line2d_36">
      <path clip-path="url(#p6fb3471b2a)" d="M 585.818182 465.66 
L 636.545455 553.522214 
" style="fill:none;stroke:#b0b0b0;stroke-linecap:square;stroke-width:0.8;"/>
     </g>
     <g id="text_34">
      <!-- 1B+ -->
      <g transform="translate(626.325923 569.785632)scale(0.15 -0.15)">
       <use xlink:href="#DejaVuSans-Bold-49"/>
       <use x="69.580078" xlink:href="#DejaVuSans-Bold-66"/>
       <use x="145.800781" xlink:href="#DejaVuSans-Bold-43"/>
      </g>
     </g>
    </g>
    <g id="xtick_35">
     <g id="line2d_37">
      <path clip-path="url(#p6fb3471b2a)" d="M 585.818182 465.66 
L 663.536873 530.873725 
" style="fill:none;stroke:#b0b0b0;stroke-linecap:square;stroke-width:0.8;"/>
     </g>
     <g id="text_35">
      <!-- 1A+ -->
      <g transform="translate(656.954073 544.011814)scale(0.15 -0.15)">
       <use xlink:href="#DejaVuSans-Bold-49"/>
       <use x="69.580078" xlink:href="#DejaVuSans-Bold-65"/>
       <use x="146.972656" xlink:href="#DejaVuSans-Bold-43"/>
      </g>
     </g>
    </g>
    <g id="xtick_36">
     <g id="line2d_38">
      <path clip-path="url(#p6fb3471b2a)" d="M 585.818182 465.66 
L 681.15427 500.359498 
" style="fill:none;stroke:#b0b0b0;stroke-linecap:square;stroke-width:0.8;"/>
     </g>
     <g id="text_36">
      <!-- RPLN+ -->
      <g transform="translate(665.697466 509.286843)scale(0.15 -0.15)">
       <use xlink:href="#DejaVuSans-Bold-82"/>
       <use x="77.001953" xlink:href="#DejaVuSans-Bold-80"/>
       <use x="150.292969" xlink:href="#DejaVuSans-Bold-76"/>
       <use x="214.013672" xlink:href="#DejaVuSans-Bold-78"/>
       <use x="297.705078" xlink:href="#DejaVuSans-Bold-43"/>
      </g>
     </g>
    </g>
   </g>
   <g id="matplotlib.axis_4"/>
   <g id="line2d_39">
    <path clip-path="url(#p6fb3471b2a)" d="M 600.727493 465.66 
L 595.724867 462.054261 
L 608.660571 446.49296 
L 617.003243 411.64589 
L 585.818182 465.66 
L 585.818182 465.66 
L 571.871799 441.504156 
L 585.818182 465.66 
L 552.961423 453.701118 
L 585.818182 465.66 
" style="fill:none;stroke:#fc9272;stroke-linecap:square;stroke-width:1.5;"/>
   </g>
   <g id="line2d_40">
    <path clip-path="url(#p6fb3471b2a)" d="M 585.818182 465.66 
L 575.911496 469.265739 
L 585.818182 465.66 
L 585.818182 465.66 
L 569.039709 560.81545 
L 602.596655 560.81545 
L 593.272837 478.571842 
L 585.818182 465.66 
L 585.818182 465.66 
L 600.727493 465.66 
" style="fill:none;stroke:#de2d26;stroke-linecap:square;stroke-width:1.5;"/>
   </g>
   <g id="patch_9">
    <path d="M 687.272727 465.66 
C 687.272727 452.337111 684.648409 439.143771 679.54996 426.835026 
C 674.451511 414.526282 666.978084 403.341508 657.557379 393.920803 
C 648.136674 384.500098 636.9519 377.026671 624.643156 371.928222 
C 612.334411 366.829773 599.141071 364.205455 585.818182 364.205455 
C 572.495293 364.205455 559.301952 366.829773 546.993208 371.928222 
C 534.684464 377.026671 523.49969 384.500098 514.078985 393.920803 
C 504.65828 403.341508 497.184853 414.526282 492.086404 426.835026 
C 486.987955 439.143771 484.363636 452.337111 484.363636 465.66 
C 484.363636 478.982889 486.987955 492.176229 492.086404 504.484974 
C 497.184853 516.793718 504.65828 527.978492 514.078985 537.399197 
C 523.49969 546.819902 534.684464 554.293329 546.993208 559.391778 
C 559.301952 564.490227 572.495293 567.114545 585.818182 567.114545 
C 599.141071 567.114545 612.334411 564.490227 624.643156 559.391778 
C 636.9519 554.293329 648.136674 546.819902 657.557379 537.399197 
C 666.978084 527.978492 674.451511 516.793718 679.54996 504.484974 
C 684.648409 492.176229 687.272727 478.982889 687.272727 465.66 
" style="fill:none;stroke:#000000;stroke-linecap:square;stroke-linejoin:miter;stroke-width:0.8;"/>
   </g>
  </g>
  <g id="axes_3">
   <g id="patch_10">
    <path d="M 991.636364 465.66 
C 991.636364 452.337111 989.012045 439.143771 983.913596 426.835026 
C 978.815147 414.526282 971.34172 403.341508 961.921015 393.920803 
C 952.50031 384.500098 941.315536 377.026671 929.006792 371.928222 
C 916.698048 366.829773 903.504707 364.205455 890.181818 364.205455 
C 876.858929 364.205455 863.665589 366.829773 851.356844 371.928222 
C 839.0481 377.026671 827.863326 384.500098 818.442621 393.920803 
C 809.021916 403.341508 801.548489 414.526282 796.45004 426.835026 
C 791.351591 439.143771 788.727273 452.337111 788.727273 465.66 
C 788.727273 478.982889 791.351591 492.176229 796.45004 504.484974 
C 801.548489 516.793718 809.021916 527.978492 818.442621 537.399197 
C 827.863326 546.819902 839.0481 554.293329 851.356844 559.391778 
C 863.665589 564.490227 876.858929 567.114545 890.181818 567.114545 
C 903.504707 567.114545 916.698048 564.490227 929.006792 559.391778 
C 941.315536 554.293329 952.50031 546.819902 961.921015 537.399197 
C 971.34172 527.978492 978.815147 516.793718 983.913596 504.484974 
C 989.012045 492.176229 991.636364 478.982889 991.636364 465.66 
M 890.181818 465.66 
C 890.181818 465.66 890.181818 465.66 890.181818 465.66 
C 890.181818 465.66 890.181818 465.66 890.181818 465.66 
C 890.181818 465.66 890.181818 465.66 890.181818 465.66 
C 890.181818 465.66 890.181818 465.66 890.181818 465.66 
C 890.181818 465.66 890.181818 465.66 890.181818 465.66 
C 890.181818 465.66 890.181818 465.66 890.181818 465.66 
C 890.181818 465.66 890.181818 465.66 890.181818 465.66 
C 890.181818 465.66 890.181818 465.66 890.181818 465.66 
C 890.181818 465.66 890.181818 465.66 890.181818 465.66 
C 890.181818 465.66 890.181818 465.66 890.181818 465.66 
C 890.181818 465.66 890.181818 465.66 890.181818 465.66 
C 890.181818 465.66 890.181818 465.66 890.181818 465.66 
C 890.181818 465.66 890.181818 465.66 890.181818 465.66 
C 890.181818 465.66 890.181818 465.66 890.181818 465.66 
C 890.181818 465.66 890.181818 465.66 890.181818 465.66 
C 890.181818 465.66 890.181818 465.66 890.181818 465.66 
M 991.636364 465.66 
z
" style="fill:#ffffff;"/>
   </g>
   <g id="patch_11">
    <path clip-path="url(#p4c14eb6c2f)" d="M 919.314862 465.66 
L 928.89748 451.568652 
L 937.523763 425.935392 
L 928.721213 398.90781 
L 906.960291 370.50455 
L 873.403345 370.50455 
L 856.020296 406.490508 
L 874.40117 452.418464 
L 870.823988 458.614326 
L 890.181818 465.66 
z
" style="fill:#fc9272;opacity:0.9;"/>
   </g>
   <g id="patch_12">
    <path clip-path="url(#p4c14eb6c2f)" d="M 890.181818 465.66 
L 890.181818 465.66 
L 862.848934 488.595013 
L 859.281559 519.18082 
L 890.181818 465.66 
L 890.181818 465.66 
L 890.181818 465.66 
L 890.181818 465.66 
L 890.181818 465.66 
L 919.314862 465.66 
z
" style="fill:#de2d26;opacity:0.9;"/>
   </g>
   <g id="matplotlib.axis_5">
    <g id="xtick_37">
     <g id="line2d_41">
      <path clip-path="url(#p4c14eb6c2f)" d="M 890.181818 465.66 
L 991.636364 465.66 
" style="fill:none;stroke:#b0b0b0;stroke-linecap:square;stroke-width:0.8;"/>
     </g>
     <g id="text_37">
      <!-- 5B -->
      <g transform="translate(994.701598 469.799063)scale(0.15 -0.15)">
       <use xlink:href="#DejaVuSans-Bold-53"/>
       <use x="69.580078" xlink:href="#DejaVuSans-Bold-66"/>
      </g>
     </g>
    </g>
    <g id="xtick_38">
     <g id="line2d_42">
      <path clip-path="url(#p4c14eb6c2f)" d="M 890.181818 465.66 
L 985.517906 430.960502 
" style="fill:none;stroke:#b0b0b0;stroke-linecap:square;stroke-width:0.8;"/>
     </g>
     <g id="text_38">
      <!-- 5A -->
      <g transform="translate(987.650946 430.311282)scale(0.15 -0.15)">
       <use xlink:href="#DejaVuSans-Bold-53"/>
       <use x="69.580078" xlink:href="#DejaVuSans-Bold-65"/>
      </g>
     </g>
    </g>
    <g id="xtick_39">
     <g id="line2d_43">
      <path clip-path="url(#p4c14eb6c2f)" d="M 890.181818 465.66 
L 967.900509 400.446275 
" style="fill:none;stroke:#b0b0b0;stroke-linecap:square;stroke-width:0.8;"/>
     </g>
     <g id="text_39">
      <!-- 4 -->
      <g transform="translate(973.406772 395.586311)scale(0.15 -0.15)">
       <use xlink:href="#DejaVuSans-Bold-52"/>
      </g>
     </g>
    </g>
    <g id="xtick_40">
     <g id="line2d_44">
      <path clip-path="url(#p4c14eb6c2f)" d="M 890.181818 465.66 
L 940.909091 377.797786 
" style="fill:none;stroke:#b0b0b0;stroke-linecap:square;stroke-width:0.8;"/>
     </g>
     <g id="text_40">
      <!-- 3 -->
      <g transform="translate(942.690732 369.812493)scale(0.15 -0.15)">
       <use xlink:href="#DejaVuSans-Bold-51"/>
      </g>
     </g>
    </g>
    <g id="xtick_41">
     <g id="line2d_45">
      <path clip-path="url(#p4c14eb6c2f)" d="M 890.181818 465.66 
L 907.799215 365.746777 
" style="fill:none;stroke:#b0b0b0;stroke-linecap:square;stroke-width:0.8;"/>
     </g>
     <g id="text_41">
      <!-- 2B -->
      <g transform="translate(899.295524 356.098531)scale(0.15 -0.15)">
       <use xlink:href="#DejaVuSans-Bold-50"/>
       <use x="69.580078" xlink:href="#DejaVuSans-Bold-66"/>
      </g>
     </g>
    </g>
    <g id="xtick_42">
     <g id="line2d_46">
      <path clip-path="url(#p4c14eb6c2f)" d="M 890.181818 465.66 
L 872.564421 365.746777 
" style="fill:none;stroke:#b0b0b0;stroke-linecap:square;stroke-width:0.8;"/>
     </g>
     <g id="text_42">
      <!-- 2A -->
      <g transform="translate(859.110691 356.098531)scale(0.15 -0.15)">
       <use xlink:href="#DejaVuSans-Bold-50"/>
       <use x="69.580078" xlink:href="#DejaVuSans-Bold-65"/>
      </g>
     </g>
    </g>
    <g id="xtick_43">
     <g id="line2d_47">
      <path clip-path="url(#p4c14eb6c2f)" d="M 890.181818 465.66 
L 839.454545 377.797786 
" style="fill:none;stroke:#b0b0b0;stroke-linecap:square;stroke-width:0.8;"/>
     </g>
     <g id="text_43">
      <!-- 1B -->
      <g transform="translate(821.51978 369.812493)scale(0.15 -0.15)">
       <use xlink:href="#DejaVuSans-Bold-49"/>
       <use x="69.580078" xlink:href="#DejaVuSans-Bold-66"/>
      </g>
     </g>
    </g>
    <g id="xtick_44">
     <g id="line2d_48">
      <path clip-path="url(#p4c14eb6c2f)" d="M 890.181818 465.66 
L 812.463127 400.446275 
" style="fill:none;stroke:#b0b0b0;stroke-linecap:square;stroke-width:0.8;"/>
     </g>
     <g id="text_44">
      <!-- 1A -->
      <g transform="translate(790.715849 395.586311)scale(0.15 -0.15)">
       <use xlink:href="#DejaVuSans-Bold-49"/>
       <use x="69.580078" xlink:href="#DejaVuSans-Bold-65"/>
      </g>
     </g>
    </g>
    <g id="xtick_45">
     <g id="line2d_49">
      <path clip-path="url(#p4c14eb6c2f)" d="M 890.181818 465.66 
L 794.84573 430.960502 
" style="fill:none;stroke:#b0b0b0;stroke-linecap:square;stroke-width:0.8;"/>
     </g>
     <g id="text_45">
      <!-- RPLN -->
      <g transform="translate(759.362299 430.311282)scale(0.15 -0.15)">
       <use xlink:href="#DejaVuSans-Bold-82"/>
       <use x="77.001953" xlink:href="#DejaVuSans-Bold-80"/>
       <use x="150.292969" xlink:href="#DejaVuSans-Bold-76"/>
       <use x="214.013672" xlink:href="#DejaVuSans-Bold-78"/>
      </g>
     </g>
    </g>
    <g id="xtick_46">
     <g id="line2d_50">
      <path clip-path="url(#p4c14eb6c2f)" d="M 890.181818 465.66 
L 788.727273 465.66 
" style="fill:none;stroke:#b0b0b0;stroke-linecap:square;stroke-width:0.8;"/>
     </g>
     <g id="text_46">
      <!-- 5B+ -->
      <g transform="translate(757.507741 469.799063)scale(0.15 -0.15)">
       <use xlink:href="#DejaVuSans-Bold-53"/>
       <use x="69.580078" xlink:href="#DejaVuSans-Bold-66"/>
       <use x="145.800781" xlink:href="#DejaVuSans-Bold-43"/>
      </g>
     </g>
    </g>
    <g id="xtick_47">
     <g id="line2d_51">
      <path clip-path="url(#p4c14eb6c2f)" d="M 890.181818 465.66 
L 794.84573 500.359498 
" style="fill:none;stroke:#b0b0b0;stroke-linecap:square;stroke-width:0.8;"/>
     </g>
     <g id="text_47">
      <!-- 5A+ -->
      <g transform="translate(764.382612 509.286843)scale(0.15 -0.15)">
       <use xlink:href="#DejaVuSans-Bold-53"/>
       <use x="69.580078" xlink:href="#DejaVuSans-Bold-65"/>
       <use x="146.972656" xlink:href="#DejaVuSans-Bold-43"/>
      </g>
     </g>
    </g>
    <g id="xtick_48">
     <g id="line2d_52">
      <path clip-path="url(#p4c14eb6c2f)" d="M 890.181818 465.66 
L 812.463127 530.873725 
" style="fill:none;stroke:#b0b0b0;stroke-linecap:square;stroke-width:0.8;"/>
     </g>
     <g id="text_48">
      <!-- 4+ -->
      <g transform="translate(790.23538 544.011814)scale(0.15 -0.15)">
       <use xlink:href="#DejaVuSans-Bold-52"/>
       <use x="69.580078" xlink:href="#DejaVuSans-Bold-43"/>
      </g>
     </g>
    </g>
    <g id="xtick_49">
     <g id="line2d_53">
      <path clip-path="url(#p4c14eb6c2f)" d="M 890.181818 465.66 
L 839.454545 553.522214 
" style="fill:none;stroke:#b0b0b0;stroke-linecap:square;stroke-width:0.8;"/>
     </g>
     <g id="text_49">
      <!-- 3+ -->
      <g transform="translate(820.95142 569.785632)scale(0.15 -0.15)">
       <use xlink:href="#DejaVuSans-Bold-51"/>
       <use x="69.580078" xlink:href="#DejaVuSans-Bold-43"/>
      </g>
     </g>
    </g>
    <g id="xtick_50">
     <g id="line2d_54">
      <path clip-path="url(#p4c14eb6c2f)" d="M 890.181818 465.66 
L 872.564421 565.573223 
" style="fill:none;stroke:#b0b0b0;stroke-linecap:square;stroke-width:0.8;"/>
     </g>
     <g id="text_50">
      <!-- 2B+ -->
      <g transform="translate(852.913816 583.499594)scale(0.15 -0.15)">
       <use xlink:href="#DejaVuSans-Bold-50"/>
       <use x="69.580078" xlink:href="#DejaVuSans-Bold-66"/>
       <use x="145.800781" xlink:href="#DejaVuSans-Bold-43"/>
      </g>
     </g>
    </g>
    <g id="xtick_51">
     <g id="line2d_55">
      <path clip-path="url(#p4c14eb6c2f)" d="M 890.181818 465.66 
L 907.799215 565.573223 
" style="fill:none;stroke:#b0b0b0;stroke-linecap:square;stroke-width:0.8;"/>
     </g>
     <g id="text_51">
      <!-- 2A+ -->
      <g transform="translate(892.922868 583.499594)scale(0.15 -0.15)">
       <use xlink:href="#DejaVuSans-Bold-50"/>
       <use x="69.580078" xlink:href="#DejaVuSans-Bold-65"/>
       <use x="146.972656" xlink:href="#DejaVuSans-Bold-43"/>
      </g>
     </g>
    </g>
    <g id="xtick_52">
     <g id="line2d_56">
      <path clip-path="url(#p4c14eb6c2f)" d="M 890.181818 465.66 
L 940.909091 553.522214 
" style="fill:none;stroke:#b0b0b0;stroke-linecap:square;stroke-width:0.8;"/>
     </g>
     <g id="text_52">
      <!-- 1B+ -->
      <g transform="translate(930.68956 569.785632)scale(0.15 -0.15)">
       <use xlink:href="#DejaVuSans-Bold-49"/>
       <use x="69.580078" xlink:href="#DejaVuSans-Bold-66"/>
       <use x="145.800781" xlink:href="#DejaVuSans-Bold-43"/>
      </g>
     </g>
    </g>
    <g id="xtick_53">
     <g id="line2d_57">
      <path clip-path="url(#p4c14eb6c2f)" d="M 890.181818 465.66 
L 967.900509 530.873725 
" style="fill:none;stroke:#b0b0b0;stroke-linecap:square;stroke-width:0.8;"/>
     </g>
     <g id="text_53">
      <!-- 1A+ -->
      <g transform="translate(961.317709 544.011814)scale(0.15 -0.15)">
       <use xlink:href="#DejaVuSans-Bold-49"/>
       <use x="69.580078" xlink:href="#DejaVuSans-Bold-65"/>
       <use x="146.972656" xlink:href="#DejaVuSans-Bold-43"/>
      </g>
     </g>
    </g>
    <g id="xtick_54">
     <g id="line2d_58">
      <path clip-path="url(#p4c14eb6c2f)" d="M 890.181818 465.66 
L 985.517906 500.359498 
" style="fill:none;stroke:#b0b0b0;stroke-linecap:square;stroke-width:0.8;"/>
     </g>
     <g id="text_54">
      <!-- RPLN+ -->
      <g transform="translate(970.061103 509.286843)scale(0.15 -0.15)">
       <use xlink:href="#DejaVuSans-Bold-82"/>
       <use x="77.001953" xlink:href="#DejaVuSans-Bold-80"/>
       <use x="150.292969" xlink:href="#DejaVuSans-Bold-76"/>
       <use x="214.013672" xlink:href="#DejaVuSans-Bold-78"/>
       <use x="297.705078" xlink:href="#DejaVuSans-Bold-43"/>
      </g>
     </g>
    </g>
   </g>
   <g id="matplotlib.axis_6"/>
   <g id="line2d_59">
    <path clip-path="url(#p4c14eb6c2f)" d="M 919.314862 465.66 
L 928.89748 451.568652 
L 937.523763 425.935392 
L 928.721213 398.90781 
L 906.960291 370.50455 
L 873.403345 370.50455 
L 856.020296 406.490508 
L 874.40117 452.418464 
L 870.823988 458.614326 
L 890.181818 465.66 
" style="fill:none;stroke:#fc9272;stroke-linecap:square;stroke-width:1.5;"/>
   </g>
   <g id="line2d_60">
    <path clip-path="url(#p4c14eb6c2f)" d="M 890.181818 465.66 
L 890.181818 465.66 
L 862.848934 488.595013 
L 859.281559 519.18082 
L 890.181818 465.66 
L 890.181818 465.66 
L 890.181818 465.66 
L 890.181818 465.66 
L 890.181818 465.66 
L 919.314862 465.66 
" style="fill:none;stroke:#de2d26;stroke-linecap:square;stroke-width:1.5;"/>
   </g>
   <g id="patch_13">
    <path d="M 991.636364 465.66 
C 991.636364 452.337111 989.012045 439.143771 983.913596 426.835026 
C 978.815147 414.526282 971.34172 403.341508 961.921015 393.920803 
C 952.50031 384.500098 941.315536 377.026671 929.006792 371.928222 
C 916.698048 366.829773 903.504707 364.205455 890.181818 364.205455 
C 876.858929 364.205455 863.665589 366.829773 851.356844 371.928222 
C 839.0481 377.026671 827.863326 384.500098 818.442621 393.920803 
C 809.021916 403.341508 801.548489 414.526282 796.45004 426.835026 
C 791.351591 439.143771 788.727273 452.337111 788.727273 465.66 
C 788.727273 478.982889 791.351591 492.176229 796.45004 504.484974 
C 801.548489 516.793718 809.021916 527.978492 818.442621 537.399197 
C 827.863326 546.819902 839.0481 554.293329 851.356844 559.391778 
C 863.665589 564.490227 876.858929 567.114545 890.181818 567.114545 
C 903.504707 567.114545 916.698048 564.490227 929.006792 559.391778 
C 941.315536 554.293329 952.50031 546.819902 961.921015 537.399197 
C 971.34172 527.978492 978.815147 516.793718 983.913596 504.484974 
C 989.012045 492.176229 991.636364 478.982889 991.636364 465.66 
" style="fill:none;stroke:#000000;stroke-linecap:square;stroke-linejoin:miter;stroke-width:0.8;"/>
   </g>
  </g>
  <g id="axes_4">
   <g id="patch_14">
    <path d="M 1296 465.66 
C 1296 452.337111 1293.375681 439.143771 1288.277233 426.835026 
C 1283.178784 414.526282 1275.705357 403.341508 1266.284652 393.920803 
C 1256.863947 384.500098 1245.679173 377.026671 1233.370428 371.928222 
C 1221.061684 366.829773 1207.868343 364.205455 1194.545455 364.205455 
C 1181.222566 364.205455 1168.029225 366.829773 1155.720481 371.928222 
C 1143.411737 377.026671 1132.226963 384.500098 1122.806257 393.920803 
C 1113.385552 403.341508 1105.912125 414.526282 1100.813677 426.835026 
C 1095.715228 439.143771 1093.090909 452.337111 1093.090909 465.66 
C 1093.090909 478.982889 1095.715228 492.176229 1100.813677 504.484974 
C 1105.912125 516.793718 1113.385552 527.978492 1122.806257 537.399197 
C 1132.226963 546.819902 1143.411737 554.293329 1155.720481 559.391778 
C 1168.029225 564.490227 1181.222566 567.114545 1194.545455 567.114545 
C 1207.868343 567.114545 1221.061684 564.490227 1233.370428 559.391778 
C 1245.679173 554.293329 1256.863947 546.819902 1266.284652 537.399197 
C 1275.705357 527.978492 1283.178784 516.793718 1288.277233 504.484974 
C 1293.375681 492.176229 1296 478.982889 1296 465.66 
M 1194.545455 465.66 
C 1194.545455 465.66 1194.545455 465.66 1194.545455 465.66 
C 1194.545455 465.66 1194.545455 465.66 1194.545455 465.66 
C 1194.545455 465.66 1194.545455 465.66 1194.545455 465.66 
C 1194.545455 465.66 1194.545455 465.66 1194.545455 465.66 
C 1194.545455 465.66 1194.545455 465.66 1194.545455 465.66 
C 1194.545455 465.66 1194.545455 465.66 1194.545455 465.66 
C 1194.545455 465.66 1194.545455 465.66 1194.545455 465.66 
C 1194.545455 465.66 1194.545455 465.66 1194.545455 465.66 
C 1194.545455 465.66 1194.545455 465.66 1194.545455 465.66 
C 1194.545455 465.66 1194.545455 465.66 1194.545455 465.66 
C 1194.545455 465.66 1194.545455 465.66 1194.545455 465.66 
C 1194.545455 465.66 1194.545455 465.66 1194.545455 465.66 
C 1194.545455 465.66 1194.545455 465.66 1194.545455 465.66 
C 1194.545455 465.66 1194.545455 465.66 1194.545455 465.66 
C 1194.545455 465.66 1194.545455 465.66 1194.545455 465.66 
C 1194.545455 465.66 1194.545455 465.66 1194.545455 465.66 
M 1296 465.66 
z
" style="fill:#ffffff;"/>
   </g>
   <g id="patch_15">
    <path clip-path="url(#p56fc981fe9)" d="M 1212.487965 465.66 
L 1223.748602 455.030924 
L 1222.034976 442.593553 
L 1203.51671 450.12133 
L 1194.545455 465.66 
L 1194.545455 465.66 
L 1179.006785 438.746234 
L 1175.107428 449.349559 
L 1156.844354 451.937922 
L 1176.602944 465.66 
z
" style="fill:#fc9272;opacity:0.9;"/>
   </g>
   <g id="patch_16">
    <path clip-path="url(#p56fc981fe9)" d="M 1176.602944 465.66 
L 1194.545455 465.66 
L 1163.811236 491.449072 
L 1147.074034 547.882913 
L 1177.766981 560.81545 
L 1211.323928 560.81545 
L 1203.51671 481.19867 
L 1194.545455 465.66 
L 1194.545455 465.66 
L 1212.487965 465.66 
z
" style="fill:#de2d26;opacity:0.9;"/>
   </g>
   <g id="matplotlib.axis_7">
    <g id="xtick_55">
     <g id="line2d_61">
      <path clip-path="url(#p56fc981fe9)" d="M 1194.545455 465.66 
L 1296 465.66 
" style="fill:none;stroke:#b0b0b0;stroke-linecap:square;stroke-width:0.8;"/>
     </g>
     <g id="text_55">
      <!-- 5B -->
      <g transform="translate(1299.065234 469.799063)scale(0.15 -0.15)">
       <use xlink:href="#DejaVuSans-Bold-53"/>
       <use x="69.580078" xlink:href="#DejaVuSans-Bold-66"/>
      </g>
     </g>
    </g>
    <g id="xtick_56">
     <g id="line2d_62">
      <path clip-path="url(#p56fc981fe9)" d="M 1194.545455 465.66 
L 1289.881542 430.960502 
" style="fill:none;stroke:#b0b0b0;stroke-linecap:square;stroke-width:0.8;"/>
     </g>
     <g id="text_56">
      <!-- 5A -->
      <g transform="translate(1292.014583 430.311282)scale(0.15 -0.15)">
       <use xlink:href="#DejaVuSans-Bold-53"/>
       <use x="69.580078" xlink:href="#DejaVuSans-Bold-65"/>
      </g>
     </g>
    </g>
    <g id="xtick_57">
     <g id="line2d_63">
      <path clip-path="url(#p56fc981fe9)" d="M 1194.545455 465.66 
L 1272.264145 400.446275 
" style="fill:none;stroke:#b0b0b0;stroke-linecap:square;stroke-width:0.8;"/>
     </g>
     <g id="text_57">
      <!-- 4 -->
      <g transform="translate(1277.770408 395.586311)scale(0.15 -0.15)">
       <use xlink:href="#DejaVuSans-Bold-52"/>
      </g>
     </g>
    </g>
    <g id="xtick_58">
     <g id="line2d_64">
      <path clip-path="url(#p56fc981fe9)" d="M 1194.545455 465.66 
L 1245.272727 377.797786 
" style="fill:none;stroke:#b0b0b0;stroke-linecap:square;stroke-width:0.8;"/>
     </g>
     <g id="text_58">
      <!-- 3 -->
      <g transform="translate(1247.054368 369.812493)scale(0.15 -0.15)">
       <use xlink:href="#DejaVuSans-Bold-51"/>
      </g>
     </g>
    </g>
    <g id="xtick_59">
     <g id="line2d_65">
      <path clip-path="url(#p56fc981fe9)" d="M 1194.545455 465.66 
L 1212.162851 365.746777 
" style="fill:none;stroke:#b0b0b0;stroke-linecap:square;stroke-width:0.8;"/>
     </g>
     <g id="text_59">
      <!-- 2B -->
      <g transform="translate(1203.65916 356.098531)scale(0.15 -0.15)">
       <use xlink:href="#DejaVuSans-Bold-50"/>
       <use x="69.580078" xlink:href="#DejaVuSans-Bold-66"/>
      </g>
     </g>
    </g>
    <g id="xtick_60">
     <g id="line2d_66">
      <path clip-path="url(#p56fc981fe9)" d="M 1194.545455 465.66 
L 1176.928058 365.746777 
" style="fill:none;stroke:#b0b0b0;stroke-linecap:square;stroke-width:0.8;"/>
     </g>
     <g id="text_60">
      <!-- 2A -->
      <g transform="translate(1163.474327 356.098531)scale(0.15 -0.15)">
       <use xlink:href="#DejaVuSans-Bold-50"/>
       <use x="69.580078" xlink:href="#DejaVuSans-Bold-65"/>
      </g>
     </g>
    </g>
    <g id="xtick_61">
     <g id="line2d_67">
      <path clip-path="url(#p56fc981fe9)" d="M 1194.545455 465.66 
L 1143.818182 377.797786 
" style="fill:none;stroke:#b0b0b0;stroke-linecap:square;stroke-width:0.8;"/>
     </g>
     <g id="text_61">
      <!-- 1B -->
      <g transform="translate(1125.883416 369.812493)scale(0.15 -0.15)">
       <use xlink:href="#DejaVuSans-Bold-49"/>
       <use x="69.580078" xlink:href="#DejaVuSans-Bold-66"/>
      </g>
     </g>
    </g>
    <g id="xtick_62">
     <g id="line2d_68">
      <path clip-path="url(#p56fc981fe9)" d="M 1194.545455 465.66 
L 1116.826764 400.446275 
" style="fill:none;stroke:#b0b0b0;stroke-linecap:square;stroke-width:0.8;"/>
     </g>
     <g id="text_62">
      <!-- 1A -->
      <g transform="translate(1095.079485 395.586311)scale(0.15 -0.15)">
       <use xlink:href="#DejaVuSans-Bold-49"/>
       <use x="69.580078" xlink:href="#DejaVuSans-Bold-65"/>
      </g>
     </g>
    </g>
    <g id="xtick_63">
     <g id="line2d_69">
      <path clip-path="url(#p56fc981fe9)" d="M 1194.545455 465.66 
L 1099.209367 430.960502 
" style="fill:none;stroke:#b0b0b0;stroke-linecap:square;stroke-width:0.8;"/>
     </g>
     <g id="text_63">
      <!-- RPLN -->
      <g transform="translate(1063.725936 430.311282)scale(0.15 -0.15)">
       <use xlink:href="#DejaVuSans-Bold-82"/>
       <use x="77.001953" xlink:href="#DejaVuSans-Bold-80"/>
       <use x="150.292969" xlink:href="#DejaVuSans-Bold-76"/>
       <use x="214.013672" xlink:href="#DejaVuSans-Bold-78"/>
      </g>
     </g>
    </g>
    <g id="xtick_64">
     <g id="line2d_70">
      <path clip-path="url(#p56fc981fe9)" d="M 1194.545455 465.66 
L 1093.090909 465.66 
" style="fill:none;stroke:#b0b0b0;stroke-linecap:square;stroke-width:0.8;"/>
     </g>
     <g id="text_64">
      <!-- 5B+ -->
      <g transform="translate(1061.871378 469.799063)scale(0.15 -0.15)">
       <use xlink:href="#DejaVuSans-Bold-53"/>
       <use x="69.580078" xlink:href="#DejaVuSans-Bold-66"/>
       <use x="145.800781" xlink:href="#DejaVuSans-Bold-43"/>
      </g>
     </g>
    </g>
    <g id="xtick_65">
     <g id="line2d_71">
      <path clip-path="url(#p56fc981fe9)" d="M 1194.545455 465.66 
L 1099.209367 500.359498 
" style="fill:none;stroke:#b0b0b0;stroke-linecap:square;stroke-width:0.8;"/>
     </g>
     <g id="text_65">
      <!-- 5A+ -->
      <g transform="translate(1068.746248 509.286843)scale(0.15 -0.15)">
       <use xlink:href="#DejaVuSans-Bold-53"/>
       <use x="69.580078" xlink:href="#DejaVuSans-Bold-65"/>
       <use x="146.972656" xlink:href="#DejaVuSans-Bold-43"/>
      </g>
     </g>
    </g>
    <g id="xtick_66">
     <g id="line2d_72">
      <path clip-path="url(#p56fc981fe9)" d="M 1194.545455 465.66 
L 1116.826764 530.873725 
" style="fill:none;stroke:#b0b0b0;stroke-linecap:square;stroke-width:0.8;"/>
     </g>
     <g id="text_66">
      <!-- 4+ -->
      <g transform="translate(1094.599017 544.011814)scale(0.15 -0.15)">
       <use xlink:href="#DejaVuSans-Bold-52"/>
       <use x="69.580078" xlink:href="#DejaVuSans-Bold-43"/>
      </g>
     </g>
    </g>
    <g id="xtick_67">
     <g id="line2d_73">
      <path clip-path="url(#p56fc981fe9)" d="M 1194.545455 465.66 
L 1143.818182 553.522214 
" style="fill:none;stroke:#b0b0b0;stroke-linecap:square;stroke-width:0.8;"/>
     </g>
     <g id="text_67">
      <!-- 3+ -->
      <g transform="translate(1125.315057 569.785632)scale(0.15 -0.15)">
       <use xlink:href="#DejaVuSans-Bold-51"/>
       <use x="69.580078" xlink:href="#DejaVuSans-Bold-43"/>
      </g>
     </g>
    </g>
    <g id="xtick_68">
     <g id="line2d_74">
      <path clip-path="url(#p56fc981fe9)" d="M 1194.545455 465.66 
L 1176.928058 565.573223 
" style="fill:none;stroke:#b0b0b0;stroke-linecap:square;stroke-width:0.8;"/>
     </g>
     <g id="text_68">
      <!-- 2B+ -->
      <g transform="translate(1157.277452 583.499594)scale(0.15 -0.15)">
       <use xlink:href="#DejaVuSans-Bold-50"/>
       <use x="69.580078" xlink:href="#DejaVuSans-Bold-66"/>
       <use x="145.800781" xlink:href="#DejaVuSans-Bold-43"/>
      </g>
     </g>
    </g>
    <g id="xtick_69">
     <g id="line2d_75">
      <path clip-path="url(#p56fc981fe9)" d="M 1194.545455 465.66 
L 1212.162851 565.573223 
" style="fill:none;stroke:#b0b0b0;stroke-linecap:square;stroke-width:0.8;"/>
     </g>
     <g id="text_69">
      <!-- 2A+ -->
      <g transform="translate(1197.286504 583.499594)scale(0.15 -0.15)">
       <use xlink:href="#DejaVuSans-Bold-50"/>
       <use x="69.580078" xlink:href="#DejaVuSans-Bold-65"/>
       <use x="146.972656" xlink:href="#DejaVuSans-Bold-43"/>
      </g>
     </g>
    </g>
    <g id="xtick_70">
     <g id="line2d_76">
      <path clip-path="url(#p56fc981fe9)" d="M 1194.545455 465.66 
L 1245.272727 553.522214 
" style="fill:none;stroke:#b0b0b0;stroke-linecap:square;stroke-width:0.8;"/>
     </g>
     <g id="text_70">
      <!-- 1B+ -->
      <g transform="translate(1235.053196 569.785632)scale(0.15 -0.15)">
       <use xlink:href="#DejaVuSans-Bold-49"/>
       <use x="69.580078" xlink:href="#DejaVuSans-Bold-66"/>
       <use x="145.800781" xlink:href="#DejaVuSans-Bold-43"/>
      </g>
     </g>
    </g>
    <g id="xtick_71">
     <g id="line2d_77">
      <path clip-path="url(#p56fc981fe9)" d="M 1194.545455 465.66 
L 1272.264145 530.873725 
" style="fill:none;stroke:#b0b0b0;stroke-linecap:square;stroke-width:0.8;"/>
     </g>
     <g id="text_71">
      <!-- 1A+ -->
      <g transform="translate(1265.681346 544.011814)scale(0.15 -0.15)">
       <use xlink:href="#DejaVuSans-Bold-49"/>
       <use x="69.580078" xlink:href="#DejaVuSans-Bold-65"/>
       <use x="146.972656" xlink:href="#DejaVuSans-Bold-43"/>
      </g>
     </g>
    </g>
    <g id="xtick_72">
     <g id="line2d_78">
      <path clip-path="url(#p56fc981fe9)" d="M 1194.545455 465.66 
L 1289.881542 500.359498 
" style="fill:none;stroke:#b0b0b0;stroke-linecap:square;stroke-width:0.8;"/>
     </g>
     <g id="text_72">
      <!-- RPLN+ -->
      <g transform="translate(1274.424739 509.286843)scale(0.15 -0.15)">
       <use xlink:href="#DejaVuSans-Bold-82"/>
       <use x="77.001953" xlink:href="#DejaVuSans-Bold-80"/>
       <use x="150.292969" xlink:href="#DejaVuSans-Bold-76"/>
       <use x="214.013672" xlink:href="#DejaVuSans-Bold-78"/>
       <use x="297.705078" xlink:href="#DejaVuSans-Bold-43"/>
      </g>
     </g>
    </g>
   </g>
   <g id="matplotlib.axis_8"/>
   <g id="line2d_79">
    <path clip-path="url(#p56fc981fe9)" d="M 1212.487965 465.66 
L 1223.748602 455.030924 
L 1222.034976 442.593553 
L 1203.51671 450.12133 
L 1194.545455 465.66 
L 1194.545455 465.66 
L 1179.006785 438.746234 
L 1175.107428 449.349559 
L 1156.844354 451.937922 
L 1176.602944 465.66 
" style="fill:none;stroke:#fc9272;stroke-linecap:square;stroke-width:1.5;"/>
   </g>
   <g id="line2d_80">
    <path clip-path="url(#p56fc981fe9)" d="M 1176.602944 465.66 
L 1194.545455 465.66 
L 1163.811236 491.449072 
L 1147.074034 547.882913 
L 1177.766981 560.81545 
L 1211.323928 560.81545 
L 1203.51671 481.19867 
L 1194.545455 465.66 
L 1194.545455 465.66 
L 1212.487965 465.66 
" style="fill:none;stroke:#de2d26;stroke-linecap:square;stroke-width:1.5;"/>
   </g>
   <g id="patch_17">
    <path d="M 1296 465.66 
C 1296 452.337111 1293.375681 439.143771 1288.277233 426.835026 
C 1283.178784 414.526282 1275.705357 403.341508 1266.284652 393.920803 
C 1256.863947 384.500098 1245.679173 377.026671 1233.370428 371.928222 
C 1221.061684 366.829773 1207.868343 364.205455 1194.545455 364.205455 
C 1181.222566 364.205455 1168.029225 366.829773 1155.720481 371.928222 
C 1143.411737 377.026671 1132.226963 384.500098 1122.806257 393.920803 
C 1113.385552 403.341508 1105.912125 414.526282 1100.813677 426.835026 
C 1095.715228 439.143771 1093.090909 452.337111 1093.090909 465.66 
C 1093.090909 478.982889 1095.715228 492.176229 1100.813677 504.484974 
C 1105.912125 516.793718 1113.385552 527.978492 1122.806257 537.399197 
C 1132.226963 546.819902 1143.411737 554.293329 1155.720481 559.391778 
C 1168.029225 564.490227 1181.222566 567.114545 1194.545455 567.114545 
C 1207.868343 567.114545 1221.061684 564.490227 1233.370428 559.391778 
C 1245.679173 554.293329 1256.863947 546.819902 1266.284652 537.399197 
C 1275.705357 527.978492 1283.178784 516.793718 1288.277233 504.484974 
C 1293.375681 492.176229 1296 478.982889 1296 465.66 
" style="fill:none;stroke:#000000;stroke-linecap:square;stroke-linejoin:miter;stroke-width:0.8;"/>
   </g>
  </g>
 </g>
 <defs>
  <clipPath id="p555e457603">
   <path d="M 382.909091 465.66 
C 382.909091 452.337111 380.284772 439.143771 375.186323 426.835026 
C 370.087875 414.526282 362.614448 403.341508 353.193743 393.920803 
C 343.773037 384.500098 332.588263 377.026671 320.279519 371.928222 
C 307.970775 366.829773 294.777434 364.205455 281.454545 364.205455 
C 268.131657 364.205455 254.938316 366.829773 242.629572 371.928222 
C 230.320827 377.026671 219.136053 384.500098 209.715348 393.920803 
C 200.294643 403.341508 192.821216 414.526282 187.722767 426.835026 
C 182.624319 439.143771 180 452.337111 180 465.66 
C 180 478.982889 182.624319 492.176229 187.722767 504.484974 
C 192.821216 516.793718 200.294643 527.978492 209.715348 537.399197 
C 219.136053 546.819902 230.320827 554.293329 242.629572 559.391778 
C 254.938316 564.490227 268.131657 567.114545 281.454545 567.114545 
C 294.777434 567.114545 307.970775 564.490227 320.279519 559.391778 
C 332.588263 554.293329 343.773037 546.819902 353.193743 537.399197 
C 362.614448 527.978492 370.087875 516.793718 375.186323 504.484974 
C 380.284772 492.176229 382.909091 478.982889 382.909091 465.66 
M 281.454545 465.66 
C 281.454545 465.66 281.454545 465.66 281.454545 465.66 
C 281.454545 465.66 281.454545 465.66 281.454545 465.66 
C 281.454545 465.66 281.454545 465.66 281.454545 465.66 
C 281.454545 465.66 281.454545 465.66 281.454545 465.66 
C 281.454545 465.66 281.454545 465.66 281.454545 465.66 
C 281.454545 465.66 281.454545 465.66 281.454545 465.66 
C 281.454545 465.66 281.454545 465.66 281.454545 465.66 
C 281.454545 465.66 281.454545 465.66 281.454545 465.66 
C 281.454545 465.66 281.454545 465.66 281.454545 465.66 
C 281.454545 465.66 281.454545 465.66 281.454545 465.66 
C 281.454545 465.66 281.454545 465.66 281.454545 465.66 
C 281.454545 465.66 281.454545 465.66 281.454545 465.66 
C 281.454545 465.66 281.454545 465.66 281.454545 465.66 
C 281.454545 465.66 281.454545 465.66 281.454545 465.66 
C 281.454545 465.66 281.454545 465.66 281.454545 465.66 
C 281.454545 465.66 281.454545 465.66 281.454545 465.66 
M 382.909091 465.66 
z
"/>
  </clipPath>
  <clipPath id="p6fb3471b2a">
   <path d="M 687.272727 465.66 
C 687.272727 452.337111 684.648409 439.143771 679.54996 426.835026 
C 674.451511 414.526282 666.978084 403.341508 657.557379 393.920803 
C 648.136674 384.500098 636.9519 377.026671 624.643156 371.928222 
C 612.334411 366.829773 599.141071 364.205455 585.818182 364.205455 
C 572.495293 364.205455 559.301952 366.829773 546.993208 371.928222 
C 534.684464 377.026671 523.49969 384.500098 514.078985 393.920803 
C 504.65828 403.341508 497.184853 414.526282 492.086404 426.835026 
C 486.987955 439.143771 484.363636 452.337111 484.363636 465.66 
C 484.363636 478.982889 486.987955 492.176229 492.086404 504.484974 
C 497.184853 516.793718 504.65828 527.978492 514.078985 537.399197 
C 523.49969 546.819902 534.684464 554.293329 546.993208 559.391778 
C 559.301952 564.490227 572.495293 567.114545 585.818182 567.114545 
C 599.141071 567.114545 612.334411 564.490227 624.643156 559.391778 
C 636.9519 554.293329 648.136674 546.819902 657.557379 537.399197 
C 666.978084 527.978492 674.451511 516.793718 679.54996 504.484974 
C 684.648409 492.176229 687.272727 478.982889 687.272727 465.66 
M 585.818182 465.66 
C 585.818182 465.66 585.818182 465.66 585.818182 465.66 
C 585.818182 465.66 585.818182 465.66 585.818182 465.66 
C 585.818182 465.66 585.818182 465.66 585.818182 465.66 
C 585.818182 465.66 585.818182 465.66 585.818182 465.66 
C 585.818182 465.66 585.818182 465.66 585.818182 465.66 
C 585.818182 465.66 585.818182 465.66 585.818182 465.66 
C 585.818182 465.66 585.818182 465.66 585.818182 465.66 
C 585.818182 465.66 585.818182 465.66 585.818182 465.66 
C 585.818182 465.66 585.818182 465.66 585.818182 465.66 
C 585.818182 465.66 585.818182 465.66 585.818182 465.66 
C 585.818182 465.66 585.818182 465.66 585.818182 465.66 
C 585.818182 465.66 585.818182 465.66 585.818182 465.66 
C 585.818182 465.66 585.818182 465.66 585.818182 465.66 
C 585.818182 465.66 585.818182 465.66 585.818182 465.66 
C 585.818182 465.66 585.818182 465.66 585.818182 465.66 
C 585.818182 465.66 585.818182 465.66 585.818182 465.66 
M 687.272727 465.66 
z
"/>
  </clipPath>
  <clipPath id="p4c14eb6c2f">
   <path d="M 991.636364 465.66 
C 991.636364 452.337111 989.012045 439.143771 983.913596 426.835026 
C 978.815147 414.526282 971.34172 403.341508 961.921015 393.920803 
C 952.50031 384.500098 941.315536 377.026671 929.006792 371.928222 
C 916.698048 366.829773 903.504707 364.205455 890.181818 364.205455 
C 876.858929 364.205455 863.665589 366.829773 851.356844 371.928222 
C 839.0481 377.026671 827.863326 384.500098 818.442621 393.920803 
C 809.021916 403.341508 801.548489 414.526282 796.45004 426.835026 
C 791.351591 439.143771 788.727273 452.337111 788.727273 465.66 
C 788.727273 478.982889 791.351591 492.176229 796.45004 504.484974 
C 801.548489 516.793718 809.021916 527.978492 818.442621 537.399197 
C 827.863326 546.819902 839.0481 554.293329 851.356844 559.391778 
C 863.665589 564.490227 876.858929 567.114545 890.181818 567.114545 
C 903.504707 567.114545 916.698048 564.490227 929.006792 559.391778 
C 941.315536 554.293329 952.50031 546.819902 961.921015 537.399197 
C 971.34172 527.978492 978.815147 516.793718 983.913596 504.484974 
C 989.012045 492.176229 991.636364 478.982889 991.636364 465.66 
M 890.181818 465.66 
C 890.181818 465.66 890.181818 465.66 890.181818 465.66 
C 890.181818 465.66 890.181818 465.66 890.181818 465.66 
C 890.181818 465.66 890.181818 465.66 890.181818 465.66 
C 890.181818 465.66 890.181818 465.66 890.181818 465.66 
C 890.181818 465.66 890.181818 465.66 890.181818 465.66 
C 890.181818 465.66 890.181818 465.66 890.181818 465.66 
C 890.181818 465.66 890.181818 465.66 890.181818 465.66 
C 890.181818 465.66 890.181818 465.66 890.181818 465.66 
C 890.181818 465.66 890.181818 465.66 890.181818 465.66 
C 890.181818 465.66 890.181818 465.66 890.181818 465.66 
C 890.181818 465.66 890.181818 465.66 890.181818 465.66 
C 890.181818 465.66 890.181818 465.66 890.181818 465.66 
C 890.181818 465.66 890.181818 465.66 890.181818 465.66 
C 890.181818 465.66 890.181818 465.66 890.181818 465.66 
C 890.181818 465.66 890.181818 465.66 890.181818 465.66 
C 890.181818 465.66 890.181818 465.66 890.181818 465.66 
M 991.636364 465.66 
z
"/>
  </clipPath>
  <clipPath id="p56fc981fe9">
   <path d="M 1296 465.66 
C 1296 452.337111 1293.375681 439.143771 1288.277233 426.835026 
C 1283.178784 414.526282 1275.705357 403.341508 1266.284652 393.920803 
C 1256.863947 384.500098 1245.679173 377.026671 1233.370428 371.928222 
C 1221.061684 366.829773 1207.868343 364.205455 1194.545455 364.205455 
C 1181.222566 364.205455 1168.029225 366.829773 1155.720481 371.928222 
C 1143.411737 377.026671 1132.226963 384.500098 1122.806257 393.920803 
C 1113.385552 403.341508 1105.912125 414.526282 1100.813677 426.835026 
C 1095.715228 439.143771 1093.090909 452.337111 1093.090909 465.66 
C 1093.090909 478.982889 1095.715228 492.176229 1100.813677 504.484974 
C 1105.912125 516.793718 1113.385552 527.978492 1122.806257 537.399197 
C 1132.226963 546.819902 1143.411737 554.293329 1155.720481 559.391778 
C 1168.029225 564.490227 1181.222566 567.114545 1194.545455 567.114545 
C 1207.868343 567.114545 1221.061684 564.490227 1233.370428 559.391778 
C 1245.679173 554.293329 1256.863947 546.819902 1266.284652 537.399197 
C 1275.705357 527.978492 1283.178784 516.793718 1288.277233 504.484974 
C 1293.375681 492.176229 1296 478.982889 1296 465.66 
M 1194.545455 465.66 
C 1194.545455 465.66 1194.545455 465.66 1194.545455 465.66 
C 1194.545455 465.66 1194.545455 465.66 1194.545455 465.66 
C 1194.545455 465.66 1194.545455 465.66 1194.545455 465.66 
C 1194.545455 465.66 1194.545455 465.66 1194.545455 465.66 
C 1194.545455 465.66 1194.545455 465.66 1194.545455 465.66 
C 1194.545455 465.66 1194.545455 465.66 1194.545455 465.66 
C 1194.545455 465.66 1194.545455 465.66 1194.545455 465.66 
C 1194.545455 465.66 1194.545455 465.66 1194.545455 465.66 
C 1194.545455 465.66 1194.545455 465.66 1194.545455 465.66 
C 1194.545455 465.66 1194.545455 465.66 1194.545455 465.66 
C 1194.545455 465.66 1194.545455 465.66 1194.545455 465.66 
C 1194.545455 465.66 1194.545455 465.66 1194.545455 465.66 
C 1194.545455 465.66 1194.545455 465.66 1194.545455 465.66 
C 1194.545455 465.66 1194.545455 465.66 1194.545455 465.66 
C 1194.545455 465.66 1194.545455 465.66 1194.545455 465.66 
C 1194.545455 465.66 1194.545455 465.66 1194.545455 465.66 
M 1296 465.66 
z
"/>
  </clipPath>
 </defs>
</svg>
